<svg width="40" height="40" viewBox="0 0 40 40" fill="none" xmlns="http://www.w3.org/2000/svg">
<rect width="40" height="40" fill="#0866FF" style="fill:#0866FF;fill:color(display-p3 0.0314 0.4000 1.0000);fill-opacity:1;"/>
<path d="M32.8 19.9883C32.8 12.919 27.0692 7.18828 20 7.18828C12.9308 7.18828 7.2 12.919 7.2 19.9883C7.2 25.9912 11.3326 31.0281 16.9078 32.4113V23.8997H14.2684V19.9883H16.9078V18.3028C16.9078 13.9461 18.8794 11.9268 23.1567 11.9268C23.9676 11.9268 25.3668 12.0858 25.9393 12.2448V15.7906C25.6371 15.7588 25.1124 15.7429 24.4605 15.7429C22.3617 15.7429 21.5507 16.5379 21.5507 18.605V19.9883H25.7316L25.0134 23.8997H21.5507V32.6945C27.8885 31.929 32.8 26.5326 32.8 19.9883Z" fill="white" style="fill:white;fill-opacity:1;"/>
</svg>
