<svg width="40" height="40" viewBox="0 0 40 40" fill="none" xmlns="http://www.w3.org/2000/svg">
<path d="M32.8 20C32.8 12.9308 27.0692 7.2 20 7.2C12.9308 7.2 7.2 12.9308 7.2 20C7.2 26.0029 11.3326 31.0398 16.9078 32.4231V23.9115H14.2684V20H16.9078V18.3145C16.9078 13.9578 18.8794 11.9385 23.1567 11.9385C23.9676 11.9385 25.3668 12.0975 25.9392 12.2565V15.8023C25.6371 15.7705 25.1124 15.7546 24.4605 15.7546C22.3616 15.7546 21.5507 16.5496 21.5507 18.6167V20H25.7316L25.0134 23.9115H21.5507V32.7062C27.8885 31.9407 32.8 26.5443 32.8 20Z" fill="#0866FF" style="fill:#0866FF;fill:color(display-p3 0.0314 0.4000 1.0000);fill-opacity:1;"/>
<path d="M25.0134 23.9115L25.7317 20H21.5507V18.6166C21.5507 16.5496 22.3616 15.7546 24.4605 15.7546C25.1124 15.7546 25.6371 15.7705 25.9392 15.8023V12.2565C25.3668 12.0975 23.9676 11.9385 23.1567 11.9385C18.8795 11.9385 16.9078 13.9578 16.9078 18.3145V20H14.2684V23.9115H16.9078V32.4231C17.8982 32.6687 18.9337 32.8 20 32.8C20.525 32.8 21.0423 32.7676 21.5507 32.7062V23.9115H25.0134Z" fill="white" style="fill:white;fill-opacity:1;"/>
</svg>
