<svg width="40" height="40" viewBox="0 0 40 40" fill="none" xmlns="http://www.w3.org/2000/svg">
<path d="M32.436 14.4998C32.3713 14.4334 32.3046 14.3691 32.236 14.3068C32.168 14.2453 32.104 14.1758 32.036 14.114C31.968 14.0523 31.904 13.9828 31.836 13.9213C31.768 13.8595 31.704 13.79 31.636 13.7282C31.568 13.6665 31.504 13.5972 31.436 13.5355C31.368 13.4737 31.304 13.4042 31.236 13.3425C31.168 13.2807 31.104 13.2115 31.036 13.1497C33.02 15.0297 34.1568 17.5878 34.2 20.27C34.2 26.6613 27.472 31.8608 19.2 31.8608C14.568 31.8608 10.424 30.2292 7.668 27.6717L7.868 27.8647L8.068 28.0575L8.268 28.2505L8.468 28.4433L8.668 28.6362L8.868 28.829L9.068 29.0217C11.82 31.6873 16.056 33.4035 20.8 33.4035C29.072 33.4035 35.8 28.2043 35.8 21.8323C35.8 19.109 34.584 16.5285 32.436 14.4998Z" fill="white" style="fill:white;fill-opacity:1;"/>
<path d="M33.2 20.27C33.198 19.5155 33.0903 18.7651 32.88 18.0405C31.788 30.8847 15.54 31.502 9.152 27.6605C12.0235 29.8065 15.567 30.9465 19.2 30.8925C26.92 30.8925 33.2 26.129 33.2 20.27Z" fill="white" fill-opacity="0.5" style="fill:white;fill-opacity:0.5;"/>
<path d="M13.812 10.8085C15.6 9.77476 17.976 7.83451 20.312 7.83076C19.9519 7.71859 19.5772 7.66004 19.2 7.65701C18.232 7.65701 17.2 8.13951 15.9 8.86451C15.448 9.11901 14.98 9.40051 14.484 9.69376C13.552 10.2493 12.484 10.8778 11.284 11.5065C7.476 13.493 5.2 16.7678 5.2 20.27V20.729C7.624 12.4708 12.028 11.8423 13.812 10.8085Z" fill="#FFFEFC" style="fill:#FFFEFC;fill:color(display-p3 1.0000 0.9961 0.9882);fill-opacity:1;"/>
<path d="M18.048 8.633C18.0531 9.54593 17.8546 10.4485 17.4668 11.275C17.074 12.1104 16.5038 12.8502 15.796 13.4427C15.684 13.5392 15.772 13.7245 15.916 13.6702C17.264 13.1652 19.084 11.6532 18.316 8.60225C18.284 8.4285 18.048 8.47475 18.048 8.633ZM18.956 8.633C19.4437 9.3983 19.7551 10.2625 19.8675 11.163C19.9788 12.0597 19.8875 12.969 19.6 13.8285C19.552 13.9635 19.724 14.0792 19.82 13.9675C20.696 12.8875 21.46 10.7427 19.172 8.4285C19.056 8.3285 18.876 8.4825 18.956 8.6175V8.633ZM20.06 8.5675C20.8215 9.08553 21.4627 9.76121 21.9403 10.5487C22.4114 11.3267 22.705 12.199 22.8 13.1035C22.796 13.136 22.805 13.1685 22.8253 13.1947C22.8462 13.221 22.8762 13.2385 22.9094 13.2439C22.9425 13.2493 22.9765 13.2422 23.0048 13.224C23.0327 13.2061 23.0525 13.178 23.06 13.1457C23.428 11.7997 23.22 9.50475 20.192 8.31275C20.032 8.25125 19.928 8.4595 20.06 8.552V8.5675ZM12.676 12.5787C13.5829 12.3187 14.4263 11.8743 15.1535 11.2732C15.8707 10.6807 16.4537 9.94245 16.864 9.1075C16.936 8.9685 17.164 9.0225 17.128 9.17675C16.436 12.2625 14.12 12.9067 12.68 12.8217C12.528 12.8257 12.532 12.6212 12.676 12.5787Z" fill="white" style="fill:white;fill-opacity:1;"/>
<path d="M19.2 31.8607C10.928 31.8607 4.2 26.6612 4.2 20.27C4.2 16.4127 6.672 12.8142 10.812 10.658C12.012 10.0407 13.04 9.41975 13.956 8.876C14.46 8.57525 14.936 8.2935 15.396 8.03125C16.8 7.229 18 6.69275 19.2 6.69275C20.4 6.69275 21.448 7.15575 22.76 7.904C23.16 8.124 23.56 8.363 23.988 8.62525C24.984 9.21925 26.108 9.89025 27.588 10.658C31.728 12.8142 34.2 16.409 34.2 20.27C34.2 26.6612 27.472 31.8607 19.2 31.8607ZM19.2 7.65725C18.232 7.65725 17.2 8.13925 15.9 8.8645C15.448 9.119 14.98 9.4005 14.484 9.69375C13.552 10.2492 12.484 10.8777 11.284 11.5065C7.476 13.493 5.2 16.7677 5.2 20.27C5.2 26.129 11.48 30.8965 19.2 30.8965C26.92 30.8965 33.2 26.129 33.2 20.27C33.2 16.7675 30.924 13.493 27.112 11.5142C25.6 10.7427 24.42 10.0177 23.464 9.44675C23.028 9.1885 22.628 8.94925 22.264 8.73725C21.052 8.04275 20.168 7.65725 19.2 7.65725Z" fill="white" style="fill:white;fill-opacity:1;"/>
<path d="M17.664 24.6285C17.8644 24.3797 18.1181 24.1792 18.4065 24.0418C18.6982 23.9025 19.0168 23.8289 19.34 23.8263C19.9349 23.8416 20.5038 24.0734 20.94 24.4783C21.032 24.3818 21.12 24.2815 21.204 24.1813C20.6953 23.7138 20.0225 23.448 19.32 23.4368C18.9455 23.4397 18.5759 23.5228 18.2363 23.6805C17.9002 23.8362 17.6025 24.0637 17.364 24.347C17.4585 24.446 17.5588 24.54 17.664 24.6285Z" fill="white" style="fill:white;fill-opacity:1;"/>
<path d="M19.236 25.859C18.574 25.8046 17.9483 25.5335 17.456 25.0875C16.8368 24.5825 16.401 23.9 16.212 23.1398C16.1985 23.0723 16.2008 23.0023 16.2188 22.9355C16.237 22.8684 16.2702 22.8063 16.316 22.754C16.3714 22.6898 16.4406 22.6389 16.5185 22.6053C16.5971 22.571 16.6823 22.5546 16.768 22.5573H21.704C21.7898 22.5555 21.8748 22.5723 21.953 22.6063C22.0307 22.6399 22.1 22.6904 22.156 22.754C22.2015 22.807 22.2343 22.869 22.2515 22.936C22.269 23.0028 22.2705 23.0723 22.256 23.1398C22.067 23.9003 21.631 24.5825 21.012 25.0875C20.5207 25.5327 19.8966 25.8038 19.236 25.859ZM16.768 23.0048C16.704 23.0048 16.688 23.0318 16.684 23.0395C16.853 23.699 17.2355 24.2893 17.776 24.725C18.1763 25.1028 18.6889 25.3398 19.236 25.4C19.7818 25.3404 20.2938 25.1063 20.696 24.7325C21.2348 24.2963 21.6158 23.706 21.784 23.0473C21.7751 23.0348 21.763 23.025 21.749 23.019C21.7348 23.0129 21.7193 23.0106 21.704 23.0125L16.768 23.0048Z" fill="white" style="fill:white;fill-opacity:1;"/>
<path d="M25.288 23.325C26.5805 23.325 27.628 22.7308 27.628 21.998C27.628 21.2653 26.5805 20.6713 25.288 20.6713C23.9955 20.6713 22.948 21.2653 22.948 21.998C22.948 22.7308 23.9955 23.325 25.288 23.325ZM13.18 23.325C14.4725 23.325 15.52 22.7308 15.52 21.998C15.52 21.2653 14.4725 20.6713 13.18 20.6713C11.8875 20.6713 10.84 21.2653 10.84 21.998C10.84 22.7308 11.8875 23.325 13.18 23.325Z" fill="white" fill-opacity="0.5" style="fill:white;fill-opacity:0.5;"/>
<path d="M13.4414 17.376C13.8459 17.2152 14.2884 17.1744 14.7158 17.2568C15.1403 17.3375 15.5321 17.5396 15.8438 17.8389C16.1497 18.1328 16.3601 18.5123 16.4463 18.9277C16.5308 19.3404 16.4865 19.7696 16.3193 20.1562C16.1491 20.5477 15.8657 20.8798 15.5059 21.1094C15.1401 21.3432 14.7144 21.467 14.2803 21.4658C13.6966 21.4648 13.1371 21.2401 12.7246 20.8418C12.3122 20.4436 12.0802 19.9037 12.0801 19.3408C12.0806 18.9185 12.2099 18.5058 12.4512 18.1592C12.6972 17.8067 13.0417 17.534 13.4414 17.376ZM23.3643 17.375C23.7693 17.2145 24.212 17.1736 24.6396 17.2568C25.0643 17.3386 25.4565 17.5424 25.7676 17.8428C26.0732 18.1378 26.2823 18.5193 26.3672 18.9355C26.4503 19.3489 26.4044 19.7777 26.2354 20.1641C26.0632 20.5554 25.7785 20.887 25.417 21.1152C25.0497 21.3476 24.6231 21.4692 24.1885 21.4658C23.6065 21.4628 23.0487 21.2371 22.6387 20.8389C22.2286 20.4405 21.9991 19.9019 22 19.3408C22.0006 18.918 22.1303 18.505 22.3721 18.1582C22.6186 17.8056 22.964 17.5327 23.3643 17.375ZM13.7666 17.8945C13.606 17.8635 13.4401 17.8791 13.2881 17.9394C13.1378 17.9988 13.0085 18.101 12.916 18.2334C12.8253 18.3636 12.7766 18.5181 12.7764 18.6767C12.7764 18.8876 12.8625 19.0905 13.0166 19.2402C13.1733 19.3907 13.3824 19.4752 13.5996 19.4756C13.7627 19.4765 13.9229 19.4302 14.0605 19.3428C14.1973 19.2553 14.3049 19.1311 14.3682 18.9853C14.4314 18.8401 14.4475 18.6786 14.416 18.5234C14.3839 18.3675 14.3059 18.2248 14.1914 18.1142C14.0744 18.0015 13.9262 17.925 13.7666 17.8945ZM23.6748 17.8945C23.5142 17.8634 23.3483 17.8791 23.1963 17.9394C23.046 17.9988 22.9167 18.101 22.8242 18.2334C22.7335 18.3636 22.6839 18.5181 22.6836 18.6767C22.6836 18.8866 22.7693 19.0878 22.9219 19.2373C23.0744 19.3868 23.2823 19.4726 23.5 19.4756H23.5078C23.671 19.4765 23.831 19.4303 23.9688 19.3428C24.1055 19.2553 24.2121 19.131 24.2754 18.9853C24.3386 18.8401 24.3557 18.6787 24.3242 18.5234C24.2921 18.3673 24.2134 18.2249 24.0986 18.1142C23.9816 18.0015 23.8344 17.925 23.6748 17.8945Z" fill="white" style="fill:white;fill-opacity:1;"/>
</svg>
