<svg width="40" height="40" viewBox="0 0 40 40" fill="none" xmlns="http://www.w3.org/2000/svg">
<path d="M32.436 14.4998C32.3713 14.4334 32.3046 14.3691 32.236 14.3068C32.168 14.2453 32.104 14.1758 32.036 14.114C31.968 14.0523 31.904 13.9828 31.836 13.9213C31.768 13.8595 31.704 13.79 31.636 13.7282C31.568 13.6665 31.504 13.5972 31.436 13.5355C31.368 13.4737 31.304 13.4042 31.236 13.3425C31.168 13.2807 31.104 13.2115 31.036 13.1497C33.02 15.0297 34.1568 17.5878 34.2 20.27C34.2 26.6613 27.472 31.8608 19.2 31.8608C14.568 31.8608 10.424 30.2292 7.668 27.6717L7.868 27.8647L8.068 28.0575L8.268 28.2505L8.468 28.4433L8.668 28.6362L8.868 28.829L9.068 29.0217C11.82 31.6873 16.056 33.4035 20.8 33.4035C29.072 33.4035 35.8 28.2043 35.8 21.8323C35.8 19.109 34.584 16.5285 32.436 14.4998Z" fill="black" style="fill:black;fill-opacity:1;"/>
<path d="M33.2 20.27C33.2 26.1368 26.932 30.8925 19.2 30.8925C11.468 30.8925 5.2 26.1368 5.2 20.27C5.2 16.6325 7.6 13.4198 11.288 11.5143C14.976 9.60876 17.272 7.65701 19.2 7.65701C21.128 7.65701 22.776 9.25001 27.112 11.5145C30.8 13.4193 33.2 16.6325 33.2 20.27Z" fill="#FBF0DF" style="fill:#FBF0DF;fill:color(display-p3 0.9843 0.9412 0.8745);fill-opacity:1;"/>
<path d="M33.2 20.27C33.198 19.5155 33.0902 18.7651 32.88 18.0405C31.788 30.8847 15.54 31.502 9.15199 27.6605C12.0235 29.8065 15.567 30.9465 19.2 30.8925C26.92 30.8925 33.2 26.129 33.2 20.27Z" fill="#F6DECE" style="fill:#F6DECE;fill:color(display-p3 0.9647 0.8706 0.8078);fill-opacity:1;"/>
<path d="M13.812 10.8085C15.6 9.77476 17.976 7.83451 20.312 7.83076C19.9519 7.71859 19.5772 7.66004 19.2 7.65701C18.232 7.65701 17.2 8.13951 15.9 8.86451C15.448 9.11901 14.98 9.40051 14.484 9.69376C13.552 10.2493 12.484 10.8778 11.284 11.5065C7.476 13.493 5.2 16.7678 5.2 20.27V20.729C7.624 12.4708 12.028 11.8423 13.812 10.8085Z" fill="#FFFEFC" style="fill:#FFFEFC;fill:color(display-p3 1.0000 0.9961 0.9882);fill-opacity:1;"/>
<path d="M18.048 8.633C18.0531 9.54593 17.8546 10.4485 17.4668 11.275C17.074 12.1104 16.5038 12.8502 15.796 13.4427C15.684 13.5392 15.772 13.7245 15.916 13.6702C17.264 13.1652 19.084 11.6532 18.316 8.60225C18.284 8.4285 18.048 8.47475 18.048 8.633ZM18.956 8.633C19.4437 9.3983 19.7551 10.2625 19.8675 11.163C19.9788 12.0597 19.8875 12.969 19.6 13.8285C19.552 13.9635 19.724 14.0792 19.82 13.9675C20.696 12.8875 21.46 10.7427 19.172 8.4285C19.056 8.3285 18.876 8.4825 18.956 8.6175V8.633ZM20.06 8.5675C20.8215 9.08553 21.4627 9.76121 21.9403 10.5487C22.4114 11.3267 22.705 12.199 22.8 13.1035C22.796 13.136 22.805 13.1685 22.8253 13.1947C22.8462 13.221 22.8762 13.2385 22.9094 13.2439C22.9425 13.2493 22.9765 13.2422 23.0048 13.224C23.0327 13.2061 23.0525 13.178 23.06 13.1457C23.428 11.7997 23.22 9.50475 20.192 8.31275C20.032 8.25125 19.928 8.4595 20.06 8.552V8.5675ZM12.676 12.5787C13.5829 12.3187 14.4263 11.8743 15.1535 11.2732C15.8707 10.6807 16.4537 9.94245 16.864 9.1075C16.936 8.9685 17.164 9.0225 17.128 9.17675C16.436 12.2625 14.12 12.9067 12.68 12.8217C12.528 12.8257 12.532 12.6212 12.676 12.5787Z" fill="#CCBEA7" style="fill:#CCBEA7;fill:color(display-p3 0.8000 0.7451 0.6549);fill-opacity:1;"/>
<path d="M19.2 31.8607C10.928 31.8607 4.2 26.6612 4.2 20.27C4.2 16.4127 6.672 12.8142 10.812 10.658C12.012 10.0407 13.04 9.41975 13.956 8.876C14.46 8.57525 14.936 8.2935 15.396 8.03125C16.8 7.229 18 6.69275 19.2 6.69275C20.4 6.69275 21.448 7.15575 22.76 7.904C23.16 8.124 23.56 8.363 23.988 8.62525C24.984 9.21925 26.108 9.89025 27.588 10.658C31.728 12.8142 34.2 16.409 34.2 20.27C34.2 26.6612 27.472 31.8607 19.2 31.8607ZM19.2 7.65725C18.232 7.65725 17.2 8.13925 15.9 8.8645C15.448 9.119 14.98 9.4005 14.484 9.69375C13.552 10.2492 12.484 10.8777 11.284 11.5065C7.476 13.493 5.2 16.7677 5.2 20.27C5.2 26.129 11.48 30.8965 19.2 30.8965C26.92 30.8965 33.2 26.129 33.2 20.27C33.2 16.7675 30.924 13.493 27.112 11.5142C25.6 10.7427 24.42 10.0177 23.464 9.44675C23.028 9.1885 22.628 8.94925 22.264 8.73725C21.052 8.04275 20.168 7.65725 19.2 7.65725Z" fill="black" style="fill:black;fill-opacity:1;"/>
<path d="M22.02 23.0857C21.8402 23.7955 21.4312 24.4315 20.852 24.9025C20.4115 25.3115 19.8499 25.566 19.252 25.6275C18.6361 25.576 18.0549 25.3209 17.6 24.9025C17.0267 24.4295 16.6235 23.7935 16.448 23.0857C16.4422 23.0437 16.4465 23.0008 16.4605 22.9607C16.4746 22.9203 16.4979 22.8837 16.5285 22.8537C16.5601 22.8236 16.5979 22.8007 16.6393 22.7868C16.6807 22.7729 16.7246 22.7683 16.768 22.7732H21.704C21.7471 22.7688 21.7906 22.774 21.8315 22.7882C21.8724 22.8025 21.9097 22.8255 21.9407 22.8557C21.9711 22.8851 21.9942 22.9213 22.0079 22.9612C22.0217 23.0012 22.0258 23.0439 22.02 23.0857Z" fill="#B71422" style="fill:#B71422;fill:color(display-p3 0.7176 0.0784 0.1333);fill-opacity:1;"/>
<path d="M17.6 24.9333C18.0539 25.352 18.633 25.6097 19.248 25.6663C19.8616 25.6088 20.4392 25.3513 20.892 24.9333C21.0347 24.8051 21.1683 24.6673 21.292 24.5208C21.0434 24.2496 20.7426 24.0316 20.4075 23.8798C20.069 23.7262 19.7035 23.6413 19.332 23.6298C18.9348 23.6384 18.5452 23.7405 18.1948 23.9278C17.8489 24.1124 17.5528 24.378 17.332 24.702C17.424 24.7828 17.504 24.86 17.6 24.9333Z" fill="#FF6164" style="fill:#FF6164;fill:color(display-p3 1.0000 0.3804 0.3922);fill-opacity:1;"/>
<path d="M17.664 24.6285C17.8644 24.3797 18.1181 24.1792 18.4065 24.0417C18.6982 23.9025 19.0168 23.8289 19.34 23.8262C19.9349 23.8416 20.5038 24.0734 20.94 24.4782C21.032 24.3817 21.12 24.2815 21.204 24.1812C20.6952 23.7137 20.0225 23.448 19.32 23.4367C18.9455 23.4396 18.5759 23.5228 18.2362 23.6805C17.9002 23.8362 17.6025 24.0637 17.364 24.347C17.4585 24.446 17.5587 24.54 17.664 24.6285Z" fill="black" style="fill:black;fill-opacity:1;"/>
<path d="M19.236 25.859C18.574 25.8046 17.9483 25.5335 17.456 25.0875C16.8368 24.5825 16.401 23.9 16.212 23.1398C16.1985 23.0723 16.2008 23.0023 16.2188 22.9355C16.237 22.8684 16.2702 22.8063 16.316 22.754C16.3714 22.6898 16.4406 22.6389 16.5185 22.6053C16.5971 22.571 16.6823 22.5546 16.768 22.5573H21.704C21.7898 22.5555 21.8748 22.5723 21.953 22.6063C22.0307 22.6399 22.1 22.6904 22.156 22.754C22.2015 22.807 22.2343 22.869 22.2515 22.936C22.269 23.0028 22.2705 23.0723 22.256 23.1398C22.067 23.9003 21.631 24.5825 21.012 25.0875C20.5207 25.5327 19.8966 25.8038 19.236 25.859ZM16.768 23.0048C16.704 23.0048 16.688 23.0318 16.684 23.0395C16.853 23.699 17.2355 24.2893 17.776 24.725C18.1763 25.1028 18.6889 25.3398 19.236 25.4C19.7818 25.3404 20.2938 25.1063 20.696 24.7325C21.2348 24.2963 21.6158 23.706 21.784 23.0473C21.7751 23.0348 21.763 23.025 21.749 23.019C21.7348 23.0129 21.7193 23.0106 21.704 23.0125L16.768 23.0048Z" fill="black" style="fill:black;fill-opacity:1;"/>
<path d="M25.288 23.325C26.5805 23.325 27.628 22.7308 27.628 21.998C27.628 21.2653 26.5805 20.6713 25.288 20.6713C23.9955 20.6713 22.948 21.2653 22.948 21.998C22.948 22.7308 23.9955 23.325 25.288 23.325ZM13.18 23.325C14.4725 23.325 15.52 22.7308 15.52 21.998C15.52 21.2653 14.4725 20.6713 13.18 20.6713C11.8875 20.6713 10.84 21.2653 10.84 21.998C10.84 22.7308 11.8875 23.325 13.18 23.325Z" fill="#FEBBD0" style="fill:#FEBBD0;fill:color(display-p3 0.9961 0.7333 0.8157);fill-opacity:1;"/>
<path d="M14.28 21.4657C14.7142 21.467 15.1396 21.3434 15.5055 21.1095C15.8655 20.8799 16.1488 20.5481 16.319 20.1565C16.4862 19.7698 16.5306 19.341 16.446 18.9282C16.3599 18.5127 16.15 18.133 15.844 17.839C15.5322 17.5396 15.1402 17.3372 14.7155 17.2565C14.2881 17.1741 13.846 17.2157 13.4415 17.3765C13.0418 17.5345 12.6975 17.8068 12.4515 18.1592C12.2101 18.5059 12.0805 18.9181 12.08 19.3405C12.08 19.9035 12.3118 20.4435 12.7243 20.8417C13.1368 21.2402 13.6963 21.4647 14.28 21.4657ZM24.188 21.4657C24.6228 21.4693 25.0494 21.3475 25.4168 21.115C25.7783 20.8868 26.0634 20.5558 26.2355 20.1645C26.4046 19.778 26.4507 19.3488 26.3675 18.9352C26.2826 18.519 26.0736 18.1383 25.768 17.8432C25.4568 17.5426 25.0649 17.339 24.64 17.2572C24.2122 17.1739 23.7695 17.2149 23.3643 17.3755C22.964 17.5332 22.619 17.8054 22.3725 18.158C22.1305 18.5049 22.0006 18.9175 22 19.3405C21.999 19.9017 22.2285 20.4405 22.6388 20.839C23.0488 21.2372 23.606 21.4627 24.188 21.4657Z" fill="black" style="fill:black;fill-opacity:1;"/>
<path d="M13.6 19.4755C13.7632 19.4764 13.9233 19.4304 14.061 19.3428C14.1978 19.2553 14.3045 19.131 14.3678 18.9853C14.431 18.84 14.448 18.6788 14.4165 18.5235C14.3844 18.3673 14.3058 18.2245 14.191 18.1138C14.074 18.001 13.9266 17.9248 13.767 17.8943C13.6063 17.8631 13.4401 17.8786 13.288 17.939C13.1377 17.9983 13.0083 18.1006 12.9158 18.233C12.825 18.3633 12.7762 18.5182 12.776 18.677C12.776 18.888 12.8628 19.0905 13.017 19.2403C13.1738 19.3908 13.3826 19.4752 13.6 19.4755ZM23.508 19.4755C23.6712 19.4764 23.8313 19.4304 23.969 19.3428C24.1058 19.2553 24.2125 19.131 24.2758 18.9853C24.339 18.84 24.356 18.6788 24.3245 18.5235C24.2924 18.3673 24.2138 18.2245 24.099 18.1138C23.982 18.001 23.8346 17.9248 23.675 17.8943C23.5143 17.8631 23.3481 17.8786 23.196 17.939C23.0457 17.9983 22.9163 18.1006 22.8238 18.233C22.733 18.3633 22.6842 18.5182 22.684 18.677C22.684 18.887 22.7695 19.088 22.9223 19.2375C23.0748 19.387 23.2823 19.4725 23.5 19.4755H23.508Z" fill="white" style="fill:white;fill-opacity:1;"/>
</svg>
