<svg width="40" height="40" viewBox="0 0 40 40" fill="none" xmlns="http://www.w3.org/2000/svg">
<path fill-rule="evenodd" clip-rule="evenodd" d="M32.8 32.8H27.54V23.841C27.54 21.3847 26.6067 20.012 24.6625 20.012C22.5475 20.012 21.4425 21.4405 21.4425 23.841V32.8H16.3733V15.7333H21.4425V18.0322C21.4425 18.0322 22.9667 15.2119 26.5883 15.2119C30.2083 15.2119 32.8 17.4225 32.8 21.9944V32.8ZM10.3258 13.4985C8.59916 13.4985 7.2 12.0884 7.2 10.3492C7.2 8.6101 8.59916 7.19995 10.3258 7.19995C12.0525 7.19995 13.4508 8.6101 13.4508 10.3492C13.4508 12.0884 12.0525 13.4985 10.3258 13.4985ZM7.70833 32.8H12.9942V15.7333H7.70833V32.8Z" fill="white" style="fill:white;fill-opacity:1;"/>
</svg>
