<svg width="40" height="40" viewBox="0 0 40 40" fill="none" xmlns="http://www.w3.org/2000/svg">
<path fill-rule="evenodd" clip-rule="evenodd" d="M20 6.6427C12.8175 6.6427 7 12.4602 7 19.6427C7 25.3952 10.7212 30.254 15.8888 31.9764C16.5387 32.0902 16.7825 31.7002 16.7825 31.3589C16.7825 31.0502 16.7663 30.0265 16.7663 28.9377C13.5 29.5389 12.655 28.1414 12.395 27.4102C12.2487 27.0364 11.615 25.8827 11.0625 25.5739C10.6075 25.3302 9.9575 24.729 11.0462 24.7127C12.07 24.6964 12.8012 25.6552 13.045 26.0452C14.215 28.0114 16.0838 27.459 16.8313 27.1177C16.945 26.2727 17.2863 25.7039 17.66 25.379C14.7675 25.0539 11.745 23.9327 11.745 18.9602C11.745 17.5464 12.2488 16.3764 13.0775 15.4664C12.9475 15.1414 12.4925 13.8089 13.2075 12.0215C13.2075 12.0215 14.2962 11.6802 16.7825 13.354C17.8225 13.0615 18.9275 12.9152 20.0325 12.9152C21.1375 12.9152 22.2425 13.0615 23.2825 13.354C25.7688 11.664 26.8575 12.0215 26.8575 12.0215C27.5725 13.8089 27.1175 15.1414 26.9875 15.4664C27.8162 16.3764 28.32 17.5302 28.32 18.9602C28.32 23.9489 25.2812 25.0539 22.3888 25.379C22.86 25.7852 23.2663 26.5652 23.2663 27.784C23.2663 29.5227 23.25 30.9202 23.25 31.3589C23.25 31.7002 23.4937 32.1065 24.1438 31.9764C29.2788 30.254 33 25.379 33 19.6427C33 12.4602 27.1825 6.6427 20 6.6427Z" fill="currentColor" style="fill:currentColor;fill-opacity:1;"/>
</svg>
