<svg width="40" height="40" viewBox="0 0 40 40" fill="none" xmlns="http://www.w3.org/2000/svg">
<path fill-rule="evenodd" clip-rule="evenodd" d="M31.4128 14.9226C31.509 15.8823 31.4088 16.8523 31.1188 17.7681C32.0429 18.8442 32.6187 20.1991 32.7638 21.6389C32.9089 23.0786 32.6158 24.5296 31.9266 25.7843C31.4704 26.6227 30.849 27.3495 30.1037 27.9163C29.3583 28.483 28.5063 28.8767 27.6044 29.0711C27.1803 30.4564 26.3472 31.6647 25.2253 32.5215C24.1035 33.3783 22.7508 33.8393 21.3627 33.838C20.442 33.8433 19.5308 33.6426 18.6899 33.2494C17.8491 32.8561 17.098 32.2794 16.4868 31.5577C15.1317 31.8624 13.7193 31.7083 12.4532 31.1176C11.1871 30.5269 10.1326 29.5301 9.4417 28.2709C8.97699 27.4378 8.68739 26.5103 8.59228 25.5504C8.49717 24.5905 8.59874 23.6204 8.8902 22.705C7.95946 21.627 7.37998 20.2667 7.23554 18.8208C7.09111 17.3749 7.38921 15.9183 8.08675 14.6616C8.54274 13.8229 9.16428 13.0958 9.90983 12.529C10.6554 11.9622 11.5078 11.5688 12.4101 11.3749C12.7678 10.2287 13.4069 9.20132 14.2633 8.3959C15.1196 7.59048 16.1631 7.03536 17.2889 6.78628C18.4148 6.5372 19.5833 6.60293 20.6772 6.97686C21.7711 7.3508 22.7519 8.01977 23.5211 8.91663C24.8754 8.61231 26.2869 8.76663 27.5521 9.35734C28.8173 9.94804 29.8709 10.9446 30.5608 12.2034C31.0261 13.036 31.3166 13.963 31.4128 14.9226ZM18.2527 30.8799C19.1252 31.6433 20.2261 32.0606 21.3627 32.0586C22.6507 32.0556 23.8851 31.518 24.7958 30.5635C25.7066 29.609 26.2195 28.3152 26.2224 26.9653V20.6378C26.2204 20.6253 26.2157 20.6134 26.2086 20.6032C26.2014 20.5929 26.1921 20.5846 26.1813 20.5788L23.9969 19.2551V26.8905C23.9961 27.0466 23.9566 27.1998 23.8823 27.3351C23.808 27.4704 23.7014 27.5832 23.573 27.6623L18.4052 30.7881L18.2527 30.8799ZM10.3382 23.9664C10.1414 25.141 10.3463 26.3506 10.9167 27.3824C11.5622 28.5514 12.6237 29.4043 13.8684 29.754C15.1132 30.1038 16.4394 29.9217 17.5563 29.2479L22.7901 26.0847C22.8008 26.0766 22.8095 26.066 22.8157 26.0539C22.8219 26.0417 22.8253 26.0282 22.8258 26.0144V23.3714L16.5074 27.1897C16.3795 27.2683 16.2339 27.3097 16.0856 27.3097C15.9374 27.3097 15.7918 27.2683 15.6639 27.1897L10.4917 24.0628L10.3382 23.9664ZM12.1127 13.3503C11.0347 13.7557 10.1283 14.5478 9.55416 15.5864V15.5592C8.91221 16.7304 8.73931 18.1205 9.07334 19.425C9.40736 20.7296 10.2211 21.8422 11.3363 22.5192L16.5593 25.6767C16.5711 25.6832 16.5843 25.6866 16.5977 25.6866C16.611 25.6866 16.6242 25.6832 16.636 25.6767L18.8204 24.3529L12.5323 20.5505C12.4033 20.4739 12.2963 20.3623 12.2225 20.2276C12.1487 20.0928 12.1108 19.9397 12.1127 19.7844V13.3503ZM21.194 16.1168L27.5016 19.9555C27.6312 20.0307 27.7399 20.1399 27.8171 20.2725C27.8943 20.405 27.9372 20.5563 27.9417 20.7115V27.1466C28.8061 26.8093 29.5609 26.2212 30.1182 25.4509C30.6755 24.6807 31.0121 23.7602 31.0887 22.7969C31.1654 21.8336 30.9789 20.8673 30.5511 20.011C30.1233 19.1546 29.4718 18.4435 28.6727 17.9608L23.4497 14.7976C23.4379 14.7911 23.4247 14.7876 23.4113 14.7876C23.398 14.7876 23.3848 14.7911 23.373 14.7976L21.194 16.1168ZM29.5227 16.433L29.6752 16.5294V16.5078C29.8311 15.5536 29.7247 14.5726 29.3684 13.6794C29.0121 12.7862 28.4206 12.0178 27.663 11.4639C26.9054 10.91 26.0131 10.5935 25.0902 10.5515C24.1674 10.5094 23.2522 10.7435 22.4516 11.2264L17.2286 14.3851C17.2181 14.3927 17.2098 14.4031 17.2045 14.4153C17.1992 14.4275 17.197 14.4409 17.1984 14.4542V17.0983L23.5114 13.28C23.6401 13.2009 23.7866 13.1593 23.9358 13.1593C24.085 13.1593 24.2315 13.2009 24.3602 13.28L29.5227 16.433ZM13.8223 19.8966L16.0067 21.2158L16.011 13.5974C16.0119 13.4412 16.0516 13.2879 16.1261 13.1526C16.2006 13.0173 16.3074 12.9046 16.436 12.8256L21.6028 9.69978L21.7563 9.60911C21.046 8.99081 20.1824 8.5971 19.2665 8.47396C18.3507 8.35082 17.4203 8.50334 16.584 8.91371C15.7477 9.32407 15.0401 9.97534 14.5438 10.7914C14.0475 11.6076 13.783 12.5548 13.7812 13.5226V19.832C13.7831 19.8453 13.7877 19.8579 13.7948 19.8691C13.802 19.8803 13.8113 19.8897 13.8223 19.8966ZM20.0067 16.8354L17.1929 18.5354L17.1984 21.9343L20.0175 23.6344L22.8258 21.9343V18.5354L20.0067 16.8354Z" fill="black" fill-opacity="0.87" style="fill:black;fill-opacity:0.87;"/>
</svg>
