<svg width="40" height="40" viewBox="0 0 40 40" fill="none" xmlns="http://www.w3.org/2000/svg">
<path d="M29.0245 11.3731C27.3163 10.5869 25.5129 10.0292 23.6604 9.71411C23.4069 10.1697 23.1777 10.6383 22.9733 11.1182C21.0002 10.8193 18.9936 10.8193 17.0204 11.1182C16.816 10.6384 16.5867 10.1697 16.3333 9.71411C14.4797 10.0318 12.6752 10.5909 10.9652 11.3772C7.57054 16.4262 6.65029 21.3499 7.11041 26.2035C9.09842 27.6801 11.3236 28.8032 13.6891 29.5236C14.2218 28.8035 14.6931 28.0395 15.0981 27.2396C14.3289 26.9509 13.5864 26.5945 12.8793 26.1748C13.0654 26.0391 13.2474 25.8993 13.4233 25.7636C15.4807 26.7363 17.7263 27.2406 20 27.2406C22.2736 27.2406 24.5192 26.7363 26.5766 25.7636C26.7546 25.9096 26.9366 26.0494 27.1206 26.1748C26.4122 26.5952 25.6684 26.9522 24.8977 27.2417C25.3022 28.0411 25.7735 28.8045 26.3067 29.5236C28.6743 28.806 30.9011 27.6835 32.8895 26.2056C33.4294 20.5769 31.9672 15.6985 29.0245 11.3731ZM15.6809 23.2186C14.3987 23.2186 13.3394 22.0488 13.3394 20.6097C13.3394 19.1707 14.3619 17.9907 15.6769 17.9907C16.9918 17.9907 18.0429 19.1707 18.0205 20.6097C17.9979 22.0488 16.9877 23.2186 15.6809 23.2186ZM24.319 23.2186C23.0347 23.2186 21.9795 22.0488 21.9795 20.6097C21.9795 19.1707 23.0019 17.9907 24.319 17.9907C25.636 17.9907 26.6789 19.1707 26.6564 20.6097C26.6339 22.0488 25.6257 23.2186 24.319 23.2186Z" fill="black" fill-opacity="0.87" style="fill:black;fill-opacity:0.87;"/>
</svg>
