<svg width="40" height="40" viewBox="0 0 40 40" fill="none" xmlns="http://www.w3.org/2000/svg">
<rect width="40" height="40" fill="black" style="fill:black;fill-opacity:1;"/>
<path d="M20.3346 7.28564L22.6563 7.57219C32.6735 9.6836 36.4893 22.098 29.2599 29.5053C21.9481 36.995 8.53354 32.7177 7.15882 22.2766C7.10087 21.8404 7.23069 21.3428 7.01045 20.975C7.03364 20.5156 6.978 20.0411 7.01045 19.5829C7.46715 13.1767 12.5024 7.85642 18.9448 7.28564H20.3346ZM31.8053 19.6989C31.4831 14.7579 28.1054 10.3599 23.3205 8.99565C17.1737 7.24272 11.13 10.556 8.86505 16.3937L9.29393 16.3589L15.5671 13.0688C15.5984 12.6987 15.5184 12.389 15.8754 12.1604L17.9085 14.432L22.1394 12.1651C22.4685 11.8368 22.144 11.2045 22.5961 10.8843C24.9769 13.831 27.9929 16.1466 30.6473 18.8311L31.8053 19.6989ZM21.8229 15.0399L21.7847 13.8995L8.30172 21.1687C8.51963 25.105 10.8645 28.6666 14.2538 30.6028C14.5216 28.7849 14.0915 26.6398 14.3083 24.8579C14.3593 24.4414 14.6178 24.3057 14.6642 23.9379C14.8716 22.3033 14.4277 20.3451 14.7928 18.6722L21.8229 15.0399ZM24.2745 14.8264V20.1049L30.2613 25.7141L30.5256 25.7268C30.6775 25.2616 30.9162 24.8289 31.0808 24.3683C31.2837 23.8022 31.847 22.0643 31.5804 21.6073C31.41 21.3161 30.2358 20.2569 29.8974 19.9286C28.6849 18.7522 27.3577 17.6687 26.1267 16.5109C25.6469 16.0596 25.1183 15.3798 24.6234 15.0004C24.5063 14.9111 24.4773 14.7753 24.2745 14.8264ZM14.7731 15.0584L8.58918 18.3207C8.26115 18.5921 8.27738 19.0782 8.28549 19.4657L14.4184 16.2684C14.8925 15.9981 14.7754 15.5317 14.7731 15.0584ZM21.1158 18.3357C20.7357 18.3288 18.043 18.6803 17.7555 18.7998C17.6164 18.8578 17.2003 19.3543 17.1528 19.4726C17.0218 19.7975 17.023 23.627 17.0879 24.1688C17.1702 24.8614 17.5307 25.0621 18.1879 25.0366C19.1442 25.0006 20.2083 24.6932 21.1831 24.6676C21.5552 24.2987 21.7963 24.0064 21.8449 23.475C21.9214 22.6595 21.9736 19.7789 21.8368 19.0643C21.7963 18.8497 21.3372 18.3404 21.1135 18.3357H21.1158ZM24.7381 31.068C26.6739 30.2884 28.474 28.858 29.5914 27.083L24.2745 22.1363C24.0334 22.8207 24.5654 23.3323 24.6268 23.8126C24.8679 25.6943 24.4762 28.1225 24.6164 30.0877C24.6396 30.4183 24.7683 30.7316 24.7381 31.068ZM21.8415 31.9961V28.2257C21.8415 28.1735 21.5227 27.7431 21.4439 27.6955C20.8423 27.3336 18.48 27.9948 17.6686 27.9925C16.6613 28.9403 17.2432 30.4613 17.0833 31.6933C18.611 32.2084 20.2546 32.1388 21.8415 31.9961Z" fill="white" style="fill:white;fill-opacity:1;"/>
</svg>
