<svg width="40" height="40" viewBox="0 0 40 40" fill="none" xmlns="http://www.w3.org/2000/svg">
<g clip-path="url(#clip0_15394_14033)">
<path d="M30.4711 26.3477C30.1224 26.5288 29.7629 26.6883 29.3945 26.825C28.2281 27.2591 26.993 27.4793 25.7484 27.475C20.9445 27.475 16.7602 24.1742 16.7602 19.9289C16.7664 19.3604 16.924 18.8039 17.2168 18.3166C17.5095 17.8293 17.9268 17.4287 18.4258 17.1562C14.0789 17.3391 12.9617 21.8688 12.9617 24.5195C12.9617 32.0352 19.8781 32.7867 21.3711 32.7867C22.1734 32.7867 23.382 32.5531 24.1133 32.3195L24.2453 32.2789C27.0438 31.3118 29.4294 29.4205 31.0094 26.9164C31.0553 26.8403 31.075 26.7513 31.0655 26.6629C31.0559 26.5746 31.0177 26.4918 30.9566 26.4272C30.8955 26.3627 30.815 26.32 30.7273 26.3056C30.6396 26.2912 30.5496 26.306 30.4711 26.3477Z" fill="url(#paint0_linear_15394_14033)"/>
<path opacity="0.35" d="M30.4711 26.3477C30.1224 26.5288 29.7629 26.6883 29.3945 26.825C28.2281 27.2591 26.993 27.4793 25.7484 27.475C20.9445 27.475 16.7602 24.1742 16.7602 19.9289C16.7664 19.3604 16.924 18.8039 17.2168 18.3166C17.5095 17.8293 17.9268 17.4287 18.4258 17.1562C14.0789 17.3391 12.9617 21.8688 12.9617 24.5195C12.9617 32.0352 19.8781 32.7867 21.3711 32.7867C22.1734 32.7867 23.382 32.5531 24.1133 32.3195L24.2453 32.2789C27.0438 31.3118 29.4294 29.4205 31.0094 26.9164C31.0553 26.8403 31.075 26.7513 31.0655 26.6629C31.0559 26.5746 31.0177 26.4918 30.9566 26.4272C30.8955 26.3627 30.815 26.32 30.7273 26.3056C30.6396 26.2912 30.5496 26.306 30.4711 26.3477Z" fill="url(#paint1_radial_15394_14033)"/>
<path d="M17.7352 31.507C16.8311 30.9455 16.0475 30.2102 15.4297 29.3437C14.7242 28.3781 14.2385 27.2697 14.0069 26.0964C13.7752 24.9231 13.8031 23.7134 14.0886 22.552C14.3741 21.3907 14.9103 20.3058 15.6595 19.3737C16.4088 18.4416 17.353 17.6847 18.4258 17.1562C18.7508 17.0039 19.2891 16.7398 20.0102 16.75C20.5176 16.7539 21.0172 16.8751 21.47 17.1042C21.9228 17.3332 22.3165 17.6639 22.6203 18.0703C23.029 18.6198 23.253 19.2847 23.2602 19.9695C23.2602 19.9492 25.7484 11.8851 15.1352 11.8851C10.6766 11.8851 7.01016 16.1101 7.01016 19.8273C6.99243 21.7909 7.41222 23.7337 8.23907 25.5148C9.59317 28.3982 11.9588 30.684 14.887 31.9384C17.8151 33.1928 21.1019 33.3284 24.1234 32.3195C23.0649 32.6538 21.9463 32.7543 20.8451 32.6141C19.7439 32.4738 18.6863 32.0961 17.7453 31.507H17.7352Z" fill="url(#paint2_linear_15394_14033)"/>
<path opacity="0.41" d="M17.7352 31.507C16.8311 30.9455 16.0475 30.2102 15.4297 29.3437C14.7242 28.3781 14.2385 27.2697 14.0069 26.0964C13.7752 24.9231 13.8031 23.7134 14.0886 22.552C14.3741 21.3907 14.9103 20.3058 15.6595 19.3737C16.4088 18.4416 17.353 17.6847 18.4258 17.1562C18.7508 17.0039 19.2891 16.7398 20.0102 16.75C20.5176 16.7539 21.0172 16.8751 21.47 17.1042C21.9228 17.3332 22.3165 17.6639 22.6203 18.0703C23.029 18.6198 23.253 19.2847 23.2602 19.9695C23.2602 19.9492 25.7484 11.8851 15.1352 11.8851C10.6766 11.8851 7.01016 16.1101 7.01016 19.8273C6.99243 21.7909 7.41222 23.7337 8.23907 25.5148C9.59317 28.3982 11.9588 30.684 14.887 31.9384C17.8151 33.1928 21.1019 33.3284 24.1234 32.3195C23.0649 32.6538 21.9463 32.7543 20.8451 32.6141C19.7439 32.4738 18.6863 32.0961 17.7453 31.507H17.7352Z" fill="url(#paint3_radial_15394_14033)"/>
<path d="M22.4781 22.1125C22.3867 22.2141 22.1328 22.3664 22.1328 22.6813C22.1328 22.9453 22.3055 23.2094 22.6203 23.4227C24.0727 24.4383 26.825 24.2961 26.8352 24.2961C27.9179 24.2954 28.9806 24.0043 29.9125 23.4531C30.8507 22.9043 31.6292 22.1199 32.1708 21.1774C32.7124 20.235 32.9982 19.1674 33 18.0805C33.0305 15.8055 32.1875 14.2922 31.8523 13.6219C29.6891 9.41719 25.0477 7 20 7C16.5836 6.99966 13.3044 8.34418 10.8716 10.7428C8.43886 13.1413 7.04804 16.4012 7 19.8172C7.05078 16.1102 10.7375 13.1141 15.125 13.1141C15.4805 13.1141 17.5117 13.1445 19.3906 14.1297C20.7106 14.7856 21.8038 15.8222 22.5289 17.1055C23.1484 18.182 23.2602 19.5531 23.2602 20.1016C23.2602 20.65 22.9859 21.4523 22.468 22.1227L22.4781 22.1125Z" fill="url(#paint4_radial_15394_14033)"/>
<path d="M22.4781 22.1125C22.3867 22.2141 22.1328 22.3664 22.1328 22.6813C22.1328 22.9453 22.3055 23.2094 22.6203 23.4227C24.0727 24.4383 26.825 24.2961 26.8352 24.2961C27.9179 24.2954 28.9806 24.0043 29.9125 23.4531C30.8507 22.9043 31.6292 22.1199 32.1708 21.1774C32.7124 20.235 32.9982 19.1674 33 18.0805C33.0305 15.8055 32.1875 14.2922 31.8523 13.6219C29.6891 9.41719 25.0477 7 20 7C16.5836 6.99966 13.3044 8.34418 10.8716 10.7428C8.43886 13.1413 7.04804 16.4012 7 19.8172C7.05078 16.1102 10.7375 13.1141 15.125 13.1141C15.4805 13.1141 17.5117 13.1445 19.3906 14.1297C20.7106 14.7856 21.8038 15.8222 22.5289 17.1055C23.1484 18.182 23.2602 19.5531 23.2602 20.1016C23.2602 20.65 22.9859 21.4523 22.468 22.1227L22.4781 22.1125Z" fill="url(#paint5_radial_15394_14033)"/>
</g>
<defs>
<linearGradient id="paint0_linear_15394_14033" x1="12.9617" y1="24.9766" x2="31.0805" y2="24.9766" gradientUnits="userSpaceOnUse">
<stop stop-color="#0C59A4" style="stop-color:#0C59A4;stop-color:color(display-p3 0.0471 0.3490 0.6431);stop-opacity:1;"/>
<stop offset="1" stop-color="#114A8B" style="stop-color:#114A8B;stop-color:color(display-p3 0.0667 0.2902 0.5451);stop-opacity:1;"/>
</linearGradient>
<radialGradient id="paint1_radial_15394_14033" cx="0" cy="0" r="1" gradientUnits="userSpaceOnUse" gradientTransform="translate(22.9656 25.1132) scale(9.68906 9.20461)">
<stop offset="0.7" stop-opacity="0" style="stop-color:none;stop-opacity:0;"/>
<stop offset="0.9" stop-opacity="0.5" style="stop-color:black;stop-opacity:0.5;"/>
<stop offset="1" style="stop-color:black;stop-opacity:1;"/>
</radialGradient>
<linearGradient id="paint2_linear_15394_14033" x1="22.5086" y1="17.1156" x2="11.2047" y2="29.4351" gradientUnits="userSpaceOnUse">
<stop stop-color="#1B9DE2" style="stop-color:#1B9DE2;stop-color:color(display-p3 0.1059 0.6157 0.8863);stop-opacity:1;"/>
<stop offset="0.2" stop-color="#1595DF" style="stop-color:#1595DF;stop-color:color(display-p3 0.0824 0.5843 0.8745);stop-opacity:1;"/>
<stop offset="0.7" stop-color="#0680D7" style="stop-color:#0680D7;stop-color:color(display-p3 0.0235 0.5020 0.8431);stop-opacity:1;"/>
<stop offset="1" stop-color="#0078D4" style="stop-color:#0078D4;stop-color:color(display-p3 0.0000 0.4706 0.8314);stop-opacity:1;"/>
</linearGradient>
<radialGradient id="paint3_radial_15394_14033" cx="0" cy="0" r="1" gradientTransform="matrix(2.18156 -14.3983 -11.635 -1.74525 14.1657 27.2045)" gradientUnits="userSpaceOnUse">
<stop offset="0.8" stop-opacity="0" style="stop-color:none;stop-opacity:0;"/>
<stop offset="0.9" stop-opacity="0.5" style="stop-color:black;stop-opacity:0.5;"/>
<stop offset="1" style="stop-color:black;stop-opacity:1;"/>
</radialGradient>
<radialGradient id="paint4_radial_15394_14033" cx="0" cy="0" r="1" gradientTransform="matrix(-0.82225 20.5563 43.7848 1.6445 9.62945 11.8055)" gradientUnits="userSpaceOnUse">
<stop stop-color="#35C1F1" style="stop-color:#35C1F1;stop-color:color(display-p3 0.2078 0.7569 0.9451);stop-opacity:1;"/>
<stop offset="0.1" stop-color="#34C1ED" style="stop-color:#34C1ED;stop-color:color(display-p3 0.2039 0.7569 0.9294);stop-opacity:1;"/>
<stop offset="0.2" stop-color="#2FC2DF" style="stop-color:#2FC2DF;stop-color:color(display-p3 0.1843 0.7608 0.8745);stop-opacity:1;"/>
<stop offset="0.3" stop-color="#2BC3D2" style="stop-color:#2BC3D2;stop-color:color(display-p3 0.1686 0.7647 0.8235);stop-opacity:1;"/>
<stop offset="0.7" stop-color="#36C752" style="stop-color:#36C752;stop-color:color(display-p3 0.2118 0.7804 0.3216);stop-opacity:1;"/>
</radialGradient>
<radialGradient id="paint5_radial_15394_14033" cx="0" cy="0" r="1" gradientTransform="matrix(2.76697 9.48675 7.70799 -2.27287 31.3811 14.8508)" gradientUnits="userSpaceOnUse">
<stop stop-color="#66EB6E" style="stop-color:#66EB6E;stop-color:color(display-p3 0.4000 0.9216 0.4314);stop-opacity:1;"/>
<stop offset="1" stop-color="#66EB6E" stop-opacity="0" style="stop-color:none;stop-opacity:0;"/>
</radialGradient>
<clipPath id="clip0_15394_14033">
<rect width="26" height="26" fill="white" style="fill:white;fill-opacity:1;" transform="translate(7 7)"/>
</clipPath>
</defs>
</svg>
