<svg width="40" height="40" viewBox="0 0 40 40" fill="none" xmlns="http://www.w3.org/2000/svg">
<rect width="40" height="40" fill="#00A2C7" style="fill:#00A2C7;fill:color(display-p3 0.0000 0.6353 0.7804);fill-opacity:1;"/>
<path fill-rule="evenodd" clip-rule="evenodd" d="M13.4375 8.35628C13.8149 8.1374 14.3651 8.06995 15.1497 8.30488C15.9368 8.54058 16.8714 9.05865 17.893 9.8662C18.1463 10.0664 18.4026 10.2825 18.6607 10.5138C17.8666 11.3635 17.0795 12.3225 16.3203 13.3722C15.0358 13.5077 13.8156 13.713 12.6859 13.979C12.6156 13.6388 12.5575 13.3078 12.5115 12.9873C12.3261 11.6948 12.3467 10.6227 12.5371 9.82007C12.7269 9.02008 13.0601 8.57518 13.4375 8.35628ZM19.0525 8.38602C19.3667 8.6344 19.683 8.90291 20 9.19039C20.317 8.90291 20.6332 8.6344 20.9475 8.38602C22.0798 7.49101 23.2247 6.82627 24.3148 6.49988C25.4073 6.17271 26.5321 6.16386 27.5 6.72514C28.4677 7.28642 29.0225 8.2694 29.2869 9.38354C29.5505 10.495 29.5497 11.8233 29.3442 13.2559C29.2873 13.6534 29.2139 14.0628 29.1247 14.4824C29.531 14.6144 29.9206 14.7553 30.2919 14.9045C31.6297 15.442 32.7751 16.1056 33.6016 16.8907C34.43 17.6776 35 18.6518 35 19.7743C35 20.8969 34.43 21.871 33.6016 22.658C32.7751 23.4431 31.6297 24.1067 30.2919 24.6443C29.9206 24.7935 29.531 24.9344 29.1247 25.0664C29.2139 25.4858 29.2872 25.8953 29.3444 26.2927C29.5497 27.7253 29.5505 29.0537 29.2869 30.1652C29.0225 31.2793 28.4677 32.2623 27.5 32.8235C26.5323 33.3848 25.4073 33.376 24.3148 33.0488C23.2247 32.7224 22.0798 32.0577 20.9475 31.1627C20.6333 30.9142 20.317 30.6457 20 30.3582C19.683 30.6457 19.3667 30.9142 19.0525 31.1627C17.9202 32.0577 16.7753 32.7224 15.6852 33.0488C14.5926 33.376 13.4677 33.3848 12.5 32.8235C11.5322 32.2623 10.9774 31.2793 10.7131 30.1652C10.4495 29.0537 10.4501 27.7253 10.6556 26.2927C10.7126 25.8953 10.786 25.4858 10.8753 25.0664C10.469 24.9342 10.0794 24.7935 9.70812 24.6443C8.37035 24.1067 7.22484 23.4431 6.39844 22.658C5.57005 21.871 5 20.8969 5 19.7743C5 18.6518 5.57005 17.6776 6.39844 16.8907C7.22484 16.1056 8.37035 15.442 9.70812 14.9045C10.0794 14.7553 10.469 14.6144 10.8753 14.4824C10.786 14.0628 10.7127 13.6534 10.6556 13.2559C10.4502 11.8233 10.4495 10.495 10.7132 9.38352C10.9774 8.2694 11.5322 7.28642 12.5 6.72514C13.4678 6.16386 14.5926 6.1727 15.6853 6.49988C16.7753 6.82627 17.9202 7.49099 19.0525 8.38602ZM18.814 13.2014C19.2075 12.7149 19.604 12.2578 20 11.8327C20.3959 12.2578 20.7924 12.7149 21.186 13.2014C20.7944 13.1886 20.3989 13.1821 20 13.1821C19.6011 13.1821 19.2056 13.1886 18.814 13.2014ZM21.3392 10.5138C22.1334 11.3636 22.9205 12.3225 23.6796 13.3722C24.9641 13.5077 26.1843 13.713 27.314 13.979C27.3843 13.6388 27.4424 13.3078 27.4886 12.9873C27.6738 11.6948 27.6532 10.6227 27.4629 9.82007C27.2731 9.02008 26.9399 8.57518 26.5625 8.35628C26.1851 8.1374 25.6349 8.06995 24.8503 8.30488C24.0631 8.5406 23.1286 9.05865 22.107 9.8662C21.8537 10.0664 21.5974 10.2825 21.3392 10.5138ZM20 15.0656C20.9081 15.0656 21.7932 15.1011 22.6473 15.1684C23.1323 15.8777 23.6054 16.63 24.0596 17.42C24.5135 18.21 24.9254 18.9977 25.2944 19.7743C24.9254 20.5509 24.5135 21.3387 24.0594 22.1287C23.6054 22.9187 23.1322 23.6709 22.6472 24.3802C21.7932 24.4477 20.9081 24.4831 20 24.4831C19.0919 24.4831 18.2068 24.4477 17.3527 24.3802C16.8677 23.6709 16.3946 22.9187 15.9405 22.1287C15.4864 21.3387 15.0745 20.5509 14.7055 19.7743C15.0745 18.9977 15.4864 18.21 15.9405 17.42C16.3945 16.63 16.8677 15.8777 17.3527 15.1684C18.2068 15.1011 19.0919 15.0656 20 15.0656ZM25.6833 16.4782C25.8828 16.8252 26.0748 17.1726 26.2597 17.5196C26.4823 16.934 26.678 16.3606 26.8466 15.8035C26.2822 15.6716 25.6899 15.5552 25.0738 15.4562C25.2806 15.7904 25.4838 16.1312 25.6833 16.4782ZM25.6833 23.0704C25.8826 22.7234 26.0748 22.3761 26.2597 22.029C26.4823 22.6147 26.6782 23.1881 26.8466 23.7451C26.2822 23.877 25.6899 23.9934 25.0736 24.0924C25.2804 23.7583 25.4838 23.4175 25.6833 23.0704ZM27.3592 19.7743C27.8846 20.9596 28.3179 22.1238 28.6533 23.2395C28.9818 23.1306 29.2963 23.0157 29.5955 22.8954C30.8026 22.4104 31.7165 21.8565 32.3133 21.2895C32.9081 20.7245 33.125 20.2121 33.125 19.7743C33.125 19.3366 32.9081 18.8242 32.3133 18.2591C31.7165 17.6922 30.8026 17.1382 29.5955 16.6532C29.2963 16.533 28.9818 16.4181 28.6533 16.3091C28.3179 17.4249 27.8846 18.589 27.3592 19.7743ZM23.6796 26.1765C24.9641 26.0409 26.1843 25.8356 27.314 25.5697C27.3843 25.91 27.4426 26.2409 27.4886 26.5613C27.674 27.854 27.6532 28.926 27.4629 29.7286C27.2731 30.5287 26.9399 30.9736 26.5625 31.1924C26.1851 31.4113 25.6349 31.4787 24.8503 31.2439C24.0631 31.008 23.1286 30.4901 22.107 29.6824C21.8537 29.4822 21.5974 29.2662 21.3392 29.0349C22.1334 28.1851 22.9205 27.2262 23.6796 26.1765ZM21.1859 26.3473C20.7924 26.8339 20.3959 27.2908 20 27.7159C19.604 27.2908 19.2076 26.8339 18.814 26.3472C19.2056 26.36 19.6011 26.3666 20 26.3666C20.3989 26.3666 20.7944 26.36 21.1859 26.3473ZM14.3167 23.0704C14.5162 23.4175 14.7195 23.7583 14.9263 24.0924C14.3101 23.9934 13.7178 23.877 13.1533 23.7451C13.3219 23.1881 13.5177 22.6146 13.7403 22.029C13.9251 22.3761 14.1173 22.7234 14.3167 23.0704ZM16.3204 26.1765C15.0358 26.0409 13.8156 25.8356 12.6859 25.5697C12.6156 25.91 12.5574 26.2409 12.5114 26.5613C12.3261 27.854 12.3467 28.926 12.5371 29.7286C12.7268 30.5287 13.06 30.9736 13.4375 31.1924C13.8149 31.4113 14.3651 31.4787 15.1496 31.2439C15.9368 31.008 16.8713 30.4901 17.893 29.6824C18.1463 29.4822 18.4025 29.2662 18.6607 29.0349C17.8666 28.1851 17.0795 27.2262 16.3204 26.1765ZM12.6408 19.7743C12.1153 20.9596 11.6821 22.1238 11.3467 23.2395C11.0182 23.1306 10.7038 23.0157 10.4045 22.8954C9.19745 22.4104 8.28356 21.8565 7.68676 21.2895C7.09196 20.7245 6.875 20.2121 6.875 19.7743C6.875 19.3366 7.09196 18.8242 7.68676 18.2591C8.28356 17.6922 9.19745 17.1382 10.4045 16.6532C10.7038 16.533 11.0182 16.4181 11.3467 16.3091C11.6822 17.4249 12.1153 18.589 12.6408 19.7743ZM13.7403 17.5196C13.5177 16.934 13.3219 16.3606 13.1534 15.8035C13.7179 15.6716 14.3101 15.5552 14.9263 15.4562C14.7195 15.7904 14.5161 16.1312 14.3167 16.4782C14.1172 16.8252 13.9251 17.1726 13.7403 17.5196ZM22.3438 19.7743C22.3438 21.0746 21.2944 22.1287 20 22.1287C18.7056 22.1287 17.6562 21.0746 17.6562 19.7743C17.6562 18.4741 18.7056 17.42 20 17.42C21.2944 17.42 22.3438 18.4741 22.3438 19.7743Z" fill="white" style="fill:white;fill-opacity:1;"/>
</svg>
