<svg width="40" height="40" viewBox="0 0 40 40" fill="none" xmlns="http://www.w3.org/2000/svg">
<rect width="40" height="40" fill="white" style="fill:white;fill-opacity:1;"/>
<g clip-path="url(#clip0_15504_40)">
<path d="M18.9999 17.5H28.9999C31.7613 17.5 33.9999 19.7386 33.9999 22.5V30.8333C33.9999 33.5947 31.7613 35.8333 28.9999 35.8333C26.2385 35.8333 23.9999 33.5947 23.9999 30.8333V22.5C23.9999 19.7386 21.7613 17.5 18.9999 17.5Z" fill="url(#paint0_radial_15504_40)"/>
<path d="M7.33324 20.8333C7.33324 18.0718 9.57184 15.8333 12.3333 15.8333H18.9999C21.7613 15.8333 23.9999 18.0718 23.9999 20.8333V30.8333C23.9999 33.5947 26.2385 35.8333 28.9999 35.8333L15.6665 35.8332C11.0642 35.8332 7.33324 32.1023 7.33324 27.4998V20.8333Z" fill="url(#paint1_radial_15504_40)"/>
<path d="M7.33324 20.8333C7.33324 18.0718 9.57184 15.8333 12.3333 15.8333H18.9999C21.7613 15.8333 23.9999 18.0718 23.9999 20.8333V30.8333C23.9999 33.5947 26.2385 35.8333 28.9999 35.8333L15.6665 35.8332C11.0642 35.8332 7.33324 32.1023 7.33324 27.4998V20.8333Z" fill="url(#paint2_linear_15504_40)" fill-opacity="0.7"/>
<path d="M7.33324 20.8333C7.33324 18.0718 9.57184 15.8333 12.3333 15.8333H18.9999C21.7613 15.8333 23.9999 18.0718 23.9999 20.8333V30.8333C23.9999 33.5947 26.2385 35.8333 28.9999 35.8333L15.6665 35.8332C11.0642 35.8332 7.33324 32.1023 7.33324 27.4998V20.8333Z" fill="url(#paint3_radial_15504_40)" fill-opacity="0.7"/>
<path d="M28.1666 15.8333C30.4678 15.8333 32.3333 13.9678 32.3333 11.6667C32.3333 9.3655 30.4678 7.5 28.1666 7.5C25.8654 7.5 23.9999 9.3655 23.9999 11.6667C23.9999 13.9678 25.8654 15.8333 28.1666 15.8333Z" fill="url(#paint4_radial_15504_40)"/>
<path d="M28.1666 15.8333C30.4678 15.8333 32.3333 13.9678 32.3333 11.6667C32.3333 9.3655 30.4678 7.5 28.1666 7.5C25.8654 7.5 23.9999 9.3655 23.9999 11.6667C23.9999 13.9678 25.8654 15.8333 28.1666 15.8333Z" fill="url(#paint5_radial_15504_40)" fill-opacity="0.46"/>
<path d="M28.1666 15.8333C30.4678 15.8333 32.3333 13.9678 32.3333 11.6667C32.3333 9.3655 30.4678 7.5 28.1666 7.5C25.8654 7.5 23.9999 9.3655 23.9999 11.6667C23.9999 13.9678 25.8654 15.8333 28.1666 15.8333Z" fill="url(#paint6_radial_15504_40)" fill-opacity="0.4"/>
<path d="M15.6666 14.1666C18.428 14.1666 20.6666 11.928 20.6666 9.16663C20.6666 6.4052 18.428 4.16663 15.6666 4.16663C12.9052 4.16663 10.6666 6.4052 10.6666 9.16663C10.6666 11.928 12.9052 14.1666 15.6666 14.1666Z" fill="url(#paint7_radial_15504_40)"/>
<path d="M15.6666 14.1666C18.428 14.1666 20.6666 11.928 20.6666 9.16663C20.6666 6.4052 18.428 4.16663 15.6666 4.16663C12.9052 4.16663 10.6666 6.4052 10.6666 9.16663C10.6666 11.928 12.9052 14.1666 15.6666 14.1666Z" fill="url(#paint8_radial_15504_40)" fill-opacity="0.6"/>
<path d="M15.6666 14.1666C18.428 14.1666 20.6666 11.928 20.6666 9.16663C20.6666 6.4052 18.428 4.16663 15.6666 4.16663C12.9052 4.16663 10.6666 6.4052 10.6666 9.16663C10.6666 11.928 12.9052 14.1666 15.6666 14.1666Z" fill="url(#paint9_radial_15504_40)" fill-opacity="0.5"/>
<path d="M14.625 20H6.70833C5.21256 20 4 21.2126 4 22.7083V30.625C4 32.1208 5.21256 33.3333 6.70833 33.3333H14.625C16.1208 33.3333 17.3333 32.1208 17.3333 30.625V22.7083C17.3333 21.2126 16.1208 20 14.625 20Z" fill="url(#paint10_radial_15504_40)"/>
<path d="M14.625 20H6.70833C5.21256 20 4 21.2126 4 22.7083V30.625C4 32.1208 5.21256 33.3333 6.70833 33.3333H14.625C16.1208 33.3333 17.3333 32.1208 17.3333 30.625V22.7083C17.3333 21.2126 16.1208 20 14.625 20Z" fill="url(#paint11_radial_15504_40)" fill-opacity="0.7"/>
<path d="M13.566 24.2544H11.5268V30.4761H9.80609V24.2544H7.76679V22.8571H13.566V24.2544Z" fill="white" style="fill:white;fill-opacity:1;"/>
</g>
<defs>
<radialGradient id="paint0_radial_15504_40" cx="0" cy="0" r="1" gradientUnits="userSpaceOnUse" gradientTransform="translate(33.8306 19.3116) scale(11.232 27.7245)">
<stop stop-color="#A98AFF" style="stop-color:#A98AFF;stop-color:color(display-p3 0.6627 0.5412 1.0000);stop-opacity:1;"/>
<stop offset="0.14" stop-color="#8C75FF" style="stop-color:#8C75FF;stop-color:color(display-p3 0.5490 0.4588 1.0000);stop-opacity:1;"/>
<stop offset="0.565" stop-color="#5F50E2" style="stop-color:#5F50E2;stop-color:color(display-p3 0.3725 0.3137 0.8863);stop-opacity:1;"/>
<stop offset="0.9" stop-color="#3C2CB8" style="stop-color:#3C2CB8;stop-color:color(display-p3 0.2353 0.1725 0.7216);stop-opacity:1;"/>
</radialGradient>
<radialGradient id="paint1_radial_15504_40" cx="0" cy="0" r="1" gradientUnits="userSpaceOnUse" gradientTransform="translate(8.01032 14.4999) rotate(68.1539) scale(27.2933 27.6026)">
<stop stop-color="#85C2FF" style="stop-color:#85C2FF;stop-color:color(display-p3 0.5216 0.7608 1.0000);stop-opacity:1;"/>
<stop offset="0.69" stop-color="#7588FF" style="stop-color:#7588FF;stop-color:color(display-p3 0.4588 0.5333 1.0000);stop-opacity:1;"/>
<stop offset="1" stop-color="#6459FE" style="stop-color:#6459FE;stop-color:color(display-p3 0.3922 0.3490 0.9961);stop-opacity:1;"/>
</radialGradient>
<linearGradient id="paint2_linear_15504_40" x1="17.828" y1="15.8333" x2="17.828" y2="35.8333" gradientUnits="userSpaceOnUse">
<stop offset="0.801159" stop-color="#6864F6" stop-opacity="0" style="stop-color:none;stop-opacity:0;"/>
<stop offset="1" stop-color="#5149DE" style="stop-color:#5149DE;stop-color:color(display-p3 0.3176 0.2863 0.8706);stop-opacity:1;"/>
</linearGradient>
<radialGradient id="paint3_radial_15504_40" cx="0" cy="0" r="1" gradientUnits="userSpaceOnUse" gradientTransform="translate(23.5833 15.1666) rotate(113.326) scale(16.0155 12.8561)">
<stop stop-color="#BD96FF" style="stop-color:#BD96FF;stop-color:color(display-p3 0.7412 0.5882 1.0000);stop-opacity:1;"/>
<stop offset="0.686685" stop-color="#BD96FF" stop-opacity="0" style="stop-color:none;stop-opacity:0;"/>
</radialGradient>
<radialGradient id="paint4_radial_15504_40" cx="0" cy="0" r="1" gradientUnits="userSpaceOnUse" gradientTransform="translate(28.1666 10.4762) rotate(-90) scale(8.33333 10.518)">
<stop offset="0.268201" stop-color="#6868F7" style="stop-color:#6868F7;stop-color:color(display-p3 0.4078 0.4078 0.9686);stop-opacity:1;"/>
<stop offset="1" stop-color="#3923B1" style="stop-color:#3923B1;stop-color:color(display-p3 0.2235 0.1373 0.6941);stop-opacity:1;"/>
</radialGradient>
<radialGradient id="paint5_radial_15504_40" cx="0" cy="0" r="1" gradientUnits="userSpaceOnUse" gradientTransform="translate(24.7229 9.62) rotate(40.0516) scale(5.95524 8.61358)">
<stop offset="0.270711" stop-color="#A1D3FF" style="stop-color:#A1D3FF;stop-color:color(display-p3 0.6314 0.8275 1.0000);stop-opacity:1;"/>
<stop offset="0.813393" stop-color="#A1D3FF" stop-opacity="0" style="stop-color:none;stop-opacity:0;"/>
</radialGradient>
<radialGradient id="paint6_radial_15504_40" cx="0" cy="0" r="1" gradientUnits="userSpaceOnUse" gradientTransform="translate(31.4851 9.47383) rotate(-41.6581) scale(7.09396 17.402)">
<stop stop-color="#E3ACFD" style="stop-color:#E3ACFD;stop-color:color(display-p3 0.8902 0.6745 0.9922);stop-opacity:1;"/>
<stop offset="0.816041" stop-color="#9FA2FF" stop-opacity="0" style="stop-color:none;stop-opacity:0;"/>
</radialGradient>
<radialGradient id="paint7_radial_15504_40" cx="0" cy="0" r="1" gradientUnits="userSpaceOnUse" gradientTransform="translate(15.6666 7.73805) rotate(-90) scale(10 12.6217)">
<stop offset="0.268201" stop-color="#8282FF" style="stop-color:#8282FF;stop-color:color(display-p3 0.5098 0.5098 1.0000);stop-opacity:1;"/>
<stop offset="1" stop-color="#3923B1" style="stop-color:#3923B1;stop-color:color(display-p3 0.2235 0.1373 0.6941);stop-opacity:1;"/>
</radialGradient>
<radialGradient id="paint8_radial_15504_40" cx="0" cy="0" r="1" gradientUnits="userSpaceOnUse" gradientTransform="translate(11.5342 6.71066) rotate(40.0516) scale(7.14628 10.3363)">
<stop offset="0.270711" stop-color="#A1D3FF" style="stop-color:#A1D3FF;stop-color:color(display-p3 0.6314 0.8275 1.0000);stop-opacity:1;"/>
<stop offset="0.813393" stop-color="#A1D3FF" stop-opacity="0" style="stop-color:none;stop-opacity:0;"/>
</radialGradient>
<radialGradient id="paint9_radial_15504_40" cx="0" cy="0" r="1" gradientUnits="userSpaceOnUse" gradientTransform="translate(19.6488 6.53521) rotate(-41.6581) scale(8.51275 20.8824)">
<stop stop-color="#E3ACFD" style="stop-color:#E3ACFD;stop-color:color(display-p3 0.8902 0.6745 0.9922);stop-opacity:1;"/>
<stop offset="0.816041" stop-color="#9FA2FF" stop-opacity="0" style="stop-color:none;stop-opacity:0;"/>
</radialGradient>
<radialGradient id="paint10_radial_15504_40" cx="0" cy="0" r="1" gradientUnits="userSpaceOnUse" gradientTransform="translate(4 20) rotate(45) scale(18.8562)">
<stop offset="0.046875" stop-color="#688EFF" style="stop-color:#688EFF;stop-color:color(display-p3 0.4078 0.5569 1.0000);stop-opacity:1;"/>
<stop offset="0.946875" stop-color="#230F94" style="stop-color:#230F94;stop-color:color(display-p3 0.1373 0.0588 0.5804);stop-opacity:1;"/>
</radialGradient>
<radialGradient id="paint11_radial_15504_40" cx="0" cy="0" r="1" gradientUnits="userSpaceOnUse" gradientTransform="translate(10.6667 28) rotate(90) scale(9.33333 10.8918)">
<stop offset="0.570647" stop-color="#6965F6" stop-opacity="0" style="stop-color:none;stop-opacity:0;"/>
<stop offset="1" stop-color="#8F8FFF" style="stop-color:#8F8FFF;stop-color:color(display-p3 0.5608 0.5608 1.0000);stop-opacity:1;"/>
</radialGradient>
<clipPath id="clip0_15504_40">
<rect width="30" height="31.6667" fill="white" style="fill:white;fill-opacity:1;" transform="translate(4 4.16663)"/>
</clipPath>
</defs>
</svg>
