<svg width="40" height="40" viewBox="0 0 40 40" fill="none" xmlns="http://www.w3.org/2000/svg">
<rect width="40" height="40" fill="white" style="fill:white;fill-opacity:1;"/>
<path d="M9.62307 8.30432L23.8499 7.25815C25.5974 7.10882 26.0465 7.20951 27.1452 8.00481L31.6866 11.1903C32.4357 11.7381 32.6851 11.8874 32.6851 12.4839V29.954C32.6851 31.0488 32.2857 31.6965 30.8879 31.7955L14.3668 32.7913C13.3178 32.8408 12.8181 32.6915 12.2687 31.9943L8.92459 27.6645C8.32466 26.8675 8.07612 26.271 8.07612 25.5739V10.0451C8.07612 9.14997 8.4755 8.40331 9.62307 8.30432Z" fill="white" style="fill:white;fill-opacity:1;"/>
<path fill-rule="evenodd" clip-rule="evenodd" d="M23.8499 7.25815L9.62307 8.30432C8.4755 8.40331 8.07612 9.14997 8.07612 10.0451V25.5739C8.07612 26.271 8.32466 26.8675 8.92459 27.6645L12.2687 31.9943C12.8181 32.6915 13.3178 32.8408 14.3668 32.7913L30.8879 31.7955C32.2849 31.6965 32.6851 31.0488 32.6851 29.954V12.4839C32.6851 11.9181 32.4605 11.7552 31.7998 11.2722C31.7617 11.2449 31.7238 11.2176 31.6858 11.1903L27.1452 8.00481C26.0465 7.20951 25.5974 7.10882 23.8499 7.25815ZM14.7404 12.198C13.3915 12.2885 13.0855 12.309 12.3193 11.6886L10.3713 10.1458C10.1733 9.94612 10.2727 9.69695 10.7715 9.64745L24.4481 8.65248C25.5965 8.55264 26.1947 8.95114 26.6438 9.2993L28.9895 10.9914C29.0898 11.0418 29.3392 11.3396 29.0393 11.3396L14.9153 12.1861L14.7404 12.198ZM13.1678 29.8047V14.9739C13.1678 14.3262 13.3675 14.0276 13.9657 13.9772L30.1877 13.0317C30.7379 12.9822 30.9864 13.3304 30.9864 13.9772V28.709C30.9864 29.3567 30.8862 29.9045 29.988 29.954L14.4645 30.85C13.5663 30.8995 13.1678 30.6017 13.1678 29.8047ZM28.4916 15.7692C28.591 16.2172 28.4916 16.6652 28.0417 16.7164L27.2935 16.864V27.8139C26.6438 28.162 26.0456 28.3608 25.546 28.3608C24.7472 28.3608 24.5475 28.1117 23.9493 27.3659L19.0565 19.7013V27.1167L20.6043 27.4657C20.6043 27.4657 20.6043 28.3617 19.3556 28.3617L15.9129 28.5605C15.8126 28.3608 15.9129 27.8633 16.2617 27.7644L17.1607 27.516V17.7114L15.9129 17.6107C15.8126 17.1627 16.062 16.5159 16.7613 16.4655L20.4552 16.218L25.546 23.9816V17.1132L24.2484 16.9647C24.1481 16.416 24.5475 16.0175 25.0463 15.9689L28.4916 15.7692Z" fill="black" style="fill:black;fill-opacity:1;"/>
</svg>
