<svg width="40" height="40" viewBox="0 0 40 40" fill="none" xmlns="http://www.w3.org/2000/svg">
<path fill-rule="evenodd" clip-rule="evenodd" d="M22.1649 7.00146C21.9769 7.00146 21.8024 7.04191 21.6412 7.09584C21.9836 7.32503 22.1716 7.62838 22.2657 7.97217C22.2724 8.01935 22.2858 8.05306 22.2925 8.10024C22.2993 8.14069 22.3059 8.18114 22.3059 8.22158C22.3328 8.81479 22.1515 8.88894 22.0239 9.23947C21.8292 9.69112 21.8829 10.1765 22.1179 10.5674C22.1381 10.6146 22.1649 10.6686 22.1985 10.7157C21.9434 9.01028 23.3601 8.75412 23.622 8.22158C23.6421 7.75645 23.2594 7.44637 22.9573 7.23066C22.6685 7.05539 22.4067 7.00146 22.1649 7.00146ZM24.3002 7.3857C24.2733 7.54074 24.2934 7.5003 24.2867 7.58119C24.28 7.63512 24.28 7.70253 24.2733 7.75645C24.2599 7.81038 24.2465 7.86431 24.2263 7.91824C24.2129 7.97217 24.1927 8.02609 24.1726 8.08002C24.1457 8.13395 24.1256 8.18114 24.0987 8.23506C24.0786 8.26204 24.0652 8.28899 24.045 8.31596C24.0316 8.33618 24.0182 8.3564 24.0047 8.37662C23.9712 8.42381 23.9376 8.471 23.904 8.51144C23.8637 8.55189 23.8302 8.59908 23.7832 8.63278V8.63953C23.7429 8.67324 23.7026 8.71368 23.6556 8.74739C23.5146 8.85524 23.3534 8.93613 23.2057 9.03725C23.1587 9.07095 23.1117 9.09792 23.0714 9.13836C23.0244 9.17207 22.9841 9.20577 22.9438 9.24622C22.8968 9.28666 22.8633 9.32711 22.823 9.3743C22.7894 9.41475 22.7491 9.46193 22.7223 9.50912C22.6887 9.5563 22.6551 9.60349 22.6283 9.65068C22.6014 9.7046 22.5813 9.75179 22.5544 9.80572C22.5343 9.85965 22.5141 9.90683 22.5007 9.96076C22.4805 10.0214 22.4671 10.0754 22.4537 10.1293C22.447 10.1563 22.447 10.19 22.4403 10.2169C22.4335 10.2439 22.4335 10.2708 22.4268 10.2978C22.4268 10.3517 22.4201 10.4124 22.4201 10.4663C22.4201 10.5068 22.4201 10.5472 22.4268 10.5877C22.4268 10.6416 22.4336 10.6955 22.447 10.7562C22.4537 10.8101 22.4671 10.8641 22.4806 10.918C22.5007 10.9719 22.5141 11.0258 22.5343 11.0798C22.5477 11.1135 22.5678 11.1472 22.5813 11.1741L21.0369 10.5742C20.7751 10.5 20.5199 10.4326 20.258 10.372C20.117 10.3383 19.976 10.3046 19.835 10.2708C19.4322 10.19 19.0226 10.1293 18.613 10.0888C18.5996 10.0888 18.5928 10.0821 18.5794 10.0821C18.1765 10.0416 17.7804 10.0214 17.3775 10.0214C17.0821 10.0214 16.7866 10.0349 16.4979 10.0551C16.0883 10.0821 15.6787 10.136 15.2691 10.2034C15.1684 10.2169 15.0677 10.2371 14.967 10.2574C14.7588 10.2978 14.5574 10.345 14.3627 10.3922C14.262 10.4192 14.1612 10.4461 14.0605 10.4731C13.9598 10.5135 13.8658 10.5607 13.7718 10.6011C13.6979 10.6349 13.6241 10.6686 13.5502 10.7023C13.5368 10.709 13.5234 10.709 13.5166 10.7157C13.4495 10.7494 13.3891 10.7764 13.3286 10.8101C13.3085 10.8169 13.2951 10.8236 13.2816 10.8303C13.2078 10.864 13.1339 10.9045 13.0735 10.9382C13.0265 10.9584 12.9795 10.9854 12.9392 11.0056C12.9191 11.0191 12.8922 11.0326 12.8788 11.0393C12.8183 11.073 12.7579 11.1067 12.7042 11.1404C12.6438 11.1741 12.59 11.2078 12.543 11.2415C12.496 11.2752 12.449 11.3022 12.4087 11.3359C12.402 11.3427 12.3953 11.3427 12.3886 11.3494C12.3483 11.3763 12.3013 11.41 12.261 11.4437C12.261 11.4437 12.2543 11.4505 12.2476 11.4572C12.214 11.4842 12.1805 11.5111 12.1469 11.5381C12.1335 11.5449 12.12 11.5583 12.1066 11.5651C12.073 11.5921 12.0395 11.6258 12.0059 11.6527C11.9992 11.6662 11.9857 11.6729 11.979 11.6797C11.9387 11.7201 11.8984 11.7538 11.8582 11.7943C11.8514 11.7943 11.8514 11.801 11.8447 11.8078C11.8045 11.8415 11.7642 11.8819 11.7239 11.9224C11.7172 11.9291 11.7172 11.9358 11.7105 11.9358C11.6769 11.9695 11.6433 12.0032 11.6097 12.0437C11.5963 12.0572 11.5762 12.0707 11.5627 12.0841C11.5292 12.1246 11.4889 12.165 11.4486 12.2055C11.4419 12.2189 11.4284 12.2257 11.4217 12.2392C11.368 12.2931 11.321 12.347 11.2673 12.401C11.2606 12.4077 11.2539 12.4144 11.2471 12.4212C11.1397 12.5358 11.0256 12.6504 10.9047 12.7515C10.7838 12.8593 10.6563 12.9605 10.5287 13.0481C10.3944 13.1425 10.2668 13.2234 10.1258 13.3042C9.99152 13.3784 9.85052 13.4458 9.7028 13.5065C9.56179 13.5671 9.41407 13.6211 9.26636 13.6683C8.98434 13.7289 8.69562 13.8435 8.44718 13.8637C8.39346 13.8637 8.33303 13.8772 8.27932 13.884C8.21889 13.8974 8.16517 13.9109 8.11145 13.9244C8.05774 13.9446 8.00402 13.9649 7.9503 13.9851C7.89659 14.0053 7.84287 14.0323 7.78916 14.0592C7.74215 14.0929 7.68844 14.1199 7.64144 14.1536C7.59444 14.1873 7.54743 14.2278 7.50714 14.2682C7.46014 14.3019 7.41314 14.3491 7.37285 14.3895C7.33257 14.4367 7.29228 14.4772 7.25871 14.5244C7.22513 14.5783 7.18485 14.6255 7.15799 14.6794C7.12442 14.7266 7.09084 14.7805 7.06398 14.8344C7.03712 14.8951 7.01027 14.949 6.99013 15.0097C6.96998 15.0636 6.94984 15.1243 6.92969 15.185C6.91628 15.2389 6.90283 15.2928 6.89612 15.3468C6.89612 15.3535 6.8894 15.3602 6.8894 15.367C6.87598 15.4277 6.87598 15.5085 6.86925 15.549C6.86253 15.5962 6.85583 15.6366 6.85583 15.6838C6.85583 15.7108 6.85583 15.7445 6.86256 15.7714C6.86928 15.8186 6.87598 15.8591 6.88943 15.8995C6.90285 15.94 6.9163 15.9804 6.93643 16.0209V16.0276C6.95657 16.0681 6.98343 16.1085 7.01029 16.149C7.03716 16.1894 7.06401 16.2298 7.09758 16.2703C7.13115 16.304 7.17144 16.3444 7.21173 16.3781C7.25201 16.4186 7.2923 16.4523 7.3393 16.486C7.50045 16.6276 7.54074 16.6747 7.74889 16.7826C7.78246 16.8028 7.81604 16.8163 7.85632 16.8365C7.86305 16.8365 7.86974 16.8433 7.87647 16.8433C7.87647 16.8568 7.87647 16.8635 7.88319 16.877C7.88992 16.9309 7.90334 16.9848 7.91676 17.0388C7.93018 17.0994 7.95034 17.1534 7.97048 17.2006C7.99063 17.241 8.00406 17.2814 8.0242 17.3219C8.03092 17.3354 8.03762 17.3489 8.04434 17.3556C8.07121 17.4095 8.09806 17.4567 8.12492 17.5039C8.15849 17.5511 8.19206 17.5983 8.22563 17.6455C8.25921 17.6859 8.29949 17.7331 8.33978 17.7735C8.38007 17.814 8.42036 17.8477 8.46736 17.8881C8.46736 17.8881 8.47409 17.8949 8.48078 17.8949C8.52107 17.9286 8.56135 17.9623 8.60164 17.9893C8.64864 18.023 8.69564 18.0499 8.74936 18.0769C8.79636 18.1039 8.85008 18.1308 8.90379 18.151C8.94408 18.1713 8.99108 18.1848 9.03808 18.1982C9.04481 18.205 9.0515 18.205 9.06495 18.2117C9.09182 18.2185 9.12538 18.2252 9.15224 18.2319C9.1321 18.5959 9.12537 18.9397 9.17911 19.0611C9.23954 19.1959 9.53498 18.7847 9.83042 18.3128C9.79013 18.778 9.76327 19.324 9.83042 19.4858C9.90428 19.6543 10.3072 19.1285 10.6563 18.5488C15.4169 17.4432 19.7612 20.7463 20.2178 25.4111C20.1305 24.683 19.2375 24.2786 18.8279 24.3797C18.6265 24.8785 18.284 25.5189 17.7334 25.9166C17.7804 25.4717 17.7603 25.0134 17.6663 24.5684C17.5186 25.1886 17.2298 25.7683 16.8337 26.2672C16.1958 26.3144 15.5579 26.0043 15.2222 25.5392C15.1953 25.5189 15.1886 25.4785 15.1685 25.4515C15.1483 25.4043 15.1282 25.3571 15.1148 25.31C15.0946 25.2628 15.0812 25.2156 15.0745 25.1684C15.0677 25.1212 15.0677 25.074 15.0677 25.0201C15.0677 24.9864 15.0677 24.9527 15.0677 24.919C15.0745 24.8718 15.0879 24.8246 15.1013 24.7774C15.1147 24.7302 15.1282 24.683 15.1483 24.6359C15.1752 24.5887 15.1953 24.5415 15.2289 24.4943C15.343 24.1707 15.343 23.9078 15.1349 23.7528C15.0946 23.7258 15.0543 23.7056 15.0073 23.6854C14.9804 23.6786 14.9469 23.6652 14.92 23.6584C14.8999 23.6517 14.8865 23.6449 14.8663 23.6382C14.8193 23.6247 14.7723 23.6112 14.7253 23.6045C14.6783 23.591 14.6313 23.5843 14.5843 23.5843C14.5373 23.5775 14.4836 23.5708 14.4366 23.5708C14.403 23.5708 14.3694 23.5775 14.3359 23.5775C14.2821 23.5775 14.2351 23.5843 14.1881 23.5978C14.1411 23.6045 14.0941 23.6112 14.0471 23.6247C14.0001 23.6382 13.9531 23.6517 13.9061 23.6719C13.8591 23.6921 13.8188 23.7124 13.7718 23.7326C13.7316 23.7528 13.6913 23.7798 13.6443 23.8C12.0798 24.8246 13.0131 27.2244 14.0807 27.9187C13.6778 27.9929 13.2683 28.0805 13.1541 28.1681C13.1474 28.1749 13.1407 28.1816 13.1407 28.1816C13.4294 28.3569 13.7316 28.5052 14.0471 28.6333C14.4769 28.7748 14.9335 28.9029 15.1349 28.9568V28.9636C15.6922 29.0782 16.2562 29.1186 16.827 29.0849C19.8015 28.8759 22.2389 26.6042 22.682 23.6112C22.6955 23.6719 22.7089 23.7258 22.7223 23.7865C22.7425 23.9078 22.7693 24.0359 22.7828 24.164V24.1708C22.7962 24.2314 22.8029 24.2921 22.8096 24.346V24.373C22.8164 24.4337 22.8231 24.4943 22.8231 24.5483C22.8298 24.6224 22.8365 24.6966 22.8365 24.7707V24.8786C22.8365 24.9123 22.8432 24.9527 22.8432 24.9864C22.8432 25.0269 22.8365 25.0673 22.8365 25.1078V25.2021C22.8365 25.2493 22.8297 25.2898 22.8297 25.337C22.8297 25.3639 22.8297 25.3909 22.823 25.4246C22.823 25.4718 22.8163 25.519 22.8163 25.5729C22.8096 25.5931 22.8096 25.6133 22.8096 25.6336C22.8028 25.6875 22.7961 25.7347 22.7894 25.7886C22.7894 25.8088 22.7894 25.8291 22.7827 25.8493C22.776 25.9167 22.7625 25.9774 22.7558 26.0448V26.0515V26.0583C22.7424 26.1189 22.729 26.1864 22.7155 26.247V26.2672C22.7021 26.3279 22.6887 26.3886 22.6753 26.4492C22.6753 26.456 22.6685 26.4695 22.6685 26.4762C22.6551 26.5369 22.6417 26.5976 22.6215 26.6582V26.6785C22.6014 26.7459 22.5812 26.8065 22.5678 26.8672C22.5611 26.874 22.5611 26.8807 22.5611 26.8807C22.5409 26.9481 22.5208 27.0155 22.5007 27.0829C22.4738 27.1503 22.4537 27.211 22.4268 27.2784C22.3999 27.3458 22.3798 27.4132 22.3529 27.4739C22.3261 27.5413 22.2992 27.602 22.2724 27.6694H22.2656C22.2388 27.73 22.2119 27.7974 22.1783 27.8581C22.1716 27.8783 22.1649 27.8918 22.1582 27.9053C22.1515 27.9121 22.1515 27.9188 22.1448 27.9255C21.7083 28.8086 21.0637 29.5838 20.258 30.1905C20.2043 30.2242 20.1506 30.2646 20.0968 30.3051C20.0834 30.3186 20.0633 30.3253 20.0498 30.3388C20.0028 30.3725 19.9558 30.4062 19.9021 30.4399L19.9223 30.4804H19.929C20.023 30.4669 20.117 30.4534 20.211 30.4399H20.2177C20.3923 30.4129 20.5669 30.3792 20.7415 30.3455C20.7885 30.3388 20.8422 30.3253 20.8892 30.3118C20.9227 30.3051 20.9496 30.2984 20.9832 30.2916C21.0302 30.2848 21.0772 30.2714 21.1242 30.2646C21.1645 30.2512 21.2048 30.2444 21.245 30.2309C21.9165 30.0691 22.5678 29.8467 23.1923 29.5838C22.1247 31.0466 20.6945 32.2263 19.0225 33.0015C19.7947 32.9475 20.5669 32.8195 21.3122 32.6038C24.0182 31.8016 26.2944 29.9748 27.6574 27.5143C27.3821 29.0715 26.7644 30.5545 25.8512 31.8488C26.5025 31.4173 27.1001 30.9185 27.644 30.3523C29.1481 28.7749 30.1351 26.7728 30.4708 24.6224C30.6991 25.6875 30.7663 26.7863 30.6655 27.8716C35.5134 21.0834 31.0684 14.0458 29.2085 12.1921C29.2018 12.1786 29.1951 12.1719 29.1951 12.1584C29.1883 12.1651 29.1883 12.1651 29.1883 12.1718C29.1883 12.1651 29.1883 12.1651 29.1816 12.1584C29.1816 12.2393 29.1749 12.3202 29.1682 12.401C29.1481 12.5561 29.1279 12.7044 29.1011 12.8527C29.0675 13.001 29.0272 13.1493 28.9869 13.2976C28.9399 13.4392 28.8862 13.5875 28.8258 13.729C28.7653 13.8638 28.6982 14.0054 28.6243 14.1402C28.5505 14.2683 28.4699 14.4031 28.3826 14.5245C28.2953 14.6525 28.2013 14.7739 28.1073 14.8885C28.0066 15.0098 27.8991 15.1177 27.7917 15.2255C27.7246 15.2862 27.6641 15.3401 27.597 15.394C27.5433 15.4412 27.4963 15.4817 27.4426 15.5289C27.3217 15.6232 27.2008 15.7109 27.0665 15.7918C26.939 15.8726 26.8047 15.9535 26.6704 16.0209C26.5294 16.0884 26.3884 16.149 26.2474 16.2097C26.1064 16.2636 25.9586 16.3108 25.8109 16.3513C25.6632 16.3917 25.5088 16.4254 25.3611 16.4524C25.2066 16.4793 25.0522 16.4928 24.9045 16.5063C24.797 16.513 24.6896 16.5198 24.5822 16.5198C24.4277 16.5198 24.2733 16.5063 24.1256 16.4928C23.9711 16.4793 23.8167 16.4591 23.669 16.4254C23.5146 16.3984 23.3668 16.358 23.2191 16.3108H23.2124C23.3601 16.2973 23.5078 16.2838 23.6556 16.2569C23.81 16.2299 23.9577 16.1962 24.1054 16.1557C24.2531 16.1153 24.4009 16.0681 24.5419 16.0142C24.6896 15.9603 24.8306 15.8928 24.9649 15.8254C25.1059 15.758 25.2335 15.6839 25.3678 15.603C25.4953 15.5154 25.6229 15.4277 25.7438 15.3333C25.8646 15.239 25.9788 15.1379 26.0862 15.03C26.2004 14.9289 26.3011 14.8143 26.4018 14.6997C26.5025 14.5784 26.5965 14.457 26.6838 14.3357C26.6972 14.3155 26.7107 14.2885 26.7241 14.2683C26.7912 14.1604 26.8584 14.0526 26.9188 13.9447C26.9927 13.8099 27.0598 13.6751 27.1203 13.5335C27.1807 13.3919 27.2344 13.2504 27.2814 13.1021C27.3284 12.9605 27.362 12.8122 27.3956 12.6639C27.4224 12.5089 27.4493 12.3606 27.4627 12.2123C27.4761 12.0572 27.4896 11.9022 27.4896 11.7539C27.4896 11.646 27.4828 11.5382 27.4761 11.4303C27.4627 11.2753 27.4426 11.127 27.4224 10.9787C27.3956 10.8236 27.362 10.6753 27.3217 10.527C27.2747 10.3855 27.2277 10.2372 27.174 10.0956C27.1203 9.95405 27.0531 9.81249 26.986 9.67767C26.9121 9.54285 26.8383 9.40803 26.7577 9.27995C26.6704 9.15188 26.5831 9.03054 26.4891 8.9092C26.3884 8.7946 26.2877 8.68001 26.1802 8.56541C26.1265 8.51148 26.0661 8.45081 26.0057 8.39689C25.7035 8.16095 25.3879 7.9385 25.0723 7.73627C25.0253 7.7093 24.9851 7.68908 24.938 7.66886C24.7165 7.5273 24.5083 7.45311 24.3002 7.3857Z" fill="#E0234E" style="fill:#E0234E;fill:color(display-p3 0.8784 0.1373 0.3059);fill-opacity:1;"/>
</svg>
