<svg width="40" height="40" viewBox="0 0 40 40" fill="none" xmlns="http://www.w3.org/2000/svg">
<path d="M32.1342 20C32.1342 13.2986 26.7013 7.8652 20 7.86497C13.2985 7.86497 7.86497 13.2985 7.86497 20C7.8652 26.7013 13.2986 32.1342 20 32.1342C26.7012 32.134 32.134 26.7012 32.1342 20ZM33 20C32.9998 27.1794 27.1794 32.9998 20 33C12.8204 33 7.00022 27.1795 7 20C7 12.8203 12.8203 7 20 7C27.1795 7.00022 33 12.8204 33 20Z" fill="white" style="fill:white;fill-opacity:1;"/>
<path d="M29.9175 31.2525L16.5225 13.9995H13.9995V25.9935H16.0185V16.5645L28.3335 32.4735C28.8881 32.1022 29.4173 31.6943 29.9175 31.2525Z" fill="url(#paint0_linear_14988_4554)"/>
<path d="M26.1663 13.9995H24.1662V25.9995H26.1663V13.9995Z" fill="url(#paint1_linear_14988_4554)"/>
<defs>
<linearGradient id="paint0_linear_14988_4554" x1="23.1663" y1="24.4161" x2="29.0829" y2="31.7496" gradientUnits="userSpaceOnUse">
<stop stop-color="white" style="stop-color:white;stop-opacity:1;"/>
<stop offset="0.604" stop-color="white" stop-opacity="0" style="stop-color:none;stop-opacity:0;"/>
<stop offset="1" stop-color="white" stop-opacity="0" style="stop-color:none;stop-opacity:0;"/>
</linearGradient>
<linearGradient id="paint1_linear_14988_4554" x1="25.1661" y1="13.9995" x2="25.1328" y2="22.812" gradientUnits="userSpaceOnUse">
<stop stop-color="white" style="stop-color:white;stop-opacity:1;"/>
<stop offset="1" stop-color="white" stop-opacity="0" style="stop-color:none;stop-opacity:0;"/>
</linearGradient>
</defs>
</svg>
