<svg width="40" height="40" viewBox="0 0 40 40" fill="none" xmlns="http://www.w3.org/2000/svg">
<rect width="40" height="40" fill="#E24329" style="fill:#E24329;fill:color(display-p3 0.8863 0.2627 0.1608);fill-opacity:1;"/>
<rect width="40" height="40" fill="url(#paint0_radial_14673_5178)"/>
<rect width="40" height="40" fill="url(#paint1_linear_14673_5178)"/>
<path d="M32.8234 8.21992C32.9482 8.21831 33.072 8.24389 33.1857 8.29512C33.2994 8.34634 33.4011 8.42138 33.4826 8.51582C33.564 8.61029 33.6235 8.72197 33.6574 8.84199C33.6913 8.96196 33.6988 9.08806 33.6789 9.21113L32.5246 16.2795H16.0881L17.5939 24.1428L11.0305 31.9328C10.8225 31.7553 10.686 31.514 10.6408 31.2443L7.01092 9.20722C6.99096 9.08408 6.9985 8.95814 7.03241 8.83808C7.06634 8.71798 7.12572 8.60644 7.20721 8.51191C7.2887 8.41738 7.39029 8.34149 7.50408 8.29023C7.61779 8.23908 7.74172 8.21343 7.86639 8.21504L32.8234 8.21992Z" fill="white" style="fill:white;fill-opacity:1;"/>
<path d="M32.5244 16.2794H24.4988L23.1519 24.1425H17.5935L11.0302 31.933C11.2382 32.1129 11.5034 32.2129 11.7784 32.2152H29.1979C29.4028 32.2178 29.6019 32.1467 29.7589 32.0149C29.9159 31.883 30.0202 31.6992 30.053 31.4968L32.5244 16.2794Z" fill="url(#paint2_linear_14673_5178)"/>
<defs>
<radialGradient id="paint0_radial_14673_5178" cx="0" cy="0" r="1" gradientUnits="userSpaceOnUse" gradientTransform="translate(-1.34304 19.4355) rotate(90) scale(42.1126 48.6741)">
<stop stop-color="#20C6B7" style="stop-color:#20C6B7;stop-color:color(display-p3 0.1255 0.7765 0.7176);stop-opacity:1;"/>
<stop offset="1" stop-color="#4D9ABF" style="stop-color:#4D9ABF;stop-color:color(display-p3 0.3020 0.6039 0.7490);stop-opacity:1;"/>
</radialGradient>
<linearGradient id="paint1_linear_14673_5178" x1="43.4534" y1="5.52721" x2="13.6984" y2="22.7445" gradientUnits="userSpaceOnUse">
<stop offset="0.18" stop-color="#0052CC" style="stop-color:#0052CC;stop-color:color(display-p3 0.0000 0.3216 0.8000);stop-opacity:1;"/>
<stop offset="1" stop-color="#2684FF" style="stop-color:#2684FF;stop-color:color(display-p3 0.1490 0.5176 1.0000);stop-opacity:1;"/>
</linearGradient>
<linearGradient id="paint2_linear_14673_5178" x1="34.3801" y1="18.4814" x2="21.1167" y2="28.8331" gradientUnits="userSpaceOnUse">
<stop offset="0.18" stop-color="white" stop-opacity="0.1" style="stop-color:white;stop-opacity:0.1;"/>
<stop offset="1" stop-color="white" style="stop-color:white;stop-opacity:1;"/>
</linearGradient>
</defs>
</svg>
