<svg width="40" height="40" viewBox="0 0 40 40" fill="none" xmlns="http://www.w3.org/2000/svg">
<path d="M7.09035 8.21504C6.96555 8.21343 6.84191 8.23916 6.72811 8.29041C6.61431 8.34167 6.51311 8.41722 6.43162 8.51176C6.35012 8.60629 6.29031 8.71751 6.25638 8.83762C6.22245 8.95773 6.21522 9.08381 6.2352 9.20701L9.86532 31.2443C9.91055 31.514 10.0493 31.7591 10.2573 31.9366C10.4653 32.1141 10.7292 32.2126 11.0027 32.2149H28.4178C28.6228 32.2175 28.8219 32.1464 28.9789 32.0146C29.1358 31.8827 29.2402 31.6989 29.273 31.4966L32.9031 9.21129C32.9231 9.08809 32.9159 8.96201 32.8819 8.8419C32.848 8.72179 32.7882 8.61056 32.7067 8.51603C32.6252 8.4215 32.524 8.34595 32.4102 8.29469C32.2964 8.24343 32.1728 8.2177 32.048 8.21931L7.09035 8.21504ZM22.3762 24.1422H16.8177L15.3126 16.2791H23.7231L22.3762 24.1422Z" fill="#2684FF" style="fill:#2684FF;fill:color(display-p3 0.1490 0.5176 1.0000);fill-opacity:1;"/>
<path d="M31.7487 16.2791H23.7231L22.3762 24.1423H16.8177L10.2544 31.9327C10.4624 32.1126 10.7277 32.2126 11.0027 32.2149H28.4221C28.6271 32.2175 28.8262 32.1465 28.9832 32.0146C29.1401 31.8828 29.2445 31.6989 29.2773 31.4966L31.7487 16.2791Z" fill="url(#paint0_linear_14673_5174)"/>
<defs>
<linearGradient id="paint0_linear_14673_5174" x1="33.6043" y1="18.4812" x2="20.3409" y2="28.8328" gradientUnits="userSpaceOnUse">
<stop offset="0.18" stop-color="#0052CC" style="stop-color:#0052CC;stop-color:color(display-p3 0.0000 0.3216 0.8000);stop-opacity:1;"/>
<stop offset="1" stop-color="#2684FF" style="stop-color:#2684FF;stop-color:color(display-p3 0.1490 0.5176 1.0000);stop-opacity:1;"/>
</linearGradient>
</defs>
</svg>
