<svg width="40" height="40" viewBox="0 0 40 40" fill="none" xmlns="http://www.w3.org/2000/svg">
<path d="M7.5137 22.9498C7.45674 22.707 7.74602 22.554 7.92238 22.7304L17.2696 32.0776C17.4459 32.2539 17.293 32.5432 17.0502 32.4862C12.3332 31.3797 8.62023 27.6668 7.5137 22.9498ZM7.20048 19.2036C7.19596 19.2761 7.22323 19.3469 7.27461 19.3983L20.6017 32.7253C20.6531 32.7767 20.7239 32.804 20.7964 32.7995C21.4029 32.7617 21.998 32.6817 22.5788 32.5624C22.7745 32.5222 22.8425 32.2818 22.7012 32.1405L7.85944 17.2988C7.71816 17.1575 7.4777 17.2255 7.43751 17.4212C7.31823 18.0019 7.23826 18.597 7.20048 19.2036ZM8.27799 14.8045C8.23537 14.9002 8.25708 15.012 8.33115 15.0861L24.9138 31.6688C24.9879 31.7429 25.0997 31.7646 25.1954 31.722C25.6527 31.5183 26.0958 31.2886 26.5229 31.0348C26.6642 30.9509 26.6861 30.7567 26.5698 30.6404L9.35953 13.4301C9.24328 13.3139 9.04907 13.3357 8.9651 13.477C8.71132 13.9042 8.48166 14.3473 8.27799 14.8045ZM10.4406 11.8269C10.3459 11.7321 10.34 11.5802 10.4293 11.4802C12.7755 8.85353 16.1885 7.19995 19.9877 7.19995C27.0637 7.19995 32.8 12.9362 32.8 20.0123C32.8 23.8114 31.1464 27.2244 28.5197 29.5707C28.4198 29.6599 28.2678 29.6541 28.173 29.5593L10.4406 11.8269Z" fill="black" fill-opacity="0.87" style="fill:black;fill-opacity:0.87;"/>
</svg>
