<svg width="127" height="24" viewBox="0 0 127 24" fill="none" xmlns="http://www.w3.org/2000/svg">
<g clip-path="url(#clip0_15944_15)">
<path d="M0 11.5397H0.926078V12.46H0V11.5397Z" fill="white" fill-opacity="0.93" style="fill:white;fill-opacity:0.93;"/>
<path d="M3.24127 7.39844H5.09343V9.23902H3.24127V7.39844Z" fill="white" fill-opacity="0.93" style="fill:white;fill-opacity:0.93;"/>
<path d="M3.24127 14.7608H5.09343V16.6013H3.24127V14.7608Z" fill="white" fill-opacity="0.93" style="fill:white;fill-opacity:0.93;"/>
<path d="M6.3282 3.10375H9.41513V6.17138H6.3282V3.10375Z" fill="white" fill-opacity="0.93" style="fill:white;fill-opacity:0.93;"/>
<path d="M6.94558 11.0796H8.79774V12.9202H6.94558V11.0796Z" fill="white" fill-opacity="0.93" style="fill:white;fill-opacity:0.93;"/>
<path d="M6.3282 17.8284H9.41513V20.896H6.3282V17.8284Z" fill="white" fill-opacity="0.93" style="fill:white;fill-opacity:0.93;"/>
<path d="M10.0325 6.78491H13.1194V9.85254H10.0325V6.78491Z" fill="white" fill-opacity="0.93" style="fill:white;fill-opacity:0.93;"/>
<path d="M10.0325 14.1472H13.1194V17.2149H10.0325V14.1472Z" fill="white" fill-opacity="0.93" style="fill:white;fill-opacity:0.93;"/>
<path d="M13.4281 2.79699H17.1324V6.47815H13.4281V2.79699Z" fill="white" fill-opacity="0.93" style="fill:white;fill-opacity:0.93;"/>
<path d="M13.7368 10.4661H16.8237V13.5337H13.7368V10.4661Z" fill="white" fill-opacity="0.93" style="fill:white;fill-opacity:0.93;"/>
<path d="M13.4281 17.5216H17.1324V21.2028H13.4281V17.5216Z" fill="white" fill-opacity="0.93" style="fill:white;fill-opacity:0.93;"/>
<path d="M17.1324 6.47815H20.8368V10.1593H17.1324V6.47815Z" fill="white" fill-opacity="0.93" style="fill:white;fill-opacity:0.93;"/>
<path d="M17.1324 13.8405H20.8368V17.5216H17.1324V13.8405Z" fill="white" fill-opacity="0.93" style="fill:white;fill-opacity:0.93;"/>
<path d="M20.8368 10.1593H24.5411V13.8405H20.8368V10.1593Z" fill="white" fill-opacity="0.93" style="fill:white;fill-opacity:0.93;"/>
<path d="M126.623 14.3215H117.574V14.8227H118.418C118.497 17.8566 120.133 19.9671 122.402 19.9671C124.222 19.9671 125.515 19.2548 126.333 17.7775L126.385 17.8039C125.937 20.0991 124.143 21.6028 121.927 21.6028C118.286 21.6028 115.859 19.0702 115.859 15.2976C115.859 11.6833 118.471 8.6758 121.61 8.6758C124.671 8.6758 126.728 10.9974 126.623 14.3215ZM121.426 9.73107C119.79 9.73107 118.708 11.0502 118.471 13.3981H124.038C124.038 11.2612 122.956 9.73107 121.426 9.73107Z" fill="white" fill-opacity="0.93" style="fill:white;fill-opacity:0.93;"/>
<path d="M107.481 11.7361C107.481 11.0238 107.296 10.8127 106.267 10.3115L105.317 9.86298L109.908 8.67581V10.628C109.776 10.8655 109.354 11.7097 109.248 11.9735V13.0815C110.198 10.4434 111.992 8.59666 113.76 8.59666C115.105 8.59666 115.817 9.49364 115.87 10.3906C115.923 11.4459 115.211 12.0527 114.446 12.1054C113.707 12.1318 112.942 11.5514 112.942 10.6808C112.942 10.4698 113.074 10.1796 113.179 10.1268H113.549V9.67831C111.913 9.59916 110.409 11.4723 109.908 13.0288V18.8327C109.908 19.888 110.383 20.5212 111.359 20.6003L111.992 20.6531V21.339H105.397V20.6531L105.951 20.6003C107.006 20.4948 107.481 19.888 107.481 18.8327V11.7361Z" fill="white" fill-opacity="0.93" style="fill:white;fill-opacity:0.93;"/>
<path d="M104.443 14.3215H95.3938V14.8227H96.2381C96.3172 17.8566 97.9529 19.9671 100.222 19.9671C102.042 19.9671 103.335 19.2548 104.153 17.7775L104.205 17.8039C103.757 20.0991 101.963 21.6028 99.7468 21.6028C96.1061 21.6028 93.679 19.0702 93.679 15.2976C93.679 11.6833 96.2908 8.6758 99.4302 8.6758C102.491 8.6758 104.548 10.9974 104.443 14.3215ZM99.2456 9.73107C97.6099 9.73107 96.5282 11.0502 96.2908 13.3981H101.857C101.857 11.2612 100.776 9.73107 99.2456 9.73107Z" fill="white" fill-opacity="0.93" style="fill:white;fill-opacity:0.93;"/>
<path d="M87.7683 18.8327V8.93962V8.14817C87.7683 4.71856 89.8525 2.39697 92.9127 2.39697C94.7858 2.39697 96.2632 3.37309 96.2632 4.63941C96.2632 5.3781 95.762 5.98488 94.9969 5.98488C94.0472 5.98488 93.4931 5.19343 93.6778 4.13816H94.2054C94.2054 3.58415 93.6778 3.26757 92.7281 3.26757C91.1188 3.26757 90.1954 4.34921 90.1954 6.27507V8.93962H93.5723V9.99489H89.2985V10.4961H90.1954V18.8327C90.1954 19.9408 90.6703 20.5212 91.5937 20.6003L92.2004 20.6531V21.339H85.6842V20.6531L86.2382 20.6003C87.2671 20.4948 87.7683 19.9144 87.7683 18.8327Z" fill="white" fill-opacity="0.93" style="fill:white;fill-opacity:0.93;"/>
<path d="M77.1862 11.7361C77.1862 11.0238 77.0015 10.8127 75.9726 10.3115L75.0229 9.86298L79.6133 8.67581V10.628C79.4814 10.8655 79.0593 11.7097 78.9538 11.9735V13.0815C79.9035 10.4434 81.6975 8.59666 83.465 8.59666C84.8105 8.59666 85.5228 9.49364 85.5756 10.3906C85.6283 11.4459 84.916 12.0527 84.151 12.1054C83.4123 12.1318 82.6472 11.5514 82.6472 10.6808C82.6472 10.4698 82.7791 10.1796 82.8846 10.1268H83.254V9.67831C81.6183 9.59916 80.1146 11.4723 79.6133 13.0288V18.8327C79.6133 19.888 80.0882 20.5212 81.0643 20.6003L81.6975 20.6531V21.339H75.1021V20.6531L75.6561 20.6003C76.7113 20.4948 77.1862 19.888 77.1862 18.8327V11.7361Z" fill="white" fill-opacity="0.93" style="fill:white;fill-opacity:0.93;"/>
<path d="M74.1482 14.3215H65.0993V14.8227H65.9435C66.0226 17.8566 67.6583 19.9671 69.9271 19.9671C71.7475 19.9671 73.0402 19.2548 73.858 17.7775L73.9108 17.8039C73.4623 20.0991 71.6683 21.6028 69.4523 21.6028C65.8116 21.6028 63.3845 19.0702 63.3845 15.2976C63.3845 11.6833 65.9963 8.6758 69.1357 8.6758C72.1959 8.6758 74.2537 10.9974 74.1482 14.3215ZM68.951 9.73107C67.3153 9.73107 66.2337 11.0502 65.9963 13.3981H71.5628C71.5628 11.2612 70.4811 9.73107 68.951 9.73107Z" fill="white" fill-opacity="0.93" style="fill:white;fill-opacity:0.93;"/>
<path d="M59.3782 10.4961V18.5162C59.3782 19.334 59.9322 19.8352 60.75 19.8352C61.7261 19.8352 62.412 19.2812 62.9133 18.1204L62.9924 18.1468C62.5176 20.3893 61.3568 21.55 59.5628 21.55C58.0855 21.55 56.951 20.5212 56.951 18.9383V9.99489H54.7614C56.4234 8.91324 58.3757 6.61804 59.3782 4.53389V8.93962H62.8605V9.99489H58.4812V10.4961H59.3782Z" fill="white" fill-opacity="0.93" style="fill:white;fill-opacity:0.93;"/>
<path d="M42.9241 11.7361C42.9241 11.0238 42.7394 10.8127 41.7105 10.3115L40.7608 9.86298L45.3512 8.67581V10.2323L44.5333 11.3404V12.1582L45.061 11.4459C46.3273 9.65193 47.9102 8.64942 49.4931 8.64942C51.7883 8.64942 53.1338 10.1004 53.1338 12.5803V18.8327C53.1338 19.9144 53.635 20.4948 54.6639 20.6003L55.2179 20.6531V21.339H48.8335V20.6531L49.3084 20.6003C50.2582 20.4948 50.7066 19.9144 50.7066 18.8327V12.765C50.7066 11.2084 49.836 10.3115 48.3323 10.3115C47.2506 10.3115 46.1426 10.9446 45.3512 11.9999V18.8327C45.3512 19.9144 45.7997 20.4948 46.7494 20.6003L47.2243 20.6531V21.339H40.8399V20.6531L41.3939 20.6003C42.4228 20.4948 42.9241 19.9144 42.9241 18.8327V11.7361Z" fill="white" fill-opacity="0.93" style="fill:white;fill-opacity:0.93;"/>
<path d="M37.7932 18.5689C37.7932 19.7825 38.4264 20.4156 39.6663 20.5212L40.2731 20.5739V21.339H32.5169V20.5739L33.1237 20.5212C34.3636 20.4156 34.9968 19.7825 34.9968 18.5689V5.64192C34.9968 4.42836 34.3636 3.7952 33.1237 3.68967L32.5169 3.63691V2.87184H40.2731V3.63691L39.6663 3.68967C38.4264 3.7952 37.7932 4.42836 37.7932 5.64192V18.5689Z" fill="white" fill-opacity="0.93" style="fill:white;fill-opacity:0.93;"/>
</g>
<defs>
<clipPath id="clip0_15944_15">
<rect width="127" height="24" fill="white" style="fill:white;fill-opacity:1;"/>
</clipPath>
</defs>
</svg>
