<svg width="40" height="40" viewBox="0 0 40 40" fill="none" xmlns="http://www.w3.org/2000/svg">
<rect width="40" height="40" fill="#E24329" style="fill:#E24329;fill:color(display-p3 0.8863 0.2627 0.1608);fill-opacity:1;"/>
<rect width="40" height="40" fill="url(#paint0_radial_14648_5683)"/>
<path d="M26.742 15.2686L26.731 15.2639C26.7248 15.2615 26.7185 15.2592 26.713 15.2537C26.704 15.2441 26.6974 15.2325 26.6936 15.2199C26.6898 15.2073 26.6889 15.1939 26.6911 15.1809L27.2965 11.4833L30.1359 14.3203L27.183 15.5753C27.1748 15.5786 27.166 15.5802 27.1571 15.58H27.1454C27.1415 15.5776 27.1375 15.5745 27.1297 15.5667C27.0198 15.4444 26.8884 15.3434 26.742 15.2686ZM30.8604 15.0432L33.8964 18.0759C34.5269 18.7065 34.8426 19.021 34.9577 19.3856C34.9749 19.4396 34.989 19.4936 35 19.5491L27.7446 16.4797C27.7407 16.4781 27.7368 16.4766 27.7328 16.475C27.7038 16.4633 27.6702 16.45 27.6702 16.4203C27.6702 16.3905 27.7046 16.3765 27.7336 16.3647L27.743 16.3608L30.8604 15.0432ZM34.8762 20.5224C34.7196 20.8166 34.4141 21.1218 33.8972 21.6389L30.4743 25.0573L26.0472 24.1364L26.0237 24.1317C25.9846 24.1254 25.9431 24.1184 25.9431 24.0832C25.9262 23.9008 25.872 23.7237 25.7838 23.5632C25.6955 23.4026 25.5751 23.2619 25.43 23.1498C25.412 23.1318 25.4167 23.1036 25.4222 23.0778C25.4222 23.0739 25.4222 23.07 25.4237 23.0668L26.2564 17.9608L26.2595 17.9436C26.2642 17.9045 26.2712 17.8591 26.3065 17.8591C26.4849 17.837 26.6572 17.7795 26.8131 17.6902C26.9691 17.6009 27.1058 17.4814 27.2151 17.3388C27.2221 17.331 27.2268 17.3224 27.2362 17.3177C27.2613 17.306 27.2911 17.3177 27.3169 17.3287L34.8762 20.5224ZM29.6871 25.8436L24.0585 31.466L25.0219 25.551L25.0235 25.5432C25.0243 25.5353 25.0258 25.5275 25.0282 25.5205C25.036 25.5017 25.0564 25.4939 25.076 25.486L25.0854 25.4821C25.2963 25.3922 25.4829 25.2536 25.6298 25.0776C25.6485 25.0557 25.6713 25.0346 25.7002 25.0307C25.7078 25.0295 25.7154 25.0295 25.723 25.0307L29.6863 25.8444L29.6871 25.8436ZM22.8672 32.656L22.2327 33.2898L15.2185 23.1639C15.216 23.1602 15.2134 23.1565 15.2107 23.1529C15.1997 23.138 15.188 23.1232 15.1903 23.106C15.1903 23.0934 15.199 23.0825 15.2076 23.0731L15.2154 23.0629C15.2365 23.0316 15.2546 23.0003 15.2741 22.9667L15.2898 22.9393L15.2922 22.937C15.3031 22.9182 15.3133 22.9002 15.3321 22.89C15.3486 22.8822 15.3713 22.8853 15.3893 22.8892L23.1601 24.49C23.1818 24.4934 23.2023 24.5023 23.2196 24.5159C23.2298 24.526 23.2322 24.537 23.2345 24.5495C23.2887 24.7544 23.3896 24.9439 23.5293 25.1034C23.669 25.2629 23.8436 25.388 24.0397 25.4688C24.0616 25.4798 24.0522 25.504 24.0421 25.5299C24.037 25.5412 24.033 25.553 24.0303 25.5651C23.9324 26.1597 23.0927 31.2751 22.8672 32.656ZM21.5419 33.9791C21.0743 34.4415 20.7985 34.6864 20.4868 34.785C20.1794 34.8821 19.8496 34.8821 19.5422 34.785C19.1772 34.6692 18.8615 34.3546 18.231 33.724L11.187 26.6878L13.0269 23.8375C13.0356 23.8234 13.0442 23.8109 13.0583 23.8007C13.0779 23.7867 13.1061 23.7929 13.1296 23.8007C13.5519 23.928 14.0053 23.9051 14.4125 23.7358C14.4337 23.728 14.4548 23.7225 14.4713 23.7374C14.4795 23.7449 14.4869 23.7533 14.4932 23.7624L21.5419 33.9791ZM10.508 26.0095L8.89207 24.3954L12.0831 23.0355C12.0913 23.032 12.1001 23.0301 12.109 23.0301C12.1356 23.0301 12.1512 23.0567 12.1653 23.0809C12.1974 23.1302 12.2314 23.1782 12.2672 23.2249L12.2774 23.2374C12.2868 23.2507 12.2805 23.264 12.2711 23.2765L10.508 26.0095ZM8.17694 23.681L6.13261 21.6389C5.78484 21.2916 5.53262 21.0396 5.35717 20.8229L11.5732 22.1107C11.581 22.1122 11.5888 22.1135 11.5967 22.1146C11.6351 22.1209 11.6774 22.1279 11.6774 22.1639C11.6774 22.2031 11.6312 22.2211 11.592 22.2359L11.574 22.2437L8.17694 23.681ZM5 19.7729C5.00708 19.6414 5.03077 19.5112 5.07049 19.3856C5.18642 19.021 5.50129 18.7065 6.13261 18.0759L8.74873 15.4626C9.95327 17.2089 11.1611 18.9528 12.3721 20.6946C12.3933 20.7227 12.4168 20.754 12.3925 20.7775C12.2781 20.9035 12.1638 21.0412 12.0831 21.1906C12.0744 21.2098 12.0609 21.2265 12.0439 21.2391C12.0338 21.2454 12.0228 21.243 12.011 21.2407H12.0095L5 19.7729ZM9.44897 14.7631L12.9651 11.2493C13.2964 11.3941 14.5003 11.9019 15.5757 12.3557C16.3903 12.6999 17.1328 13.0129 17.3663 13.1146C17.3898 13.124 17.4109 13.1334 17.4211 13.1568C17.4274 13.1709 17.4242 13.1889 17.4211 13.2038C17.3654 13.4574 17.3737 13.7209 17.4452 13.9706C17.5167 14.2202 17.6492 14.4482 17.8307 14.634C17.8542 14.6575 17.8307 14.6912 17.8104 14.7201L17.7994 14.7365L14.2277 20.2627C14.2183 20.2783 14.2097 20.2916 14.194 20.3018C14.1752 20.3135 14.1486 20.3081 14.1267 20.3026C13.9877 20.2662 13.8449 20.2468 13.7013 20.2447C13.5729 20.2447 13.4335 20.2682 13.2925 20.294H13.2917C13.276 20.2963 13.2619 20.2995 13.2494 20.2901C13.2356 20.2788 13.2236 20.2653 13.2141 20.2502L9.44897 14.7631ZM13.6771 10.5397L18.231 5.99077C18.8615 5.36093 19.1772 5.04562 19.5422 4.93061C19.8496 4.83352 20.1794 4.83352 20.4868 4.93061C20.8518 5.04562 21.1675 5.36093 21.798 5.99077L22.7849 6.9766L19.5461 11.9871C19.5381 12.0017 19.5272 12.0145 19.514 12.0247C19.4944 12.038 19.467 12.0325 19.4435 12.0247C19.1881 11.9473 18.9177 11.9332 18.6557 11.9836C18.3937 12.0341 18.1479 12.1475 17.9396 12.3142C17.9185 12.3361 17.8871 12.3236 17.8605 12.3118C17.4375 12.128 14.1478 10.7392 13.6771 10.5397ZM23.4726 7.66356L26.4631 10.6508L25.7425 15.109V15.1207C25.7419 15.1309 25.7398 15.1409 25.7363 15.1504C25.7284 15.1661 25.7128 15.1692 25.6971 15.1739C25.543 15.2205 25.3979 15.2927 25.2679 15.3875C25.2623 15.3915 25.257 15.3959 25.2522 15.4008C25.2436 15.4102 25.235 15.4188 25.2209 15.4204C25.2094 15.4207 25.198 15.4189 25.1872 15.4149L20.6301 13.4808L20.6215 13.4769C20.5925 13.4651 20.5581 13.451 20.5581 13.4213C20.5313 13.1676 20.4484 12.9231 20.3153 12.7054C20.2933 12.6694 20.2691 12.6319 20.2879 12.5951L23.4726 7.66356ZM20.3928 14.397L24.6648 16.2043C24.6883 16.2153 24.7141 16.2255 24.7243 16.2497C24.7284 16.2643 24.7284 16.2797 24.7243 16.2943C24.7118 16.3569 24.7008 16.4281 24.7008 16.5001V16.6198C24.7008 16.6495 24.6702 16.662 24.642 16.6738L24.6334 16.6769C23.9567 16.9656 15.1324 20.7243 15.1191 20.7243C15.1057 20.7243 15.0916 20.7243 15.0783 20.711C15.0548 20.6875 15.0783 20.6547 15.0995 20.6249C15.1032 20.6198 15.1069 20.6146 15.1104 20.6093L18.6211 15.1794L18.6273 15.17C18.6477 15.1371 18.6712 15.1004 18.7088 15.1004L18.744 15.1058C18.8239 15.1168 18.8944 15.127 18.9657 15.127C19.4983 15.127 19.9918 14.868 20.2894 14.4251C20.2965 14.4133 20.3055 14.4027 20.3161 14.3938C20.3372 14.3782 20.3685 14.386 20.3928 14.397ZM15.5005 21.5834L25.1191 17.4859C25.1191 17.4859 25.1332 17.4859 25.1465 17.4992C25.199 17.5516 25.2436 17.5868 25.2867 17.6197L25.3078 17.633C25.3274 17.644 25.347 17.6565 25.3486 17.6768C25.3486 17.6846 25.3486 17.6893 25.347 17.6964L24.523 22.7523L24.5199 22.7727C24.5144 22.8118 24.5089 22.8564 24.4721 22.8564C24.2524 22.8712 24.0396 22.9393 23.8522 23.0548C23.6649 23.1702 23.5085 23.3296 23.3967 23.5191L23.3927 23.5253C23.3818 23.5433 23.3716 23.5605 23.3536 23.5699C23.3371 23.5778 23.316 23.5746 23.2987 23.5707L15.6282 21.9902C15.6203 21.9887 15.5091 21.5842 15.5005 21.5834Z" fill="white" style="fill:white;fill-opacity:1;"/>
<defs>
<radialGradient id="paint0_radial_14648_5683" cx="0" cy="0" r="1" gradientUnits="userSpaceOnUse" gradientTransform="translate(-1.34304 19.4355) rotate(90) scale(42.1126 48.6741)">
<stop stop-color="#20C6B7" style="stop-color:#20C6B7;stop-color:color(display-p3 0.1255 0.7765 0.7176);stop-opacity:1;"/>
<stop offset="1" stop-color="#4D9ABF" style="stop-color:#4D9ABF;stop-color:color(display-p3 0.3020 0.6039 0.7490);stop-opacity:1;"/>
</radialGradient>
</defs>
</svg>
