<svg width="40" height="40" viewBox="0 0 40 40" fill="none" xmlns="http://www.w3.org/2000/svg">
<path d="M33.5793 16.9633L33.5393 16.8586L29.5645 6.48814C29.485 6.28497 29.3422 6.11382 29.1563 5.9956C28.971 5.87678 28.7536 5.82075 28.5332 5.83245C28.314 5.84415 28.1035 5.92419 27.9317 6.06087C27.7611 6.19878 27.638 6.38533 27.5801 6.59589L24.8964 14.8096H14.0383L11.3546 6.59589C11.2967 6.38533 11.1736 6.19878 11.0031 6.06087C10.8313 5.92419 10.6207 5.84415 10.4015 5.83245C10.1811 5.82075 9.96378 5.87678 9.77848 5.9956C9.59254 6.11382 9.4497 6.28497 9.37028 6.48814L5.39548 16.8592L5.35546 16.9633C4.17766 20.0355 5.18121 23.5085 7.804 25.4922C7.80892 25.4953 7.81323 25.499 7.81816 25.5027L7.85326 25.5292L13.9078 30.0618L18.7249 33.7066C19.1638 34.0391 19.7709 34.0391 20.2099 33.7066L25.0263 30.0618L31.1166 25.5027C31.1221 25.4984 31.1271 25.4947 31.1326 25.4904C33.7535 23.5067 34.7565 20.0349 33.5793 16.9633Z" fill="white" style="fill:white;fill-opacity:1;"/>
</svg>
