<svg width="40" height="40" viewBox="0 0 40 40" fill="none" xmlns="http://www.w3.org/2000/svg">
<path d="M33.5793 16.9633L33.5393 16.8586L29.5645 6.48814C29.485 6.28497 29.3422 6.11382 29.1563 5.9956C28.971 5.87678 28.7536 5.82075 28.5332 5.83245C28.314 5.84415 28.1035 5.92419 27.9317 6.06087C27.7611 6.19878 27.638 6.38533 27.5801 6.59589L24.8964 14.8096H14.0383L11.3546 6.59589C11.2967 6.38533 11.1736 6.19878 11.0031 6.06087C10.8313 5.92419 10.6207 5.84415 10.4015 5.83245C10.1811 5.82075 9.96378 5.87678 9.77848 5.9956C9.59254 6.11382 9.4497 6.28497 9.37028 6.48814L5.39548 16.8592L5.35546 16.9633C4.17766 20.0355 5.18121 23.5085 7.804 25.4922C7.80892 25.4953 7.81323 25.499 7.81816 25.5027L7.85326 25.5292L13.9078 30.0618L16.9025 32.3287L18.7249 33.7066C19.1638 34.0391 19.7709 34.0391 20.2099 33.7066L22.0323 32.3287L25.0263 30.0618L31.1166 25.5027C31.1221 25.4984 31.1271 25.4947 31.1326 25.4904C33.7535 23.5067 34.7565 20.0349 33.5793 16.9633Z" fill="#E24329" style="fill:#E24329;fill:color(display-p3 0.8863 0.2627 0.1608);fill-opacity:1;"/>
<path d="M33.5793 16.9633L33.5393 16.8586C31.5673 17.2638 29.751 18.098 28.1958 19.2616C28.1706 19.2801 23.4699 22.835 19.4674 25.8611C22.4392 28.1083 25.0263 30.0618 25.0263 30.0618L31.1166 25.5027C31.1221 25.4984 31.1271 25.4947 31.1326 25.4904C33.7535 23.5067 34.7565 20.0349 33.5793 16.9633Z" fill="#FC6D26" style="fill:#FC6D26;fill:color(display-p3 0.9882 0.4275 0.1490);fill-opacity:1;"/>
<path d="M13.9078 30.0618L16.9025 32.3288L18.7249 33.7066C19.1638 34.0391 19.7709 34.0391 20.2099 33.7066L22.0323 32.3288L25.0263 30.0618C25.0263 30.0618 22.4392 28.1083 19.4674 25.8611C16.4949 28.1083 13.9078 30.0618 13.9078 30.0618Z" fill="#FCA326" style="fill:#FCA326;fill:color(display-p3 0.9882 0.6392 0.1490);fill-opacity:1;"/>
<path d="M10.7383 19.2615C9.18372 18.0985 7.3681 17.2636 5.39548 16.8591L5.35546 16.9632C4.17766 20.0354 5.18121 23.5084 7.804 25.4921C7.80892 25.4952 7.81323 25.4989 7.81816 25.5026L7.85326 25.5291L13.9078 30.0617C13.9078 30.0617 16.4949 28.1082 19.4674 25.8609C15.4649 22.8349 10.7636 19.28 10.7383 19.2615Z" fill="#FC6D26" style="fill:#FC6D26;fill:color(display-p3 0.9882 0.4275 0.1490);fill-opacity:1;"/>
</svg>
