<svg width="40" height="40" viewBox="0 0 40 40" fill="none" xmlns="http://www.w3.org/2000/svg">
<rect width="40" height="40" fill="#FAFAFA" style="fill:#FAFAFA;fill:color(display-p3 0.9800 0.9800 0.9800);fill-opacity:1;"/>
<path d="M32.672 20.3C32.672 19.364 32.588 18.464 32.432 17.6H20V22.712H27.104C26.792 24.356 25.856 25.748 24.452 26.684V30.008H28.736C31.232 27.704 32.672 24.32 32.672 20.3Z" fill="#4285F4" style="fill:#4285F4;fill:color(display-p3 0.2588 0.5216 0.9569);fill-opacity:1;"/>
<path d="M20 33.2C23.564 33.2 26.552 32.024 28.736 30.008L24.452 26.684C23.276 27.476 21.776 27.956 20 27.956C16.568 27.956 13.652 25.64 12.608 22.52H8.216V25.928C10.388 30.236 14.84 33.2 20 33.2Z" fill="#34A853" style="fill:#34A853;fill:color(display-p3 0.2039 0.6588 0.3255);fill-opacity:1;"/>
<path d="M12.608 22.508C12.344 21.716 12.188 20.876 12.188 20C12.188 19.124 12.344 18.284 12.608 17.492V14.084H8.216C7.316 15.86 6.8 17.864 6.8 20C6.8 22.136 7.316 24.14 8.216 25.916L11.636 23.252L12.608 22.508Z" fill="#FBBC05" style="fill:#FBBC05;fill:color(display-p3 0.9843 0.7373 0.0196);fill-opacity:1;"/>
<path d="M20 12.0559C21.944 12.0559 23.672 12.7279 25.052 14.0239L28.832 10.2439C26.54 8.10793 23.564 6.79993 20 6.79993C14.84 6.79993 10.388 9.76393 8.216 14.0839L12.608 17.4919C13.652 14.3719 16.568 12.0559 20 12.0559Z" fill="#EA4335" style="fill:#EA4335;fill:color(display-p3 0.9176 0.2627 0.2078);fill-opacity:1;"/>
</svg>
