<svg width="40" height="40" viewBox="0 0 40 40" fill="none" xmlns="http://www.w3.org/2000/svg">
<path fill-rule="evenodd" clip-rule="evenodd" d="M11.2654 6.07129L19.205 13.4173V13.4156V6.08824H20.7505V13.4502L28.7257 6.07129V14.4468H32V26.5278H28.7357V33.9858L20.7505 26.9406V34.0667H19.205V27.0568L11.2744 34.0713V26.5278H8V14.4468H11.2654V6.07129ZM18.0399 15.9799H9.54552V24.9947H11.2725V22.1511L18.0399 15.9799ZM12.8199 22.8313V30.6503L19.205 25.0027V17.0073L12.8199 22.8313ZM20.795 24.928V16.9998L27.182 22.8241V26.5278H27.1902V30.5705L20.795 24.928ZM28.7357 24.9947H30.4545V15.9799H22.0234L28.7357 22.0872V24.9947ZM27.1801 14.4468V9.59772L21.9391 14.4468H27.1801ZM18.0519 14.4468H12.8109V9.59772L18.0519 14.4468Z" fill="white" style="fill:white;fill-opacity:1;"/>
</svg>
