<svg width="40" height="40" viewBox="0 0 40 40" fill="none" xmlns="http://www.w3.org/2000/svg">
<path d="M19.9066 7.00537C13.3058 7.00537 13.7177 9.86781 13.7177 9.86781L13.7259 12.8334H20.0244V13.7231H11.2226C11.2226 13.7231 7 13.2437 7 19.9046C7 26.5639 10.6863 26.3282 10.6863 26.3282H12.8866V23.2375C12.8866 23.2375 12.7679 19.5512 16.5144 19.5512H22.7609C22.7609 19.5512 26.2709 19.6081 26.2709 16.159V10.4561C26.2709 10.4561 26.8039 7.00537 19.9066 7.00537ZM16.4331 8.99925C17.0596 8.99925 17.5666 9.50625 17.5666 10.1327C17.5666 10.7591 17.0596 11.2661 16.4331 11.2661C16.2842 11.2663 16.1367 11.2372 15.9991 11.1803C15.8615 11.1234 15.7365 11.0399 15.6312 10.9346C15.5259 10.8293 15.4424 10.7043 15.3855 10.5667C15.3286 10.4291 15.2995 10.2816 15.2997 10.1327C15.2997 9.50625 15.8067 8.99925 16.4331 8.99925Z" fill="url(#paint0_linear_34_10568)"/>
<path d="M20.0935 32.8697C26.6942 32.8697 26.2823 30.0073 26.2823 30.0073L26.2741 27.0417H19.9756V26.152H28.7766C28.7766 26.152 33 26.6314 33 19.9713C33 13.3112 29.3137 13.5477 29.3137 13.5477H27.1134V16.6376C27.1134 16.6376 27.2321 20.3239 23.4856 20.3239H17.2391C17.2391 20.3239 13.7291 20.267 13.7291 23.7161V29.419C13.7291 29.419 13.1961 32.8697 20.0935 32.8697ZM23.5669 30.8759C23.418 30.8761 23.2705 30.8469 23.1329 30.79C22.9953 30.7331 22.8702 30.6496 22.7649 30.5444C22.6597 30.4391 22.5762 30.314 22.5193 30.1764C22.4624 30.0388 22.4332 29.8913 22.4334 29.7424C22.4334 29.1168 22.9404 28.6098 23.5669 28.6098C24.1933 28.6098 24.7003 29.116 24.7003 29.7424C24.7003 30.3697 24.1933 30.8759 23.5669 30.8759Z" fill="url(#paint1_linear_34_10568)"/>
<defs>
<linearGradient id="paint0_linear_34_10568" x1="9.49844" y1="9.26574" x2="22.3546" y2="22.165" gradientUnits="userSpaceOnUse">
<stop stop-color="#387EB8" style="stop-color:#387EB8;stop-color:color(display-p3 0.2196 0.4941 0.7216);stop-opacity:1;"/>
<stop offset="1" stop-color="#366994" style="stop-color:#366994;stop-color:color(display-p3 0.2118 0.4118 0.5804);stop-opacity:1;"/>
</linearGradient>
<linearGradient id="paint1_linear_34_10568" x1="17.4073" y1="17.472" x2="31.2149" y2="30.7003" gradientUnits="userSpaceOnUse">
<stop stop-color="#FFE052" style="stop-color:#FFE052;stop-color:color(display-p3 1.0000 0.8784 0.3216);stop-opacity:1;"/>
<stop offset="1" stop-color="#FFC331" style="stop-color:#FFC331;stop-color:color(display-p3 1.0000 0.7647 0.1922);stop-opacity:1;"/>
</linearGradient>
</defs>
</svg>
