<svg width="40" height="40" viewBox="0 0 40 40" fill="none" xmlns="http://www.w3.org/2000/svg">
<rect width="40" height="40" fill="white" style="fill:white;fill-opacity:1;"/>
<path d="M32.0635 15.671C31.4978 14.3102 30.3519 12.841 29.4521 12.3766C30.1844 13.8123 30.6082 15.2524 30.7702 16.3273C30.7702 16.3294 30.771 16.3346 30.7728 16.3489C29.3008 12.6801 26.8049 11.2007 24.7667 7.97955C24.6638 7.81667 24.5606 7.65336 24.4601 7.48122C24.4089 7.39331 24.3611 7.30347 24.3168 7.2119C24.2321 7.04842 24.1668 6.87562 24.1222 6.697C24.1225 6.68854 24.1196 6.68028 24.1141 6.67382C24.1087 6.66737 24.101 6.66319 24.0926 6.66212C24.0846 6.65983 24.0761 6.65983 24.0682 6.66212C24.0663 6.66277 24.0636 6.66488 24.0617 6.66564C24.0588 6.66678 24.0552 6.66938 24.0521 6.67105C24.0536 6.6691 24.0566 6.66472 24.0575 6.66369C20.7875 8.57879 19.6782 12.1215 19.5763 13.894C18.2705 13.9838 17.022 14.4649 15.9936 15.2746C15.8859 15.1837 15.7734 15.0987 15.6564 15.02C15.3597 13.982 15.3471 12.8833 15.6199 11.8387C14.2827 12.4476 13.2426 13.4101 12.4864 14.26H12.4804C11.9643 13.6063 12.0007 11.4502 12.0301 11C12.024 10.9721 11.6452 11.1966 11.5956 11.2305C11.1402 11.5555 10.7145 11.9202 10.3234 12.3203C9.87841 12.7716 9.4718 13.2592 9.10783 13.7781C9.10783 13.7787 9.10745 13.7795 9.10723 13.7802C9.10723 13.7795 9.10761 13.7787 9.10783 13.7781C8.27076 14.9643 7.67709 16.3047 7.36113 17.7217C7.3549 17.7499 7.34964 17.7791 7.34358 17.8076C7.31909 17.9222 7.23091 18.4955 7.21547 18.6201C7.21428 18.6297 7.21374 18.6389 7.2126 18.6485C7.0986 19.2412 7.02799 19.8414 7.00135 20.4444C7.00135 20.4667 7 20.4886 7 20.5109C7.00022 27.6995 12.8285 33.5268 20.0177 33.5268C26.4561 33.5268 31.8021 28.8529 32.8487 22.7136C32.8707 22.547 32.8884 22.3795 32.9078 22.2114C33.1666 19.9792 32.8791 17.633 32.0635 15.671ZM17.0598 25.8594C17.1206 25.8885 17.1778 25.9203 17.2403 25.9482C17.2429 25.95 17.2465 25.952 17.2492 25.9536C17.1856 25.9232 17.1224 25.8918 17.0598 25.8594ZM30.7738 16.3521L30.772 16.3395C30.7727 16.3441 30.7735 16.3489 30.7742 16.3535L30.7738 16.3521Z" fill="url(#paint0_linear_15394_14109)"/>
<path d="M32.0635 15.6712C31.4978 14.3103 30.3519 12.8411 29.4521 12.3767C30.1844 13.8124 30.6082 15.2526 30.7702 16.3274C30.7702 16.3242 30.7708 16.33 30.7722 16.3396C30.7728 16.3442 30.7736 16.349 30.7743 16.3536C32.0025 19.6832 31.3334 23.0691 30.3692 25.1381C28.8775 28.3393 25.2659 31.6201 19.6131 31.4601C13.5056 31.2872 8.12503 26.7555 7.12062 20.82C6.9376 19.884 7.12062 19.4088 7.21271 18.6488C7.10053 19.2347 7.05779 19.4039 7.00146 20.4448C7.00146 20.467 7.0001 20.489 7.0001 20.5113C7.00021 27.6996 12.8285 33.5269 20.0177 33.5269C26.4561 33.5269 31.8021 28.853 32.8487 22.7137C32.8707 22.5471 32.8884 22.3796 32.9078 22.2115C33.1666 19.9793 32.8791 17.6331 32.0635 15.6712Z" fill="url(#paint1_radial_15394_14109)"/>
<path d="M32.0635 15.6712C31.4978 14.3103 30.3519 12.8411 29.4521 12.3767C30.1844 13.8124 30.6082 15.2526 30.7702 16.3274C30.7702 16.3242 30.7708 16.33 30.7722 16.3396C30.7728 16.3442 30.7736 16.349 30.7743 16.3536C32.0025 19.6832 31.3334 23.0691 30.3692 25.1381C28.8775 28.3393 25.2659 31.6201 19.6131 31.4601C13.5056 31.2872 8.12503 26.7555 7.12062 20.82C6.9376 19.884 7.12062 19.4088 7.21271 18.6488C7.10053 19.2347 7.05779 19.4039 7.00146 20.4448C7.00146 20.467 7.0001 20.489 7.0001 20.5113C7.00021 27.6996 12.8285 33.5269 20.0177 33.5269C26.4561 33.5269 31.8021 28.853 32.8487 22.7137C32.8707 22.5471 32.8884 22.3796 32.9078 22.2115C33.1666 19.9793 32.8791 17.6331 32.0635 15.6712Z" fill="url(#paint2_radial_15394_14109)"/>
<path d="M25.7375 17.2011C25.7659 17.221 25.7917 17.2408 25.8184 17.2606C25.4917 16.6808 25.0849 16.15 24.6099 15.6838C20.5634 11.6378 23.5489 6.91088 24.0523 6.67082C24.0538 6.66887 24.0568 6.66448 24.0577 6.66345C20.7877 8.57855 19.6784 12.1213 19.5765 13.8938C19.7281 13.8833 19.8794 13.8705 20.0337 13.8705C22.474 13.8705 24.5994 15.2122 25.7375 17.2011Z" fill="url(#paint3_radial_15394_14109)"/>
<path d="M20.0419 18.009C20.0206 18.3328 18.8766 19.4494 18.4765 19.4494C14.7749 19.4494 14.174 21.6884 14.174 21.6884C14.338 23.5739 15.6506 25.1266 17.2404 25.9482C17.3129 25.9856 17.3863 26.0195 17.4598 26.053C17.5857 26.1087 17.7132 26.1609 17.8421 26.2093C18.3872 26.4023 18.9582 26.5124 19.536 26.536C26.024 26.8403 27.281 18.7797 22.5988 16.4389C23.7979 16.2304 25.0425 16.7126 25.7376 17.2009C24.5994 15.2122 22.474 13.8705 20.0339 13.8705C19.8795 13.8705 19.7283 13.8833 19.5766 13.8938C18.2708 13.9836 17.0223 14.4647 15.9939 15.2744C16.1924 15.4423 16.4164 15.6668 16.8884 16.1317C17.7714 17.002 20.0371 17.9032 20.0419 18.009Z" fill="url(#paint4_radial_15394_14109)"/>
<path d="M20.0419 18.009C20.0206 18.3328 18.8766 19.4494 18.4765 19.4494C14.7749 19.4494 14.174 21.6884 14.174 21.6884C14.338 23.5739 15.6506 25.1266 17.2404 25.9482C17.3129 25.9856 17.3863 26.0195 17.4598 26.053C17.5857 26.1087 17.7132 26.1609 17.8421 26.2093C18.3872 26.4023 18.9582 26.5124 19.536 26.536C26.024 26.8403 27.281 18.7797 22.5988 16.4389C23.7979 16.2304 25.0425 16.7126 25.7376 17.2009C24.5994 15.2122 22.474 13.8705 20.0339 13.8705C19.8795 13.8705 19.7283 13.8833 19.5766 13.8938C18.2708 13.9836 17.0223 14.4647 15.9939 15.2744C16.1924 15.4423 16.4164 15.6668 16.8884 16.1317C17.7714 17.002 20.0371 17.9032 20.0419 18.009Z" fill="url(#paint5_radial_15394_14109)"/>
<path d="M15.3867 14.8415C15.4774 14.9 15.5673 14.9596 15.6565 15.0203C15.3598 13.9822 15.3472 12.8836 15.62 11.839C14.2827 12.4479 13.2426 13.4104 12.4865 14.2602C12.549 14.2584 14.4372 14.2245 15.3867 14.8415Z" fill="url(#paint6_radial_15394_14109)"/>
<path d="M7.12061 20.8201C8.12502 26.7556 13.5056 31.2873 19.6131 31.4602C25.2659 31.6202 28.8775 28.3392 30.3692 25.1381C31.3334 23.069 32.0025 19.6836 30.7743 16.3537L30.7739 16.3523L30.7721 16.3397C30.7708 16.3301 30.77 16.3243 30.7702 16.3275C30.7702 16.3296 30.771 16.3348 30.7727 16.3491C31.2345 19.3641 29.7008 22.2849 27.3033 24.2598L27.2961 24.2767C22.6246 28.0805 18.1543 26.5717 17.2492 25.9541C17.1855 25.9234 17.1223 25.892 17.0596 25.8596C14.336 24.5581 13.2109 22.0768 13.4521 19.9488C11.1524 19.9488 10.3682 18.0092 10.3682 18.0092C10.3682 18.0092 12.433 16.537 15.1542 17.8174C17.6746 19.0032 20.0415 18.0093 20.0418 18.0092C20.037 17.9034 17.7713 17.0022 16.8881 16.132C16.4161 15.667 16.1921 15.4428 15.9936 15.2746C15.8859 15.1837 15.7734 15.0987 15.6564 15.0201C15.5671 14.9595 15.4772 14.8999 15.3866 14.8413C14.4372 14.2242 12.5489 14.2582 12.4864 14.2598H12.4804C11.9643 13.6062 12.0007 11.4501 12.0301 10.9999C12.024 10.972 11.6452 11.1965 11.5956 11.2304C11.1402 11.5554 10.7145 11.9201 10.3234 12.3202C9.87838 12.7716 9.47177 13.2593 9.10781 13.7783C9.10781 13.7789 9.10743 13.7797 9.10722 13.7804C9.10722 13.7796 9.10759 13.7789 9.10781 13.7783C8.27075 14.9645 7.67708 16.3048 7.36111 17.7219C7.35488 17.7501 6.89257 19.7716 7.12061 20.8201Z" fill="url(#paint7_radial_15394_14109)"/>
<path d="M24.6099 15.6837C25.0849 16.1499 25.4917 16.6808 25.8184 17.2606C25.8901 17.3145 25.957 17.3681 26.0138 17.4205C28.9649 20.1397 27.4187 23.9855 27.3034 24.2595C29.7008 22.2846 31.2345 19.3638 30.7728 16.3489C29.3008 12.6801 26.8049 11.2007 24.7668 7.97955C24.6638 7.81667 24.5607 7.65336 24.4601 7.48122C24.4089 7.39331 24.3611 7.30347 24.3168 7.2119C24.2321 7.04842 24.1668 6.87562 24.1222 6.697C24.1225 6.68854 24.1196 6.68028 24.1142 6.67382C24.1087 6.66737 24.101 6.66319 24.0926 6.66212C24.0846 6.65983 24.0762 6.65983 24.0682 6.66212C24.0663 6.66277 24.0636 6.66488 24.0617 6.66564C24.0588 6.66678 24.0552 6.66938 24.0521 6.67105C23.5489 6.9109 20.5635 11.6378 24.6099 15.6837Z" fill="url(#paint8_radial_15394_14109)"/>
<path d="M26.0138 17.4205C25.957 17.3681 25.89 17.3144 25.8184 17.2606C25.7919 17.2407 25.7659 17.2208 25.7375 17.201C25.0424 16.7127 23.7978 16.2305 22.5987 16.439C27.2809 18.7798 26.0239 26.8404 19.5359 26.5361C18.9581 26.5125 18.3872 26.4024 17.8421 26.2094C17.7132 26.1609 17.5857 26.1088 17.4597 26.0531C17.3863 26.0196 17.3129 25.9857 17.2403 25.9483C17.2429 25.95 17.2465 25.952 17.2492 25.9537C18.1543 26.5712 22.6246 28.0801 27.2961 24.2764L27.3033 24.2594C27.4187 23.9856 28.9649 20.1397 26.0138 17.4205Z" fill="url(#paint9_radial_15394_14109)"/>
<path d="M14.1739 21.6886C14.1739 21.6886 14.7748 19.4496 18.4765 19.4496C18.8766 19.4496 20.0207 18.333 20.0419 18.0092C20.063 17.6854 17.6748 19.0033 15.1543 17.8174C12.433 16.537 10.3683 18.0092 10.3683 18.0092C10.3683 18.0092 11.1524 19.9488 13.4522 19.9488C13.211 22.0768 14.3361 24.5584 17.0596 25.8597C17.1205 25.8888 17.1777 25.9206 17.2402 25.9484C15.6506 25.1268 14.3379 23.5741 14.1739 21.6886Z" fill="url(#paint10_radial_15394_14109)"/>
<path d="M32.0634 15.671C31.4977 14.3102 30.3518 12.841 29.452 12.3766C30.1843 13.8123 30.6082 15.2524 30.7701 16.3273C30.7701 16.3294 30.7709 16.3346 30.7727 16.3489C29.3007 12.6801 26.8048 11.2007 24.7667 7.97955C24.6637 7.81667 24.5606 7.65336 24.46 7.48122C24.4088 7.39331 24.361 7.30347 24.3167 7.2119C24.232 7.04842 24.1667 6.87562 24.1221 6.697C24.1224 6.68854 24.1195 6.68028 24.1141 6.67382C24.1086 6.66737 24.1009 6.66319 24.0925 6.66212C24.0845 6.65983 24.0761 6.65983 24.0681 6.66212C24.0662 6.66277 24.0635 6.66488 24.0616 6.66564C24.0587 6.66678 24.0551 6.66938 24.052 6.67105C24.0535 6.6691 24.0565 6.66472 24.0575 6.66369C20.7874 8.57879 19.6781 12.1215 19.5762 13.894C19.7278 13.8835 19.8791 13.8708 20.0335 13.8708C22.4738 13.8708 24.5992 15.2125 25.7372 17.2011C25.0421 16.7129 23.7975 16.2306 22.5984 16.4392C27.2806 18.7799 26.0236 26.8405 19.5356 26.5362C18.9578 26.5126 18.3868 26.4025 17.8417 26.2095C17.7128 26.161 17.5853 26.1089 17.4594 26.0532C17.3859 26.0197 17.3125 25.9859 17.24 25.9484C17.2426 25.9502 17.2462 25.9522 17.2488 25.9538C17.1852 25.9232 17.122 25.8917 17.0592 25.8594C17.1201 25.8885 17.1773 25.9203 17.2398 25.9482C15.65 25.1266 14.3374 23.5739 14.1734 21.6884C14.1734 21.6884 14.7743 19.4494 18.476 19.4494C18.8761 19.4494 20.0202 18.3328 20.0414 18.009C20.0365 17.9032 17.7709 17.002 16.8876 16.1318C16.4157 15.6668 16.1916 15.4426 15.9931 15.2744C15.8855 15.1835 15.7729 15.0985 15.656 15.0199C15.3592 13.9818 15.3466 12.8832 15.6194 11.8386C14.2822 12.4475 13.2421 13.4099 12.4859 14.2598H12.4799C11.9639 13.6062 12.0003 11.45 12.0297 10.9999C12.0235 10.972 11.6447 11.1965 11.5951 11.2303C11.1397 11.5554 10.714 11.9201 10.323 12.3202C9.87807 12.7715 9.47159 13.2592 9.10774 13.7781C9.10774 13.7787 9.10736 13.7795 9.10715 13.7802C9.10715 13.7795 9.10753 13.7787 9.10774 13.7781C8.27068 14.9643 7.67701 16.3047 7.36104 17.7217C7.35481 17.7499 7.34956 17.7791 7.34349 17.8076C7.31901 17.9222 7.20884 18.5038 7.19345 18.6285C7.19226 18.6381 7.19459 18.619 7.19345 18.6285C7.09298 19.2295 7.02888 19.836 7.00149 20.4447C7.00149 20.4669 7.00013 20.4889 7.00013 20.5112C7.00013 27.6995 12.8284 33.5268 20.0176 33.5268C26.4561 33.5268 31.802 28.8529 32.8486 22.7136C32.8706 22.547 32.8883 22.3795 32.9077 22.2114C33.1665 19.9792 32.879 17.633 32.0634 15.671ZM30.7721 16.3395C30.7727 16.3441 30.7735 16.3489 30.7742 16.3535L30.7738 16.3521L30.7721 16.3395Z" fill="url(#paint11_linear_15394_14109)"/>
<defs>
<linearGradient id="paint0_linear_15394_14109" x1="29.685" y1="10.8247" x2="8.78295" y2="30.9877" gradientUnits="userSpaceOnUse">
<stop offset="0.05" stop-color="#FFF44F" style="stop-color:#FFF44F;stop-color:color(display-p3 1.0000 0.9569 0.3098);stop-opacity:1;"/>
<stop offset="0.37" stop-color="#FF980E" style="stop-color:#FF980E;stop-color:color(display-p3 1.0000 0.5961 0.0549);stop-opacity:1;"/>
<stop offset="0.53" stop-color="#FF3647" style="stop-color:#FF3647;stop-color:color(display-p3 1.0000 0.2118 0.2784);stop-opacity:1;"/>
<stop offset="0.7" stop-color="#E31587" style="stop-color:#E31587;stop-color:color(display-p3 0.8902 0.0824 0.5294);stop-opacity:1;"/>
</linearGradient>
<radialGradient id="paint1_radial_15394_14109" cx="0" cy="0" r="1" gradientUnits="userSpaceOnUse" gradientTransform="translate(25.0156 9.65532) scale(26.6239 27.0722)">
<stop offset="0.13" stop-color="#FFBD4F" style="stop-color:#FFBD4F;stop-color:color(display-p3 1.0000 0.7412 0.3098);stop-opacity:1;"/>
<stop offset="0.28" stop-color="#FF980E" style="stop-color:#FF980E;stop-color:color(display-p3 1.0000 0.5961 0.0549);stop-opacity:1;"/>
<stop offset="0.47" stop-color="#FF3750" style="stop-color:#FF3750;stop-color:color(display-p3 1.0000 0.2157 0.3137);stop-opacity:1;"/>
<stop offset="0.78" stop-color="#EB0878" style="stop-color:#EB0878;stop-color:color(display-p3 0.9216 0.0314 0.4706);stop-opacity:1;"/>
<stop offset="0.86" stop-color="#E50080" style="stop-color:#E50080;stop-color:color(display-p3 0.8980 0.0000 0.5020);stop-opacity:1;"/>
</radialGradient>
<radialGradient id="paint2_radial_15394_14109" cx="0" cy="0" r="1" gradientUnits="userSpaceOnUse" gradientTransform="translate(17.2956 20.8368) scale(27.2895 27.0722)">
<stop offset="0.3" stop-color="#960E18" style="stop-color:#960E18;stop-color:color(display-p3 0.5882 0.0549 0.0941);stop-opacity:1;"/>
<stop offset="0.35" stop-color="#B11927" stop-opacity="0.74" style="stop-color:#B11927;stop-color:color(display-p3 0.6941 0.0980 0.1529);stop-opacity:0.74;"/>
<stop offset="0.43" stop-color="#DB293D" stop-opacity="0.34" style="stop-color:#DB293D;stop-color:color(display-p3 0.8588 0.1608 0.2392);stop-opacity:0.34;"/>
<stop offset="0.5" stop-color="#F5334B" stop-opacity="0.09" style="stop-color:#F5334B;stop-color:color(display-p3 0.9608 0.2000 0.2941);stop-opacity:0.09;"/>
<stop offset="0.53" stop-color="#FF3750" stop-opacity="0" style="stop-color:none;stop-opacity:0;"/>
</radialGradient>
<radialGradient id="paint3_radial_15394_14109" cx="0" cy="0" r="1" gradientUnits="userSpaceOnUse" gradientTransform="translate(22.5726 5.39179) scale(8.73866 14.8361)">
<stop offset="0.13" stop-color="#FFF44F" style="stop-color:#FFF44F;stop-color:color(display-p3 1.0000 0.9569 0.3098);stop-opacity:1;"/>
<stop offset="0.53" stop-color="#FF980E" style="stop-color:#FF980E;stop-color:color(display-p3 1.0000 0.5961 0.0549);stop-opacity:1;"/>
</radialGradient>
<radialGradient id="paint4_radial_15394_14109" cx="0" cy="0" r="1" gradientUnits="userSpaceOnUse" gradientTransform="translate(16.8059 27.8257) scale(11.5636 12.6738)">
<stop offset="0.35" stop-color="#3A8EE6" style="stop-color:#3A8EE6;stop-color:color(display-p3 0.2275 0.5569 0.9020);stop-opacity:1;"/>
<stop offset="0.67" stop-color="#9059FF" style="stop-color:#9059FF;stop-color:color(display-p3 0.5647 0.3490 1.0000);stop-opacity:1;"/>
<stop offset="1" stop-color="#C139E6" style="stop-color:#C139E6;stop-color:color(display-p3 0.7569 0.2235 0.9020);stop-opacity:1;"/>
</radialGradient>
<radialGradient id="paint5_radial_15394_14109" cx="0" cy="0" r="1" gradientUnits="userSpaceOnUse" gradientTransform="translate(18.7817 18.0529) scale(6.14026 7.47755)">
<stop offset="0.21" stop-color="#9059FF" stop-opacity="0" style="stop-color:none;stop-opacity:0;"/>
<stop offset="0.97" stop-color="#6E008B" stop-opacity="0.6" style="stop-color:#6E008B;stop-color:color(display-p3 0.4314 0.0000 0.5451);stop-opacity:0.6;"/>
</radialGradient>
<radialGradient id="paint6_radial_15394_14109" cx="0" cy="0" r="1" gradientUnits="userSpaceOnUse" gradientTransform="translate(19.1435 8.6577) scale(9.19307 9.22575)">
<stop offset="0.1" stop-color="#FFE226" style="stop-color:#FFE226;stop-color:color(display-p3 1.0000 0.8863 0.1490);stop-opacity:1;"/>
<stop offset="0.79" stop-color="#FF7139" style="stop-color:#FF7139;stop-color:color(display-p3 1.0000 0.4431 0.2235);stop-opacity:1;"/>
</radialGradient>
<radialGradient id="paint7_radial_15394_14109" cx="0" cy="0" r="1" gradientUnits="userSpaceOnUse" gradientTransform="translate(27.5393 2.60548) scale(43.8897 36.843)">
<stop offset="0.11" stop-color="#FFF44F" style="stop-color:#FFF44F;stop-color:color(display-p3 1.0000 0.9569 0.3098);stop-opacity:1;"/>
<stop offset="0.46" stop-color="#FF980E" style="stop-color:#FF980E;stop-color:color(display-p3 1.0000 0.5961 0.0549);stop-opacity:1;"/>
<stop offset="0.72" stop-color="#FF3647" style="stop-color:#FF3647;stop-color:color(display-p3 1.0000 0.2118 0.2784);stop-opacity:1;"/>
<stop offset="0.9" stop-color="#E31587" style="stop-color:#E31587;stop-color:color(display-p3 0.8902 0.0824 0.5294);stop-opacity:1;"/>
</radialGradient>
<radialGradient id="paint8_radial_15394_14109" cx="0" cy="0" r="1" gradientTransform="matrix(3.03887 13.5891 -61.0495 3.01578 11.2396 14.7723)" gradientUnits="userSpaceOnUse">
<stop stop-color="#FFF44F" style="stop-color:#FFF44F;stop-color:color(display-p3 1.0000 0.9569 0.3098);stop-opacity:1;"/>
<stop offset="0.3" stop-color="#FF980E" style="stop-color:#FF980E;stop-color:color(display-p3 1.0000 0.5961 0.0549);stop-opacity:1;"/>
<stop offset="0.57" stop-color="#FF3647" style="stop-color:#FF3647;stop-color:color(display-p3 1.0000 0.2118 0.2784);stop-opacity:1;"/>
<stop offset="0.74" stop-color="#E31587" style="stop-color:#E31587;stop-color:color(display-p3 0.8902 0.0824 0.5294);stop-opacity:1;"/>
</radialGradient>
<radialGradient id="paint9_radial_15394_14109" cx="0" cy="0" r="1" gradientUnits="userSpaceOnUse" gradientTransform="translate(19.2381 11.9758) scale(25.1991 24.7564)">
<stop offset="0.14" stop-color="#FFF44F" style="stop-color:#FFF44F;stop-color:color(display-p3 1.0000 0.9569 0.3098);stop-opacity:1;"/>
<stop offset="0.48" stop-color="#FF980E" style="stop-color:#FF980E;stop-color:color(display-p3 1.0000 0.5961 0.0549);stop-opacity:1;"/>
<stop offset="0.66" stop-color="#FF3647" style="stop-color:#FF3647;stop-color:color(display-p3 1.0000 0.2118 0.2784);stop-opacity:1;"/>
<stop offset="0.9" stop-color="#E31587" style="stop-color:#E31587;stop-color:color(display-p3 0.8902 0.0824 0.5294);stop-opacity:1;"/>
</radialGradient>
<radialGradient id="paint10_radial_15394_14109" cx="0" cy="0" r="1" gradientUnits="userSpaceOnUse" gradientTransform="translate(25.7785 13.4239) scale(30.2885 27.0967)">
<stop offset="0.09" stop-color="#FFF44F" style="stop-color:#FFF44F;stop-color:color(display-p3 1.0000 0.9569 0.3098);stop-opacity:1;"/>
<stop offset="0.63" stop-color="#FF980E" style="stop-color:#FF980E;stop-color:color(display-p3 1.0000 0.5961 0.0549);stop-opacity:1;"/>
</radialGradient>
<linearGradient id="paint11_linear_15394_14109" x1="27.8" y1="10.4217" x2="11.0856" y2="28.6841" gradientUnits="userSpaceOnUse">
<stop offset="0.17" stop-color="#FFF44F" stop-opacity="0.8" style="stop-color:#FFF44F;stop-color:color(display-p3 1.0000 0.9569 0.3098);stop-opacity:0.8;"/>
<stop offset="0.6" stop-color="#FFF44F" stop-opacity="0" style="stop-color:none;stop-opacity:0;"/>
</linearGradient>
</defs>
</svg>
