<svg width="40" height="40" viewBox="0 0 40 40" fill="none" xmlns="http://www.w3.org/2000/svg">
<rect width="40" height="40" fill="black" style="fill:black;fill-opacity:1;"/>
<path d="M9.73958 19.7301H10.5729V20.5697H9.73958V19.7301Z" fill="white" style="fill:white;fill-opacity:1;"/>
<path d="M12.6562 15.952H14.3229V17.6312H12.6562V15.952Z" fill="white" style="fill:white;fill-opacity:1;"/>
<path d="M12.6562 22.6687H14.3229V24.3478H12.6562V22.6687Z" fill="white" style="fill:white;fill-opacity:1;"/>
<path d="M15.434 12.034H18.2118V14.8326H15.434V12.034Z" fill="white" style="fill:white;fill-opacity:1;"/>
<path d="M15.9896 19.3103H17.6562V20.9895H15.9896V19.3103Z" fill="white" style="fill:white;fill-opacity:1;"/>
<path d="M15.434 25.4673H18.2118V28.2659H15.434V25.4673Z" fill="white" style="fill:white;fill-opacity:1;"/>
<path d="M18.7674 15.3923H21.5451V18.1909H18.7674V15.3923Z" fill="white" style="fill:white;fill-opacity:1;"/>
<path d="M18.7674 22.1089H21.5451V24.9075H18.7674V22.1089Z" fill="white" style="fill:white;fill-opacity:1;"/>
<path d="M21.8229 11.7541H25.1562V15.1124H21.8229V11.7541Z" fill="white" style="fill:white;fill-opacity:1;"/>
<path d="M22.1007 18.7506H24.8785V21.5492H22.1007V18.7506Z" fill="white" style="fill:white;fill-opacity:1;"/>
<path d="M21.8229 25.1874H25.1562V28.5457H21.8229V25.1874Z" fill="white" style="fill:white;fill-opacity:1;"/>
<path d="M25.1562 15.1124H28.4896V18.4708H25.1562L25.1562 15.1124Z" fill="white" style="fill:white;fill-opacity:1;"/>
<path d="M25.1562 21.8291H28.4896V25.1874H25.1562L25.1562 21.8291Z" fill="white" style="fill:white;fill-opacity:1;"/>
<path d="M28.4896 18.4708H31.8229V21.8291L28.4896 21.8291V18.4708Z" fill="white" style="fill:white;fill-opacity:1;"/>
</svg>
