<svg width="40" height="40" viewBox="0 0 40 40" fill="none" xmlns="http://www.w3.org/2000/svg">
<path d="M7.6875 19.5H8.6875V20.5H7.6875V19.5Z" fill="black" fill-opacity="0.87" style="fill:black;fill-opacity:0.87;"/>
<path d="M11.1875 15H13.1875V17H11.1875V15Z" fill="black" fill-opacity="0.87" style="fill:black;fill-opacity:0.87;"/>
<path d="M11.1875 23H13.1875V25H11.1875V23Z" fill="black" fill-opacity="0.87" style="fill:black;fill-opacity:0.87;"/>
<path d="M14.5208 10.3333H17.8542V13.6667H14.5208V10.3333Z" fill="black" fill-opacity="0.87" style="fill:black;fill-opacity:0.87;"/>
<path d="M15.1875 19H17.1875V21H15.1875V19Z" fill="black" fill-opacity="0.87" style="fill:black;fill-opacity:0.87;"/>
<path d="M14.5208 26.3333H17.8542V29.6667H14.5208V26.3333Z" fill="black" fill-opacity="0.87" style="fill:black;fill-opacity:0.87;"/>
<path d="M18.5208 14.3333H21.8542V17.6667H18.5208V14.3333Z" fill="black" fill-opacity="0.87" style="fill:black;fill-opacity:0.87;"/>
<path d="M18.5208 22.3333H21.8542V25.6667H18.5208V22.3333Z" fill="black" fill-opacity="0.87" style="fill:black;fill-opacity:0.87;"/>
<path d="M22.1875 10H26.1875V14H22.1875V10Z" fill="black" fill-opacity="0.87" style="fill:black;fill-opacity:0.87;"/>
<path d="M22.5208 18.3333H25.8542V21.6667H22.5208V18.3333Z" fill="black" fill-opacity="0.87" style="fill:black;fill-opacity:0.87;"/>
<path d="M22.1875 26H26.1875V30H22.1875V26Z" fill="black" fill-opacity="0.87" style="fill:black;fill-opacity:0.87;"/>
<path d="M26.1875 14H30.1875V18H26.1875L26.1875 14Z" fill="black" fill-opacity="0.87" style="fill:black;fill-opacity:0.87;"/>
<path d="M26.1875 22H30.1875V26H26.1875L26.1875 22Z" fill="black" fill-opacity="0.87" style="fill:black;fill-opacity:0.87;"/>
<path d="M30.1875 18H34.1875V22L30.1875 22L30.1875 18Z" fill="black" fill-opacity="0.87" style="fill:black;fill-opacity:0.87;"/>
</svg>
