<svg width="40" height="40" viewBox="0 0 40 40" fill="none" xmlns="http://www.w3.org/2000/svg">
<path fill-rule="evenodd" clip-rule="evenodd" d="M29.2375 10.9382C29.3218 10.9296 29.4067 10.9289 29.491 10.936C29.6918 10.9539 29.8877 11.016 30.0629 11.1202C30.2611 11.2381 30.4189 11.3996 30.5293 11.5854C30.5614 11.6396 30.59 11.6959 30.6143 11.7538C30.6386 11.8117 30.6586 11.8711 30.6751 11.9318C30.7398 12.1768 30.7364 12.4403 30.6556 12.691C30.6264 12.781 30.5875 12.869 30.5384 12.954C30.3319 13.3119 30.1245 13.6706 29.9168 14.0285C29.6281 14.527 29.3397 15.0257 29.0511 15.5243C28.7559 16.0351 28.4597 16.5451 28.1646 17.0558C28.1589 17.0651 28.1542 17.0751 28.1485 17.0844C28.7927 17.4874 29.4044 17.9382 29.9769 18.4332C30.2412 18.6611 30.4973 18.8991 30.7447 19.1456C31.3341 19.732 31.874 20.3684 32.3574 21.0477C32.7516 21.602 33.1085 22.1851 33.4249 22.7923C33.671 23.2652 33.8928 23.753 34.0875 24.2545C34.3179 24.8467 34.5107 25.4583 34.6641 26.0848C34.7515 26.4434 34.8267 26.8071 34.8871 27.175C34.8971 27.2343 34.9062 27.2936 34.9158 27.3536L34.9139 27.3548C34.9465 27.5685 34.9742 27.7837 34.9976 28.0001H5.73772C5.76119 27.7837 5.78908 27.5685 5.82211 27.3548C5.83124 27.2956 5.84046 27.2356 5.85046 27.1763C5.91175 26.8077 5.98605 26.4447 6.07342 26.086C6.22686 25.4596 6.41998 24.8482 6.65035 24.2561C6.84509 23.7545 7.06658 23.2665 7.31262 22.7936C7.62818 22.1857 7.98553 21.6036 8.38019 21.0493C8.86444 20.3699 9.40418 19.7333 9.9932 19.1468C10.2888 18.8518 10.5974 18.5697 10.9178 18.3003C11.4524 17.851 12.0187 17.4401 12.6143 17.0693C12.6121 17.0651 12.6092 17.0609 12.607 17.0567C12.3119 16.5459 12.016 16.0358 11.7208 15.525C11.4322 15.0264 11.1435 14.5277 10.8545 14.0291C10.648 13.6712 10.4409 13.3125 10.2332 12.9546C10.1841 12.8696 10.1456 12.782 10.116 12.692C10.0356 12.4412 10.032 12.1774 10.0968 11.9324C10.1125 11.8717 10.1336 11.8123 10.1579 11.7545C10.1818 11.6967 10.2105 11.6402 10.2426 11.586C10.3539 11.4003 10.5105 11.2387 10.7087 11.1209C10.8843 11.0159 11.0804 10.9538 11.2812 10.9366C11.3655 10.9295 11.4502 10.9303 11.5341 10.9388C11.6041 10.946 11.6733 10.9588 11.7419 10.9766C11.9862 11.0416 12.2129 11.176 12.3894 11.3703C12.4528 11.4402 12.5099 11.5174 12.5595 11.6024C12.7659 11.9603 12.9733 12.319 13.1811 12.6769C13.4697 13.1755 13.7585 13.6741 14.0471 14.1727C14.3423 14.6835 14.6382 15.1937 14.9333 15.7045C14.9628 15.7566 14.9937 15.8086 15.0237 15.8607C15.1906 15.795 15.3589 15.7323 15.5288 15.673C16.9998 15.1601 18.5766 14.8741 20.2176 14.8577C20.2684 14.857 20.3184 14.857 20.3688 14.857C22.2145 14.857 23.9803 15.197 25.6077 15.8185C25.6525 15.8356 25.6969 15.8535 25.7416 15.8714C25.7737 15.8149 25.8064 15.7592 25.8386 15.7035C26.1337 15.1928 26.4299 14.6828 26.7251 14.1721L27.5908 12.6762C27.7977 12.3183 28.0051 11.9596 28.2124 11.6017C28.2615 11.5168 28.319 11.4396 28.3825 11.3696C28.559 11.1753 28.786 11.041 29.0303 10.976C29.0989 10.9582 29.168 10.9453 29.2375 10.9382ZM14.522 21.3292C13.9365 20.939 13.073 21.2092 12.5922 21.9326C12.1119 22.6562 12.197 23.5593 12.7821 23.9496C13.3676 24.34 14.2319 24.0698 14.7122 23.3463C15.1929 22.6227 15.1075 21.7195 14.522 21.3292ZM28.1687 21.9304C27.6883 21.2068 26.8239 20.9367 26.2388 21.327C25.6535 21.7174 25.5683 22.6202 26.0489 23.3437C26.5293 24.0674 27.3933 24.3375 27.9784 23.9471C28.5639 23.5568 28.6493 22.654 28.1687 21.9304Z" fill="#34A853" style="fill:#34A853;fill:color(display-p3 0.2039 0.6588 0.3255);fill-opacity:1;"/>
</svg>
