<svg width="40" height="40" viewBox="0 0 40 40" fill="none" xmlns="http://www.w3.org/2000/svg">
<path fill-rule="evenodd" clip-rule="evenodd" d="M32.4815 12.2162L20.6515 5.38744C20.4647 5.27957 20.2527 5.22278 20.037 5.22278C19.8212 5.22278 19.6093 5.27957 19.4224 5.38744L7.58872 12.2162C7.43195 12.307 7.30177 12.4374 7.21122 12.5943C7.12066 12.7512 7.0729 12.9292 7.07271 13.1103V26.8862C7.07271 27.2556 7.26975 27.5968 7.58995 27.7815L19.4212 34.6128C19.6081 34.7205 19.82 34.7772 20.0357 34.7772C20.2515 34.7772 20.4634 34.7205 20.6503 34.6128L32.4828 27.7815C32.6399 27.6907 32.7705 27.5602 32.8613 27.4031C32.9521 27.2459 32.9999 27.0677 33 26.8862V13.1116C32.9997 12.9303 32.9517 12.7523 32.861 12.5953C32.7702 12.4384 32.6398 12.3081 32.4828 12.2175L32.4815 12.2162ZM31.7389 13.6645L20.3165 33.4477C20.2389 33.5807 20.0357 33.5266 20.0357 33.3726V20.4182C20.0355 20.2909 20.0019 20.1658 19.9381 20.0556C19.8743 19.9453 19.7827 19.8538 19.6724 19.7901L8.45325 13.3123C8.32147 13.2359 8.37566 13.0315 8.5296 13.0315H31.3744C31.6995 13.0315 31.9015 13.3837 31.7389 13.6645Z" fill="white" style="fill:white;fill-opacity:1;"/>
</svg>
