<svg width="40" height="40" viewBox="0 0 40 40" fill="none" xmlns="http://www.w3.org/2000/svg">
<rect width="40" height="40" fill="black" fill-opacity="0.95" style="fill:black;fill-opacity:0.95;"/>
<path d="M15.9725 24.0432L26.2785 16.3649C26.7838 15.9885 27.5059 16.1353 27.7467 16.7201C29.0138 19.8036 28.4477 23.5093 25.9267 26.0535C23.4058 28.5977 19.8981 29.1557 16.6921 27.8849L13.1897 29.5215C18.2131 32.9868 24.3131 32.1298 28.125 28.2801C31.1485 25.2285 32.085 21.069 31.2093 17.3181L31.2173 17.3261C29.9475 11.8157 31.5295 9.61317 34.7699 5.10929C34.8465 5.00251 34.9233 4.89571 35 4.78625L30.7358 9.0899V9.07655L15.9699 24.0459" fill="white" style="fill:white;fill-opacity:1;"/>
<path d="M13.8458 25.9093C10.2402 22.4333 10.8619 17.0537 13.9383 13.9515C16.2132 11.6555 19.9404 10.7184 23.1941 12.096L26.6885 10.4675C26.059 10.0083 25.2521 9.51439 24.3263 9.16731C20.1415 7.42931 15.1313 8.29431 11.7295 11.7249C8.4573 15.0274 7.42828 20.1053 9.19533 24.4383C10.5153 27.6767 8.35148 29.9673 6.17177 32.2794C5.39935 33.0989 4.62428 33.9186 4 34.7863L13.8431 25.912" fill="white" style="fill:white;fill-opacity:1;"/>
</svg>
