<svg width="40" height="40" viewBox="0 0 40 40" fill="none" xmlns="http://www.w3.org/2000/svg">
<rect width="40" height="40" fill="#FAFAFA" style="fill:#FAFAFA;fill:color(display-p3 0.9800 0.9800 0.9800);fill-opacity:1;"/>
<path d="M30.0712 15.6721C29.9143 15.7945 27.1443 17.364 27.1443 20.8537C27.1443 24.8902 30.669 26.3182 30.7745 26.3536C30.7582 26.4406 30.2145 28.3093 28.9161 30.2133C27.7584 31.8888 26.5492 33.5616 24.7098 33.5616C22.8703 33.5616 22.397 32.4872 20.2735 32.4872C18.2041 32.4872 17.4684 33.5969 15.7858 33.5969C14.1033 33.5969 12.9293 32.0465 11.5795 30.1425C10.016 27.9067 8.75272 24.4333 8.75272 21.1366C8.75272 15.8489 12.1719 13.0446 15.537 13.0446C17.325 13.0446 18.8155 14.2251 19.9381 14.2251C21.0066 14.2251 22.6729 12.9739 24.7071 12.9739C25.478 12.9739 28.248 13.0446 30.0712 15.6721ZM23.7414 10.7353C24.5826 9.73166 25.1777 8.33902 25.1777 6.94638C25.1777 6.75326 25.1615 6.55742 25.1263 6.39966C23.7576 6.45134 22.1292 7.3163 21.1472 8.46142C20.3763 9.3427 19.6567 10.7353 19.6567 12.147C19.6567 12.3592 19.6919 12.5713 19.7081 12.6393C19.7947 12.6557 19.9354 12.6747 20.076 12.6747C21.3041 12.6747 22.8487 11.8478 23.7414 10.7353Z" fill="black" fill-opacity="0.9" style="fill:black;fill-opacity:0.9;"/>
</svg>
