<svg width="40" height="40" viewBox="0 0 40 40" fill="none" xmlns="http://www.w3.org/2000/svg">
<path d="M26.6601 8.49621C27.0764 8.77496 27.1118 9.36135 26.7576 9.71554L23.7155 12.7578C23.4405 13.0328 23.014 13.0762 22.6679 12.8989C21.6446 12.3747 20.4848 12.0789 19.256 12.0789C15.1175 12.0789 11.7626 15.4338 11.7626 19.5722C11.7626 20.801 12.0584 21.9608 12.5827 22.9841C12.76 23.3302 12.7165 23.7567 12.4416 24.0317L9.39931 27.0739C9.04513 27.4281 8.45874 27.3927 8.17999 26.9764C6.76167 24.859 5.93448 22.3122 5.93448 19.5722C5.93448 12.215 11.8987 6.2507 19.256 6.2507C21.996 6.2507 24.5427 7.0779 26.6601 8.49621Z" fill="#BAB1FF" style="fill:#BAB1FF;fill:color(display-p3 0.7294 0.6941 1.0000);fill-opacity:1;"/>
<path d="M23.419 19.5723C23.419 21.8714 21.5551 23.7353 19.256 23.7353C16.9568 23.7353 15.093 21.8714 15.093 19.5723C15.093 17.2731 16.9568 15.4093 19.256 15.4093C21.5551 15.4093 23.419 17.2731 23.419 19.5723Z" fill="#6C47FF" style="fill:#6C47FF;fill:color(display-p3 0.4235 0.2784 1.0000);fill-opacity:1;"/>
<path d="M26.7579 29.429C27.1118 29.7832 27.0764 30.3696 26.6603 30.6482C24.5427 32.0667 21.996 32.8938 19.256 32.8938C16.516 32.8938 13.9692 32.0667 11.8518 30.6482C11.4356 30.3696 11.4001 29.7832 11.7542 29.429L14.7965 26.3867C15.0715 26.1117 15.498 26.0682 15.8441 26.2456C16.8674 26.7699 18.0272 27.0656 19.256 27.0656C20.4848 27.0656 21.6446 26.7699 22.6679 26.2456C23.014 26.0682 23.4405 26.1117 23.7155 26.3867L26.7579 29.429Z" fill="#6C47FF" style="fill:#6C47FF;fill:color(display-p3 0.4235 0.2784 1.0000);fill-opacity:1;"/>
</svg>
