<svg width="24" height="24" viewBox="0 0 24 24" fill="none" xmlns="http://www.w3.org/2000/svg">
<path opacity="0.6" d="M8 17V19.25H10.25V17H8Z" fill="black" fill-opacity="0.45" style="fill:black;fill-opacity:0.45;"/>
<path opacity="0.6" d="M14 17V19.25H16.25V17H14Z" fill="black" fill-opacity="0.45" style="fill:black;fill-opacity:0.45;"/>
<path opacity="0.6" d="M5 14V16.25H7.25V14H5Z" fill="black" fill-opacity="0.45" style="fill:black;fill-opacity:0.45;"/>
<path d="M10.5 13.75V16.75H13.5V13.75H10.5Z" fill="black" fill-opacity="0.45" style="fill:black;fill-opacity:0.45;"/>
<path opacity="0.6" d="M17 14V16.25H19.25V14H17Z" fill="black" fill-opacity="0.45" style="fill:black;fill-opacity:0.45;"/>
<path d="M7.5 10.75V13.75H10.5V10.75H7.5Z" fill="black" fill-opacity="0.45" style="fill:black;fill-opacity:0.45;"/>
<path d="M13.5 10.75V13.75H16.5V10.75H13.5Z" fill="black" fill-opacity="0.45" style="fill:black;fill-opacity:0.45;"/>
<path opacity="0.6" d="M5 8V10.25H7.25V8H5Z" fill="black" fill-opacity="0.45" style="fill:black;fill-opacity:0.45;"/>
<path opacity="0.3" d="M2 11.25V12.75H3.5V11.25H2Z" fill="black" fill-opacity="0.45" style="fill:black;fill-opacity:0.45;"/>
<path opacity="0.3" d="M20 11.25V12.75H21.5V11.25H20Z" fill="black" fill-opacity="0.45" style="fill:black;fill-opacity:0.45;"/>
<path d="M10.5 7.75V10.75H13.5V7.75H10.5Z" fill="black" fill-opacity="0.45" style="fill:black;fill-opacity:0.45;"/>
<path opacity="0.6" d="M17 8V10.25H19.25V8H17Z" fill="black" fill-opacity="0.45" style="fill:black;fill-opacity:0.45;"/>
<path opacity="0.6" d="M8 5V7.25H10.25V5H8Z" fill="black" fill-opacity="0.45" style="fill:black;fill-opacity:0.45;"/>
<path opacity="0.6" d="M14 5V7.25H16.25V5H14Z" fill="black" fill-opacity="0.45" style="fill:black;fill-opacity:0.45;"/>
</svg>
