<svg width="24" height="24" viewBox="0 0 24 24" fill="none" xmlns="http://www.w3.org/2000/svg">
<path opacity="0.4" d="M7.6875 17V19.25H9.9375V17H7.6875Z" fill="#0000C0" fill-opacity="0.64" style="fill:#0000C0;fill:color(display-p3 0.0000 0.0000 0.7529);fill-opacity:0.64;"/>
<path opacity="0.3" d="M14 17.5V19H15.5V17.5H14Z" fill="#0000C0" fill-opacity="0.64" style="fill:#0000C0;fill:color(display-p3 0.0000 0.0000 0.7529);fill-opacity:0.64;"/>
<path opacity="0.7" d="M4.6875 14V16.25H6.9375V14H4.6875Z" fill="#0000C0" fill-opacity="0.64" style="fill:#0000C0;fill:color(display-p3 0.0000 0.0000 0.7529);fill-opacity:0.64;"/>
<path opacity="0.4" d="M10.6875 14V16.25H12.9375V14H10.6875Z" fill="#0000C0" fill-opacity="0.64" style="fill:#0000C0;fill:color(display-p3 0.0000 0.0000 0.7529);fill-opacity:0.64;"/>
<path opacity="0.3" d="M17 14.5V16H18.5V14.5H17Z" fill="#0000C0" fill-opacity="0.64" style="fill:#0000C0;fill:color(display-p3 0.0000 0.0000 0.7529);fill-opacity:0.64;"/>
<path opacity="0.7" d="M7.6875 11V13.25H9.9375V11H7.6875Z" fill="#0000C0" fill-opacity="0.64" style="fill:#0000C0;fill:color(display-p3 0.0000 0.0000 0.7529);fill-opacity:0.64;"/>
<path opacity="0.4" d="M13.75 11V13.25H16V11H13.75Z" fill="#0000C0" fill-opacity="0.64" style="fill:#0000C0;fill:color(display-p3 0.0000 0.0000 0.7529);fill-opacity:0.64;"/>
<path opacity="0.7" d="M4.6875 8V10.25H6.9375V8H4.6875Z" fill="#0000C0" fill-opacity="0.64" style="fill:#0000C0;fill:color(display-p3 0.0000 0.0000 0.7529);fill-opacity:0.64;"/>
<path opacity="0.95" d="M1.4375 10.75L1.4375 13.5H4.1875V10.75H1.4375Z" fill="#0000C0" fill-opacity="0.64" style="fill:#0000C0;fill:color(display-p3 0.0000 0.0000 0.7529);fill-opacity:0.64;"/>
<path opacity="0.3" d="M20 11.5V13H21.5V11.5H20Z" fill="#0000C0" fill-opacity="0.64" style="fill:#0000C0;fill:color(display-p3 0.0000 0.0000 0.7529);fill-opacity:0.64;"/>
<path opacity="0.4" d="M10.6875 8V10.25H12.9375V8H10.6875Z" fill="#0000C0" fill-opacity="0.64" style="fill:#0000C0;fill:color(display-p3 0.0000 0.0000 0.7529);fill-opacity:0.64;"/>
<path opacity="0.3" d="M17 8.5V10H18.5V8.5H17Z" fill="#0000C0" fill-opacity="0.64" style="fill:#0000C0;fill:color(display-p3 0.0000 0.0000 0.7529);fill-opacity:0.64;"/>
<path opacity="0.4" d="M7.6875 5V7.25H9.9375V5H7.6875Z" fill="#0000C0" fill-opacity="0.64" style="fill:#0000C0;fill:color(display-p3 0.0000 0.0000 0.7529);fill-opacity:0.64;"/>
<path opacity="0.3" d="M14 5.5V7H15.5V5.5H14Z" fill="#0000C0" fill-opacity="0.64" style="fill:#0000C0;fill:color(display-p3 0.0000 0.0000 0.7529);fill-opacity:0.64;"/>
</svg>
