<svg width="24" height="24" viewBox="0 0 24 24" fill="none" xmlns="http://www.w3.org/2000/svg">
<path d="M7.3125 16.6875V19.6875H10.3125V16.6875H7.3125Z" fill="#D72400" fill-opacity="0.85" style="fill:#D72400;fill:color(display-p3 0.8431 0.1412 0.0000);fill-opacity:0.85;"/>
<path opacity="0.6" d="M13.6875 17.0625V19.3125H15.9375V17.0625H13.6875Z" fill="#D72400" fill-opacity="0.85" style="fill:#D72400;fill:color(display-p3 0.8431 0.1412 0.0000);fill-opacity:0.85;"/>
<path opacity="0.6" d="M4.6875 14.0625V16.3125H6.9375V14.0625H4.6875Z" fill="#D72400" fill-opacity="0.85" style="fill:#D72400;fill:color(display-p3 0.8431 0.1412 0.0000);fill-opacity:0.85;"/>
<path d="M10.3125 13.6875V16.6875H13.3125V13.6875H10.3125Z" fill="#D72400" fill-opacity="0.85" style="fill:#D72400;fill:color(display-p3 0.8431 0.1412 0.0000);fill-opacity:0.85;"/>
<path opacity="0.6" d="M16.6875 14.0625V16.3125H18.9375V14.0625H16.6875Z" fill="#D72400" fill-opacity="0.85" style="fill:#D72400;fill:color(display-p3 0.8431 0.1412 0.0000);fill-opacity:0.85;"/>
<path opacity="0.6" d="M7.6875 11.0625V13.3125H9.9375V11.0625H7.6875Z" fill="#D72400" fill-opacity="0.85" style="fill:#D72400;fill:color(display-p3 0.8431 0.1412 0.0000);fill-opacity:0.85;"/>
<path d="M13.3125 10.6875V13.6875H16.3125V10.6875H13.3125Z" fill="#D72400" fill-opacity="0.85" style="fill:#D72400;fill:color(display-p3 0.8431 0.1412 0.0000);fill-opacity:0.85;"/>
<path opacity="0.6" d="M4.6875 8.0625V10.3125H6.9375V8.0625H4.6875Z" fill="#D72400" fill-opacity="0.85" style="fill:#D72400;fill:color(display-p3 0.8431 0.1412 0.0000);fill-opacity:0.85;"/>
<path opacity="0.3" d="M2.0625 11.4375V12.9375H3.5625V11.4375H2.0625Z" fill="#D72400" fill-opacity="0.85" style="fill:#D72400;fill:color(display-p3 0.8431 0.1412 0.0000);fill-opacity:0.85;"/>
<path opacity="0.6" d="M19.6875 11.0625V13.3125H21.9375V11.0625H19.6875Z" fill="#D72400" fill-opacity="0.85" style="fill:#D72400;fill:color(display-p3 0.8431 0.1412 0.0000);fill-opacity:0.85;"/>
<path d="M10.3125 7.6875V10.6875H13.3125V7.6875H10.3125Z" fill="#D72400" fill-opacity="0.85" style="fill:#D72400;fill:color(display-p3 0.8431 0.1412 0.0000);fill-opacity:0.85;"/>
<path opacity="0.6" d="M16.6875 8.0625V10.3125H18.9375V8.0625H16.6875Z" fill="#D72400" fill-opacity="0.85" style="fill:#D72400;fill:color(display-p3 0.8431 0.1412 0.0000);fill-opacity:0.85;"/>
<path d="M7.3125 4.6875V7.6875H10.3125V4.6875H7.3125Z" fill="#D72400" fill-opacity="0.85" style="fill:#D72400;fill:color(display-p3 0.8431 0.1412 0.0000);fill-opacity:0.85;"/>
<path opacity="0.6" d="M13.6875 5.0625V7.3125H15.9375V5.0625H13.6875Z" fill="#D72400" fill-opacity="0.85" style="fill:#D72400;fill:color(display-p3 0.8431 0.1412 0.0000);fill-opacity:0.85;"/>
</svg>
