<svg width="24" height="24" viewBox="0 0 24 24" fill="none" xmlns="http://www.w3.org/2000/svg">
<path d="M7.3125 16.25V19.25H10.3125V16.25H7.3125Z" fill="#008647" fill-opacity="0.83" style="fill:#008647;fill:color(display-p3 0.0000 0.5255 0.2784);fill-opacity:0.83;"/>
<path opacity="0.3" d="M14.0625 17V18.5H15.5625V17H14.0625Z" fill="#008647" fill-opacity="0.83" style="fill:#008647;fill:color(display-p3 0.0000 0.5255 0.2784);fill-opacity:0.83;"/>
<path opacity="0.3" d="M14.0625 17V18.5H15.5625V17H14.0625Z" fill="#008647" fill-opacity="0.83" style="fill:#008647;fill:color(display-p3 0.0000 0.5255 0.2784);fill-opacity:0.83;"/>
<path d="M4.3125 13.25V16.25H7.3125V13.25H4.3125Z" fill="#008647" fill-opacity="0.83" style="fill:#008647;fill:color(display-p3 0.0000 0.5255 0.2784);fill-opacity:0.83;"/>
<path d="M10.3125 13.25V16.25H13.3125V13.25H10.3125Z" fill="#008647" fill-opacity="0.83" style="fill:#008647;fill:color(display-p3 0.0000 0.5255 0.2784);fill-opacity:0.83;"/>
<path opacity="0.3" d="M17.0625 14V15.5H18.5625V14H17.0625Z" fill="#008647" fill-opacity="0.83" style="fill:#008647;fill:color(display-p3 0.0000 0.5255 0.2784);fill-opacity:0.83;"/>
<path opacity="0.3" d="M8.0625 11V12.5H9.5625V11H8.0625Z" fill="#008647" fill-opacity="0.83" style="fill:#008647;fill:color(display-p3 0.0000 0.5255 0.2784);fill-opacity:0.83;"/>
<path d="M13.3125 10.25V13.25H16.3125V10.25H13.3125Z" fill="#008647" fill-opacity="0.83" style="fill:#008647;fill:color(display-p3 0.0000 0.5255 0.2784);fill-opacity:0.83;"/>
<path opacity="0.3" d="M5.0625 8V9.5H6.5625V8H5.0625Z" fill="#008647" fill-opacity="0.83" style="fill:#008647;fill:color(display-p3 0.0000 0.5255 0.2784);fill-opacity:0.83;"/>
<path opacity="0.3" d="M2.0625 11V12.5H3.5625V11H2.0625Z" fill="#008647" fill-opacity="0.83" style="fill:#008647;fill:color(display-p3 0.0000 0.5255 0.2784);fill-opacity:0.83;"/>
<path opacity="0.3" d="M20.0625 11V12.5H21.5625V11H20.0625Z" fill="#008647" fill-opacity="0.83" style="fill:#008647;fill:color(display-p3 0.0000 0.5255 0.2784);fill-opacity:0.83;"/>
<path opacity="0.3" d="M11.0625 8V9.5H12.5625V8H11.0625Z" fill="#008647" fill-opacity="0.83" style="fill:#008647;fill:color(display-p3 0.0000 0.5255 0.2784);fill-opacity:0.83;"/>
<path d="M16.3125 7.25V10.25H19.3125V7.25H16.3125Z" fill="#008647" fill-opacity="0.83" style="fill:#008647;fill:color(display-p3 0.0000 0.5255 0.2784);fill-opacity:0.83;"/>
<path opacity="0.3" d="M8.0625 5V6.5H9.5625V5H8.0625Z" fill="#008647" fill-opacity="0.83" style="fill:#008647;fill:color(display-p3 0.0000 0.5255 0.2784);fill-opacity:0.83;"/>
<path opacity="0.3" d="M14.0625 5V6.5H15.5625V5H14.0625Z" fill="#008647" fill-opacity="0.83" style="fill:#008647;fill:color(display-p3 0.0000 0.5255 0.2784);fill-opacity:0.83;"/>
</svg>
