<svg width="40" height="40" viewBox="0 0 40 40" fill="none" xmlns="http://www.w3.org/2000/svg">
<path d="M13.4117 8.12057L16.6074 13.8859L13.6727 19.1685C13.5321 19.4208 13.4584 19.7048 13.4584 19.9936C13.4584 20.2823 13.5321 20.5663 13.6727 20.8186L16.6074 26.1143L13.4117 31.8797C12.8103 31.5815 12.311 31.1117 11.9769 30.5295L6.88988 21.6925C6.59351 21.1765 6.43755 20.5919 6.43755 19.9968C6.43755 19.4018 6.59351 18.8172 6.88988 18.3012L11.9769 9.46414C12.312 8.88444 12.8113 8.41694 13.4117 8.12057Z" fill="url(#paint0_linear_15897_8047)"/>
<path opacity="0.7" d="M13.6727 19.1751C13.5333 19.4266 13.4602 19.7093 13.4602 19.9968C13.4602 20.2843 13.5333 20.5671 13.6727 20.8186L16.6074 26.1143L13.4117 31.8797C12.8103 31.5815 12.311 31.1117 11.9769 30.5295L6.88987 21.6925C6.48562 20.9947 8.74859 20.1599 13.6727 19.1817V19.1751Z" fill="url(#paint1_linear_15897_8047)"/>
<path opacity="0.5" d="M13.7378 8.70092L16.6074 13.8857L16.1314 14.7139L13.6009 10.4293C12.8705 9.23576 11.7553 9.85526 10.3595 12.2685L10.5682 11.9098L11.9769 9.46414C12.3086 8.88643 12.803 8.41915 13.3986 8.12057L13.7313 8.70092H13.7378Z" fill="url(#paint2_linear_15897_8047)"/>
<path d="M28.0205 9.4639L33.1075 18.301C33.4055 18.8164 33.5625 19.4012 33.5625 19.9966C33.5625 20.592 33.4055 21.1768 33.1075 21.6922L28.0205 30.5293C27.723 31.0445 27.2952 31.4724 26.7801 31.7701C26.265 32.0677 25.6806 32.2246 25.0857 32.2251H19.9987L26.3249 20.8183C26.4643 20.5669 26.5374 20.2841 26.5374 19.9966C26.5374 19.7091 26.4643 19.4263 26.3249 19.1749L19.9987 7.76837H25.0857C25.6806 7.76872 26.265 7.92558 26.7801 8.22319C27.2952 8.5208 27.723 8.94869 28.0205 9.4639Z" fill="url(#paint3_linear_15897_8047)"/>
<path d="M24.825 32.1861L19.8031 32.2316L25.8815 20.7663C26.0174 20.5113 26.0884 20.2269 26.0884 19.938C26.0884 19.6491 26.0174 19.3646 25.8815 19.1097L19.8031 7.76837H20.9509L27.3292 19.0576C27.4804 19.3243 27.5593 19.6258 27.5582 19.9324C27.557 20.239 27.4758 20.5399 27.3227 20.8054C25.95 23.1913 24.5869 25.5827 23.2336 27.9796C21.9943 30.1577 22.5292 31.5598 24.825 32.1861Z" fill="url(#paint4_linear_15897_8047)"/>
<path d="M14.9117 32.2251C14.3899 32.2251 13.8682 32.1012 13.4117 31.8794L19.6857 20.5642C19.7819 20.3905 19.8323 20.1952 19.8323 19.9967C19.8323 19.7982 19.7819 19.6029 19.6857 19.4293L13.4117 8.12056C13.878 7.88955 14.3913 7.76904 14.9117 7.76837H19.9987L26.3249 19.1751C26.4643 19.4266 26.5374 19.7093 26.5374 19.9968C26.5374 20.2843 26.4643 20.5671 26.3249 20.8186L19.9987 32.2253L14.9117 32.2251Z" fill="url(#paint5_linear_15897_8047)"/>
<path opacity="0.6" d="M25.8813 19.4293L19.4118 7.76837H19.9987L26.3249 19.1751C26.4643 19.4266 26.5374 19.7093 26.5374 19.9968C26.5374 20.2843 26.4643 20.5671 26.3249 20.8186L19.9987 32.2253H19.4118L25.8815 20.5642C25.9778 20.3905 26.0282 20.1952 26.0282 19.9967C26.0282 19.7982 25.9776 19.6029 25.8813 19.4293Z" fill="url(#paint6_linear_15897_8047)"/>
<path opacity="0.6" d="M19.6857 19.4293L13.4117 8.12056C13.6073 8.01621 13.8422 7.9379 14.0638 7.87271C15.4465 10.3575 17.4877 14.1272 20.1943 19.1751C20.3336 19.4266 20.4067 19.7093 20.4067 19.9968C20.4067 20.2843 20.3336 20.5671 20.1943 20.8186L13.966 32.0947C13.7442 32.0295 13.6269 31.9838 13.4183 31.886L19.6793 20.5707C19.7755 20.3971 19.826 20.2018 19.826 20.0033C19.826 19.8048 19.7755 19.6095 19.6793 19.4358L19.6857 19.4293Z" fill="url(#paint7_linear_15897_8047)"/>
<defs>
<linearGradient id="paint0_linear_15897_8047" x1="13.0935" y1="30.9083" x2="2.71776" y2="14.1301" gradientUnits="userSpaceOnUse">
<stop stop-color="#EB6F07" style="stop-color:#EB6F07;stop-color:color(display-p3 0.9216 0.4353 0.0275);stop-opacity:1;"/>
<stop offset="1" stop-color="#FAB743" style="stop-color:#FAB743;stop-color:color(display-p3 0.9804 0.7176 0.2627);stop-opacity:1;"/>
</linearGradient>
<linearGradient id="paint1_linear_15897_8047" x1="15.333" y1="29.2224" x2="9.96651" y2="23.7349" gradientUnits="userSpaceOnUse">
<stop stop-color="#D96504" style="stop-color:#D96504;stop-color:color(display-p3 0.8510 0.3961 0.0157);stop-opacity:1;"/>
<stop offset="1" stop-color="#D96504" stop-opacity="0" style="stop-color:none;stop-opacity:0;"/>
</linearGradient>
<linearGradient id="paint2_linear_15897_8047" x1="11.5525" y1="9.58946" x2="14.3867" y2="14.1444" gradientUnits="userSpaceOnUse">
<stop stop-color="#EB6F07" style="stop-color:#EB6F07;stop-color:color(display-p3 0.9216 0.4353 0.0275);stop-opacity:1;"/>
<stop offset="1" stop-color="#EB720A" stop-opacity="0" style="stop-color:none;stop-opacity:0;"/>
</linearGradient>
<linearGradient id="paint3_linear_15897_8047" x1="27.6279" y1="31.8125" x2="18.3464" y2="12.3665" gradientUnits="userSpaceOnUse">
<stop stop-color="#EE6F05" style="stop-color:#EE6F05;stop-color:color(display-p3 0.9333 0.4353 0.0196);stop-opacity:1;"/>
<stop offset="1" stop-color="#FAB743" style="stop-color:#FAB743;stop-color:color(display-p3 0.9804 0.7176 0.2627);stop-opacity:1;"/>
</linearGradient>
<linearGradient id="paint4_linear_15897_8047" x1="17.3063" y1="32.5582" x2="32.2433" y2="28.7752" gradientUnits="userSpaceOnUse">
<stop stop-color="#D96504" stop-opacity="0.8" style="stop-color:#D96504;stop-color:color(display-p3 0.8510 0.3961 0.0157);stop-opacity:0.8;"/>
<stop offset="0.498" stop-color="#D96504" stop-opacity="0.2" style="stop-color:#D96504;stop-color:color(display-p3 0.8510 0.3961 0.0157);stop-opacity:0.2;"/>
<stop offset="1" stop-color="#D96504" stop-opacity="0" style="stop-color:none;stop-opacity:0;"/>
</linearGradient>
<linearGradient id="paint5_linear_15897_8047" x1="20.8395" y1="31.8125" x2="11.2708" y2="12.6779" gradientUnits="userSpaceOnUse">
<stop stop-color="#FFA95F" style="stop-color:#FFA95F;stop-color:color(display-p3 1.0000 0.6627 0.3725);stop-opacity:1;"/>
<stop offset="1" stop-color="#FFEBC8" style="stop-color:#FFEBC8;stop-color:color(display-p3 1.0000 0.9216 0.7843);stop-opacity:1;"/>
</linearGradient>
<linearGradient id="paint6_linear_15897_8047" x1="18.4852" y1="17.6211" x2="26.4252" y2="18.8654" gradientUnits="userSpaceOnUse">
<stop stop-color="white" stop-opacity="0.5" style="stop-color:white;stop-opacity:0.5;"/>
<stop offset="1" stop-color="white" stop-opacity="0.1" style="stop-color:white;stop-opacity:0.1;"/>
</linearGradient>
<linearGradient id="paint7_linear_15897_8047" x1="11.1978" y1="24.5236" x2="21.0099" y2="23.0775" gradientUnits="userSpaceOnUse">
<stop stop-color="white" stop-opacity="0.5" style="stop-color:white;stop-opacity:0.5;"/>
<stop offset="1" stop-color="white" stop-opacity="0.1" style="stop-color:white;stop-opacity:0.1;"/>
</linearGradient>
</defs>
</svg>
