<svg width="40" height="40" viewBox="0 0 40 40" fill="none" xmlns="http://www.w3.org/2000/svg">
<path d="M21.2558 33.424C20.8656 33.9205 20.0678 33.6444 20.0678 33.0135V26.9552C20.0678 26.2204 19.4724 25.6252 18.7377 25.6252H12.0486C11.5077 25.6252 11.1923 25.0134 11.5077 24.5738L15.9054 18.4166C16.5351 17.5363 15.9054 16.3127 14.8226 16.3127H6.72725C6.18636 16.3127 5.87108 15.7009 6.18636 15.2614L11.8876 7.27891C12.013 7.10411 12.2144 7.00024 12.4285 7.00024H29.4182C29.9591 7.00024 30.2744 7.61204 29.9591 8.05157L25.5612 14.2088C24.9317 15.0891 25.5612 16.3127 26.6442 16.3127H33.3335C33.8881 16.3127 34.1998 16.9524 33.8566 17.3894L21.2558 33.424Z" fill="white" style="fill:white;fill-opacity:1;"/>
</svg>
