<svg width="40" height="40" viewBox="0 0 40 40" fill="none" xmlns="http://www.w3.org/2000/svg">
<rect width="40" height="40" fill="white" style="fill:white;fill-opacity:1;"/>
<g clip-path="url(#clip0_14148_4025)">
<g opacity="0.53" filter="url(#filter0_f_14148_4025)">
<path d="M32.774 21.1517C32.774 22.7622 32.4445 24.3569 31.8045 25.8448C31.1645 27.3327 30.2264 28.6846 29.0438 29.8234C27.8612 30.9622 26.4573 31.8655 24.9121 32.4818C23.367 33.0981 21.7109 33.4153 20.0384 33.4153C18.366 33.4153 16.7099 33.0981 15.1648 32.4818C13.6196 31.8655 12.2157 30.9622 11.0331 29.8234C9.85046 28.6846 8.91237 27.3327 8.27235 25.8448C7.63233 24.3569 7.30291 22.7622 7.30291 21.1517C7.30291 17.8992 8.64469 14.78 11.0331 12.4801C13.4214 10.1802 16.6608 8.88818 20.0384 8.88818C21.7109 8.88818 23.367 9.20539 24.9121 9.82169C26.4573 10.438 27.8612 11.3413 29.0438 12.4801C30.2264 13.6189 31.1645 14.9708 31.8045 16.4587C32.4445 17.9466 32.774 19.5413 32.774 21.1517Z" fill="black" style="fill:black;fill-opacity:1;"/>
</g>
<path d="M33.2582 20.069C33.2582 21.8051 32.9162 23.5243 32.2518 25.1282C31.5874 26.7322 30.6136 28.1896 29.386 29.4172C28.1584 30.6449 26.701 31.6187 25.097 32.2831C23.493 32.9474 21.7739 33.2894 20.0378 33.2894C16.5315 33.2894 13.1689 31.8965 10.6896 29.4172C8.21028 26.9379 6.81742 23.5753 6.81742 20.069C6.81742 16.5628 8.21028 13.2001 10.6896 10.7208C13.1689 8.24149 16.5315 6.84863 20.0378 6.84863C21.7739 6.84863 23.493 7.19059 25.097 7.85498C26.701 8.51936 28.1584 9.49317 29.386 10.7208C30.6136 11.9484 31.5874 13.4058 32.2518 15.0098C32.9162 16.6138 33.2582 18.3329 33.2582 20.069Z" fill="url(#paint0_linear_14148_4025)" stroke="#CDCDCD" style="stroke:#CDCDCD;stroke:color(display-p3 0.8039 0.8039 0.8039);stroke-opacity:1;" stroke-width="0.0392546" stroke-linecap="round" stroke-linejoin="round"/>
<path d="M32.2222 20.069C32.2222 23.3005 30.9385 26.3996 28.6535 28.6847C26.3685 30.9697 23.2693 32.2534 20.0378 32.2534C16.8063 32.2534 13.7071 30.9697 11.4221 28.6847C9.13707 26.3996 7.85336 23.3005 7.85336 20.069C7.85336 16.8374 9.13707 13.7383 11.4221 11.4533C13.7071 9.16824 16.8063 7.88452 20.0378 7.88452C23.2693 7.88452 26.3685 9.16824 28.6535 11.4533C30.9385 13.7383 32.2222 16.8374 32.2222 20.069Z" fill="url(#paint1_radial_14148_4025)"/>
<path d="M20.0378 8.51978C19.9394 8.51978 19.8601 8.599 19.8601 8.69742V10.7465C19.8601 10.8449 19.9394 10.9241 20.0378 10.9241C20.1362 10.9241 20.2154 10.8449 20.2154 10.7465V8.69742C20.2154 8.599 20.1362 8.51978 20.0378 8.51978ZM18.8756 8.59323C18.8639 8.59196 18.8518 8.59196 18.8395 8.59337C18.7416 8.60359 18.6711 8.69061 18.6813 8.7885L18.7708 9.64574C18.781 9.74362 18.8681 9.8142 18.9659 9.80398C19.0638 9.79377 19.1344 9.70675 19.1242 9.60886L19.0347 8.75163C19.0258 8.66597 18.958 8.60122 18.8756 8.59323ZM21.2081 8.59407C21.1257 8.60201 21.0579 8.66675 21.0489 8.75239L20.9587 9.60955C20.9484 9.70743 21.019 9.79454 21.1169 9.80483C21.2148 9.81513 21.3018 9.74461 21.3121 9.64674L21.4023 8.7895C21.4126 8.69162 21.342 8.60459 21.2441 8.5943C21.2319 8.59303 21.2198 8.59302 21.2081 8.59407ZM17.6818 8.76635C17.67 8.76644 17.658 8.76761 17.646 8.77014C17.5497 8.79053 17.4886 8.88447 17.5089 8.98075L17.9333 10.9853C17.9537 11.0816 18.0476 11.1427 18.1439 11.1224C18.2402 11.102 18.3013 11.0081 18.2809 10.9118L17.8566 8.90715C17.8387 8.8229 17.7646 8.7657 17.6818 8.76635ZM22.4018 8.76803C22.3191 8.76719 22.2449 8.82456 22.227 8.9088L21.8012 10.9132C21.7807 11.0094 21.8418 11.1034 21.938 11.1238C22.0343 11.1443 22.1283 11.0832 22.1487 10.987L22.5745 8.98262C22.595 8.88636 22.5339 8.79239 22.4377 8.77194C22.4257 8.76941 22.4136 8.76803 22.4018 8.76803ZM16.5425 9.08759C16.5195 9.08548 16.4958 9.08801 16.4724 9.09578C16.3788 9.1262 16.3279 9.22597 16.3583 9.31957L16.6246 10.1393C16.6551 10.2329 16.7549 10.2838 16.8485 10.2534C16.9421 10.223 16.9929 10.1231 16.9625 10.0295L16.6962 9.20978C16.6734 9.13958 16.6115 9.09345 16.5425 9.08759ZM23.5347 9.08801C23.4657 9.09388 23.4038 9.14002 23.381 9.21022L23.1145 10.0299C23.0841 10.1235 23.135 10.2233 23.2285 10.2538C23.3221 10.2842 23.422 10.2333 23.4524 10.1398L23.7189 9.32001C23.7493 9.22641 23.6985 9.12656 23.6049 9.09614C23.5815 9.08854 23.5577 9.08607 23.5347 9.08801ZM15.4159 9.49988C15.3928 9.5003 15.3694 9.50536 15.3469 9.51536C15.2571 9.55533 15.2168 9.65989 15.2568 9.74982L16.089 11.6222C16.129 11.7122 16.2335 11.7524 16.3235 11.7124C16.4134 11.6724 16.4537 11.5679 16.4137 11.4779L15.5814 9.60553C15.5514 9.53807 15.4851 9.49853 15.4159 9.49988ZM24.6741 9.50616C24.6048 9.5049 24.5384 9.54419 24.5084 9.61158L23.6736 11.4829C23.6335 11.5727 23.6736 11.6774 23.7635 11.7175C23.8533 11.7576 23.958 11.7175 23.9981 11.6276L24.8328 9.75634C24.8729 9.66646 24.8329 9.56183 24.743 9.52173C24.7205 9.51173 24.6971 9.50667 24.6741 9.50616ZM14.3701 10.0532C14.336 10.0507 14.3009 10.0583 14.2689 10.0767C14.1837 10.126 14.1547 10.2342 14.2039 10.3194L14.6348 11.0659C14.6841 11.1511 14.7923 11.1801 14.8775 11.1309C14.9627 11.0817 14.9917 10.9735 14.9425 10.8882L14.5116 10.1418C14.4808 10.0885 14.4269 10.0572 14.3701 10.0532ZM25.7055 10.0532C25.6486 10.057 25.5949 10.0885 25.5641 10.1418L25.1331 10.8882C25.0839 10.9734 25.1129 11.0817 25.1982 11.1309C25.2834 11.1801 25.3916 11.1511 25.4408 11.0658L25.8718 10.3194C25.921 10.2342 25.892 10.1259 25.8068 10.0767C25.7748 10.0583 25.7396 10.0508 25.7055 10.0532ZM13.3546 10.6866C13.3204 10.6878 13.2862 10.6988 13.2563 10.7205C13.1767 10.7782 13.1591 10.8889 13.2169 10.9686L14.42 12.6271C14.4778 12.7068 14.5885 12.7244 14.6682 12.6666C14.7479 12.6089 14.7655 12.4982 14.7077 12.4185L13.5044 10.76C13.4683 10.7102 13.4116 10.6846 13.3546 10.6866ZM26.7337 10.6956C26.6768 10.6935 26.62 10.719 26.5838 10.7687L25.3783 12.4257C25.3204 12.5053 25.3379 12.616 25.4175 12.6739C25.4971 12.7318 25.6078 12.7144 25.6657 12.6348L26.8711 10.9778C26.929 10.8982 26.9115 10.7876 26.8319 10.7297C26.8021 10.708 26.7679 10.6968 26.7337 10.6956ZM12.4469 11.4478C12.4016 11.4453 12.3553 11.4604 12.3187 11.4933C12.2456 11.5592 12.2397 11.6711 12.3056 11.7442L12.8823 12.3848C12.9481 12.458 13.06 12.4639 13.1331 12.398C13.2063 12.3322 13.2122 12.2202 13.1463 12.1471L12.5697 11.5065C12.5368 11.4699 12.4923 11.4502 12.4469 11.4478ZM27.63 11.4491C27.5846 11.4516 27.5401 11.4712 27.5072 11.5078L26.9305 12.1483C26.8646 12.2214 26.8705 12.3334 26.9436 12.3992C27.0168 12.4651 27.1286 12.4592 27.1945 12.3861L27.7713 11.7456C27.8371 11.6724 27.8312 11.5605 27.7581 11.4946C27.7215 11.4617 27.6753 11.4467 27.63 11.4491ZM11.577 12.2834C11.5316 12.286 11.4872 12.3056 11.4543 12.3422C11.3884 12.4153 11.3943 12.5272 11.4675 12.593L12.9903 13.964C13.0635 14.0298 13.1754 14.0239 13.2412 13.9508C13.3071 13.8776 13.3012 13.7658 13.2281 13.6999L11.7051 12.329C11.6685 12.2961 11.6223 12.2811 11.577 12.2834ZM28.5041 12.2894C28.4588 12.2869 28.4125 12.302 28.3759 12.3349L26.8521 13.7048C26.7789 13.7705 26.7729 13.8824 26.8387 13.9556C26.9044 14.0288 27.0164 14.0348 27.0896 13.969L28.6135 12.5991C28.6867 12.5333 28.6926 12.4214 28.6268 12.3482C28.5939 12.3117 28.5495 12.2919 28.5041 12.2894ZM10.8535 13.2137C10.7966 13.2116 10.7398 13.2372 10.7036 13.287C10.6458 13.3666 10.6633 13.4772 10.743 13.5351L11.4403 14.0417C11.5199 14.0996 11.6305 14.0821 11.6884 14.0025C11.7462 13.9228 11.7287 13.8121 11.6491 13.7543L10.9518 13.2477C10.922 13.226 10.8877 13.2149 10.8535 13.2137ZM29.2269 13.2201C29.1927 13.2214 29.1585 13.2323 29.1286 13.254L28.431 13.7602C28.3513 13.818 28.3337 13.9287 28.3915 14.0084C28.4493 14.0881 28.5599 14.1056 28.6396 14.0478L29.3373 13.5416C29.417 13.4838 29.4345 13.3732 29.3767 13.2935C29.3406 13.2438 29.2838 13.2182 29.2269 13.2201ZM10.1774 14.206C10.1206 14.2098 10.0668 14.2412 10.0361 14.2945C9.98686 14.3797 10.0159 14.488 10.1011 14.5372L11.8756 15.5617C11.9608 15.6109 12.069 15.5819 12.1183 15.4967C12.1675 15.4115 12.1385 15.3032 12.0532 15.254L10.2787 14.2295C10.2468 14.2111 10.2116 14.2036 10.1774 14.206ZM29.8981 14.206C29.864 14.2034 29.8288 14.211 29.7969 14.2295L28.0224 15.254C27.9371 15.3033 27.9081 15.4115 27.9573 15.4967C28.0065 15.5819 28.1148 15.6109 28.2 15.5617L29.9746 14.5372C30.0598 14.488 30.0888 14.3798 30.0396 14.2945C30.0088 14.2413 29.955 14.2099 29.8981 14.206ZM9.66629 15.2636C9.59707 15.2619 9.53068 15.3016 9.50061 15.369C9.46052 15.4588 9.50058 15.5635 9.59047 15.6036L10.3777 15.9547C10.4676 15.9948 10.5722 15.9547 10.6123 15.8649C10.6524 15.775 10.6123 15.6703 10.5224 15.6302L9.73522 15.2791C9.71277 15.2691 9.68937 15.2641 9.66629 15.2636ZM30.4127 15.2709C30.3897 15.2713 30.3662 15.2764 30.3437 15.2864L29.5564 15.6369C29.4664 15.677 29.4262 15.7816 29.4663 15.8715C29.5063 15.9614 29.611 16.0016 29.7009 15.9616L30.4883 15.6109C30.5782 15.5709 30.6183 15.4663 30.5783 15.3764C30.5483 15.309 30.482 15.2695 30.4127 15.2709ZM9.21073 16.3691C9.14173 16.3748 9.07987 16.4209 9.057 16.4911C9.02653 16.5847 9.07726 16.6846 9.17086 16.7151L11.1191 17.3499C11.2127 17.3803 11.3126 17.3296 11.343 17.236C11.3735 17.1424 11.3228 17.0426 11.2292 17.0121L9.28096 16.3773C9.25758 16.3696 9.23372 16.3671 9.21073 16.3691ZM30.8675 16.3766C30.8445 16.3745 30.8207 16.3771 30.7973 16.3848L28.8486 17.0183C28.755 17.0487 28.7042 17.1486 28.7346 17.2422C28.765 17.3357 28.8649 17.3866 28.9585 17.3562L30.9071 16.7227C31.0007 16.6923 31.0516 16.5924 31.0212 16.4988C30.9984 16.4286 30.9365 16.3825 30.8675 16.3766ZM8.9269 17.5294C8.84414 17.5286 8.76992 17.5861 8.75201 17.6703C8.73155 17.7666 8.79261 17.8605 8.88887 17.881L9.732 18.0602C9.82827 18.0806 9.92222 18.0196 9.94269 17.9233C9.96315 17.827 9.90209 17.7331 9.80583 17.7126L8.96278 17.5334C8.95075 17.5309 8.93871 17.5294 8.9269 17.5294ZM31.1491 17.5311C31.1373 17.5312 31.1253 17.5328 31.1133 17.5349L30.2702 17.714C30.1739 17.7345 30.1129 17.8284 30.1333 17.9246C30.1538 18.0209 30.2477 18.082 30.344 18.0616L31.187 17.8825C31.2833 17.862 31.3444 17.7681 31.324 17.6718C31.3061 17.5876 31.2318 17.5304 31.1491 17.5311ZM8.71207 18.6967C8.62969 18.7046 8.56188 18.7692 8.55283 18.8548C8.54249 18.9527 8.61289 19.0398 8.71076 19.0502L10.7485 19.2656C10.8464 19.276 10.9335 19.2055 10.9438 19.1076C10.9542 19.0097 10.8837 18.9226 10.7858 18.9123L8.74811 18.6968C8.73587 18.6955 8.72384 18.6955 8.71207 18.6967ZM31.3654 18.712C31.3537 18.7107 31.3415 18.7107 31.3293 18.7121L29.2914 18.9248C29.1935 18.935 29.1229 19.022 29.1331 19.1199C29.1433 19.2178 29.2304 19.2884 29.3282 19.2782L31.3662 19.0655C31.4641 19.0553 31.5346 18.9683 31.5244 18.8704C31.5155 18.7847 31.4478 18.72 31.3654 18.712ZM8.67757 19.8915C8.57915 19.8915 8.49993 19.9707 8.49993 20.0691C8.49993 20.1675 8.57915 20.2467 8.67757 20.2467H9.53948C9.6379 20.2467 9.7172 20.1675 9.7172 20.0691C9.7172 19.9707 9.6379 19.8915 9.53948 19.8915H8.67757ZM30.5361 19.8915C30.4377 19.8915 30.3585 19.9707 30.3585 20.0691C30.3585 20.1675 30.4377 20.2467 30.5361 20.2467H31.398C31.4964 20.2467 31.5757 20.1675 31.5757 20.0691C31.5757 19.9707 31.4964 19.8915 31.398 19.8915H30.5361ZM10.7834 20.8599C10.7717 20.8586 10.7596 20.8586 10.7474 20.86L8.70938 21.0727C8.61149 21.0829 8.54093 21.1699 8.55113 21.2678C8.56135 21.3657 8.64837 21.4363 8.74625 21.4261L10.7843 21.2134C10.8822 21.2032 10.9527 21.1161 10.9425 21.0183C10.9336 20.9326 10.8658 20.8679 10.7834 20.8599ZM29.2911 20.8724C29.2087 20.8803 29.1409 20.945 29.1318 21.0306C29.1215 21.1285 29.1919 21.2156 29.2898 21.226L31.3275 21.4414C31.4254 21.4518 31.5125 21.3813 31.5228 21.2834C31.5332 21.1855 31.4627 21.0984 31.3648 21.088L29.3272 20.8726C29.3149 20.8713 29.3028 20.8713 29.2911 20.8724ZM9.76757 22.0726C9.75576 22.0727 9.74373 22.0738 9.7317 22.0763L8.88857 22.2554C8.7923 22.2759 8.73127 22.3699 8.75171 22.4661C8.77218 22.5624 8.86613 22.6234 8.9624 22.603L9.80554 22.424C9.9018 22.4035 9.96283 22.3095 9.94239 22.2133C9.92449 22.129 9.85033 22.0719 9.76757 22.0726ZM30.3078 22.0742C30.225 22.0734 30.1509 22.1308 30.133 22.215C30.1125 22.3113 30.1735 22.4052 30.2698 22.4257L31.1129 22.6049C31.2092 22.6253 31.3031 22.5644 31.3236 22.4681C31.344 22.3718 31.283 22.2778 31.1867 22.2573L30.3437 22.0781C30.3316 22.0756 30.3196 22.0742 30.3078 22.0742ZM11.1873 22.7739C11.1643 22.7718 11.1406 22.7743 11.1172 22.7821L9.16848 23.4155C9.07488 23.446 9.02405 23.5458 9.05448 23.6394C9.0849 23.733 9.18475 23.7839 9.27835 23.7534L11.227 23.12C11.3206 23.0896 11.3715 22.9897 11.3411 22.8961C11.3182 22.8259 11.2563 22.7798 11.1873 22.7739ZM28.8863 22.7802C28.8173 22.786 28.7555 22.8321 28.7326 22.9023C28.7021 22.9958 28.7529 23.0957 28.8465 23.1262L30.7947 23.761C30.8883 23.7915 30.9882 23.7407 31.0187 23.6472C31.0492 23.5536 30.9984 23.4537 30.9048 23.4232L28.9566 22.7884C28.9332 22.7808 28.9093 22.7783 28.8863 22.7802ZM10.4437 24.1613C10.4206 24.1618 10.3973 24.1667 10.3748 24.1767L9.58733 24.5273C9.49742 24.5673 9.45729 24.672 9.49731 24.7619C9.53737 24.8518 9.64194 24.8919 9.73184 24.8519L10.5193 24.5013C10.6092 24.4613 10.6494 24.3567 10.6093 24.2668C10.5793 24.1994 10.5129 24.16 10.4437 24.1613ZM29.629 24.1681C29.5598 24.1664 29.4934 24.206 29.4634 24.2734C29.4233 24.3633 29.4633 24.4679 29.5532 24.508L30.3404 24.8592C30.4302 24.8993 30.5349 24.8592 30.575 24.7693C30.6151 24.6794 30.575 24.5748 30.4851 24.5347L29.698 24.1836C29.6755 24.1735 29.6521 24.1685 29.629 24.1681ZM11.9769 24.553C11.9428 24.5505 11.9076 24.5581 11.8756 24.5766L10.1011 25.6011C10.0159 25.6503 9.98686 25.7585 10.0361 25.8438C10.0853 25.929 10.1935 25.958 10.2787 25.9088L12.0532 24.8843C12.1385 24.8351 12.1675 24.7268 12.1183 24.6416C12.0875 24.5883 12.0337 24.557 11.9769 24.553ZM28.0988 24.553C28.0419 24.5568 27.9881 24.5883 27.9573 24.6416C27.9081 24.7268 27.9371 24.8351 28.0224 24.8843L29.7969 25.9088C29.8821 25.958 29.9904 25.929 30.0396 25.8438C30.0888 25.7585 30.0598 25.6503 29.9746 25.6011L28.2 24.5766C28.168 24.5581 28.1329 24.5507 28.0988 24.553ZM11.5343 26.0565C11.5001 26.0578 11.4658 26.0688 11.436 26.0905L10.7384 26.5967C10.6587 26.6545 10.6411 26.7651 10.6989 26.8448C10.7567 26.9244 10.8673 26.942 10.947 26.8842L11.6446 26.3781C11.7243 26.3203 11.7419 26.2096 11.6841 26.13C11.648 26.0802 11.5912 26.0546 11.5343 26.0565ZM28.5371 26.0625C28.4802 26.0604 28.4234 26.0861 28.3872 26.1358C28.3294 26.2154 28.3469 26.3261 28.4266 26.384L29.1239 26.8906C29.2035 26.9485 29.3141 26.9309 29.372 26.8513C29.4298 26.7717 29.4123 26.661 29.3327 26.6032L28.6354 26.0965C28.6056 26.0749 28.5713 26.0637 28.5371 26.0625ZM13.1143 26.1238C13.0689 26.1213 13.0227 26.1364 12.9861 26.1693L11.4622 27.5392C11.389 27.6049 11.3831 27.7168 11.4489 27.79C11.5146 27.8632 11.6265 27.8692 11.6997 27.8034L13.2236 26.4335C13.2968 26.3677 13.3027 26.2558 13.2369 26.1826C13.2041 26.1461 13.1596 26.1263 13.1143 26.1238ZM26.9571 26.1287C26.9118 26.1313 26.8673 26.1509 26.8344 26.1875C26.7685 26.2606 26.7744 26.3725 26.8475 26.4383L28.3704 27.8092C28.4436 27.8751 28.5555 27.8692 28.6214 27.7961C28.6872 27.7229 28.6813 27.6111 28.6082 27.5452L27.0852 26.1743C27.0486 26.1414 27.0025 26.1264 26.9571 26.1287ZM14.5599 27.4301C14.503 27.428 14.4462 27.4535 14.41 27.5033L13.2046 29.1602C13.1467 29.2398 13.1641 29.3505 13.2437 29.4084C13.3232 29.4663 13.4339 29.4489 13.4918 29.3693L14.6972 27.7123C14.7551 27.6327 14.7377 27.522 14.6581 27.4641C14.6283 27.4424 14.5941 27.4313 14.5599 27.4301ZM25.5058 27.4376C25.4716 27.4388 25.4373 27.4498 25.4075 27.4714C25.3278 27.5292 25.3102 27.6399 25.368 27.7195L26.5711 29.3781C26.6289 29.4578 26.7396 29.4754 26.8192 29.4176C26.8989 29.3598 26.9165 29.2492 26.8587 29.1695L25.6556 27.5109C25.6194 27.4612 25.5627 27.4356 25.5058 27.4376ZM13.0039 27.6935C12.9585 27.696 12.914 27.7156 12.8811 27.7522L12.3044 28.3927C12.2385 28.4658 12.2444 28.5778 12.3175 28.6436C12.3907 28.7095 12.5025 28.7036 12.5684 28.6304L13.1452 27.9899C13.211 27.9168 13.2051 27.8048 13.132 27.739C13.0954 27.7061 13.0492 27.6911 13.0039 27.6935ZM27.0707 27.6943C27.0253 27.6918 26.9791 27.7069 26.9425 27.7399C26.8694 27.8057 26.8635 27.9176 26.9293 27.9907L27.506 28.6314C27.5718 28.7045 27.6837 28.7104 27.7568 28.6445C27.83 28.5787 27.8359 28.4667 27.77 28.3936L27.1934 27.753C27.1604 27.7164 27.116 27.6967 27.0707 27.6943ZM16.2432 28.4049C16.174 28.4032 16.1077 28.4428 16.0776 28.5102L15.2427 30.3815C15.2027 30.4714 15.2427 30.576 15.3326 30.6161C15.4225 30.6562 15.5271 30.6161 15.5672 30.5263L16.4021 28.655C16.4422 28.5651 16.4021 28.4605 16.3122 28.4204C16.2898 28.4103 16.2663 28.4054 16.2432 28.4049ZM23.8211 28.41C23.798 28.4105 23.7746 28.4154 23.7521 28.4254C23.6622 28.4654 23.622 28.57 23.6619 28.6599L24.4942 30.5323C24.5342 30.6222 24.6388 30.6625 24.7287 30.6225C24.8186 30.5825 24.8589 30.478 24.8189 30.388L23.9866 28.5156C23.9567 28.4482 23.8903 28.4087 23.8211 28.41ZM14.7762 28.9834C14.7194 28.9872 14.6656 29.0187 14.6348 29.072L14.2039 29.8184C14.1547 29.9037 14.1837 30.0119 14.2689 30.0611C14.3541 30.1103 14.4623 30.0813 14.5116 29.9961L14.9425 29.2496C14.9917 29.1644 14.9627 29.0562 14.8775 29.007C14.8455 28.9885 14.8103 28.9811 14.7762 28.9834ZM25.2994 28.9834C25.2653 28.9809 25.2301 28.9886 25.1982 29.007C25.1129 29.0562 25.0839 29.1644 25.1332 29.2497L25.5641 29.9961C25.6133 30.0813 25.7215 30.1103 25.8068 30.0611C25.892 30.0119 25.921 29.9037 25.8718 29.8185L25.4408 29.072C25.4101 29.0187 25.3562 28.9874 25.2994 28.9834ZM18.1017 29.0102C18.019 29.0094 17.9448 29.0667 17.9269 29.151L17.5011 31.1553C17.4806 31.2516 17.5417 31.3456 17.638 31.366C17.7342 31.3865 17.8282 31.3254 17.8487 31.2292L18.2745 29.2248C18.2949 29.1285 18.2339 29.0346 18.1376 29.0141C18.1256 29.0116 18.1136 29.0102 18.1017 29.0102ZM21.9676 29.0115C21.9557 29.0116 21.9438 29.0127 21.9318 29.0153C21.8355 29.0357 21.7744 29.1295 21.7948 29.2258L22.2191 31.2305C22.2395 31.3268 22.3334 31.3879 22.4297 31.3675C22.526 31.3471 22.5871 31.2532 22.5667 31.1569L22.1423 29.1523C22.1244 29.0681 22.0503 29.0108 21.9676 29.0115ZM20.0378 29.2136C19.9394 29.2136 19.8601 29.2929 19.8601 29.3913V31.4403C19.8601 31.5388 19.9394 31.618 20.0378 31.618C20.1362 31.618 20.2154 31.5388 20.2154 31.4403V29.3913C20.2154 29.2929 20.1362 29.2136 20.0378 29.2136ZM16.7769 29.8758C16.7079 29.8816 16.646 29.9278 16.6232 29.998L16.3568 30.8177C16.3263 30.9113 16.3772 31.0112 16.4708 31.0416C16.5644 31.072 16.6642 31.0211 16.6946 30.9275L16.9611 30.1078C16.9915 30.0142 16.9406 29.9144 16.8471 29.884C16.8237 29.8764 16.7999 29.8738 16.7769 29.8758ZM23.2973 29.8762C23.2743 29.8741 23.2506 29.8766 23.2272 29.8843C23.1336 29.9148 23.0827 30.0146 23.1131 30.1082L23.3794 30.9279C23.4098 31.0216 23.5097 31.0724 23.6033 31.042C23.6969 31.0115 23.7478 30.9118 23.7174 30.8182L23.451 29.9984C23.4281 29.9282 23.3663 29.882 23.2973 29.8762ZM18.9227 30.3327C18.8403 30.3407 18.7725 30.4053 18.7635 30.491L18.6734 31.3482C18.6631 31.4461 18.7336 31.5331 18.8315 31.5434C18.9294 31.5537 19.0165 31.4832 19.0268 31.3853L19.1168 30.5282C19.1271 30.4303 19.0566 30.3432 18.9588 30.3329C18.9465 30.3316 18.9345 30.3316 18.9227 30.3327ZM21.1457 30.3336C21.134 30.3323 21.1219 30.3323 21.1096 30.3337C21.0117 30.344 20.9411 30.431 20.9514 30.5289L21.0409 31.3862C21.0511 31.4841 21.1382 31.5546 21.236 31.5443C21.3339 31.5341 21.4045 31.4471 21.3943 31.3492L21.3048 30.492C21.2959 30.4063 21.2281 30.3416 21.1457 30.3336Z" fill="#F4F2F3" style="fill:#F4F2F3;fill:color(display-p3 0.9569 0.9490 0.9529);fill-opacity:1;"/>
<g opacity="0.409" filter="url(#filter1_f_14148_4025)">
<path d="M28.3636 12.9631L18.6444 18.61L12.4993 28.2842L21.4891 21.6255L28.3636 12.9631Z" fill="black" style="fill:black;fill-opacity:1;"/>
</g>
<path d="M21.4307 21.5277L18.6449 18.6103L28.5273 11.9624L21.4307 21.5277Z" fill="#FF5150" style="fill:#FF5150;fill:color(display-p3 1.0000 0.3176 0.3137);fill-opacity:1;"/>
<path d="M21.4307 21.5275L18.6449 18.6101L11.5483 28.1755L21.4307 21.5275Z" fill="#F1F1F1" style="fill:#F1F1F1;fill:color(display-p3 0.9451 0.9451 0.9451);fill-opacity:1;"/>
<path opacity="0.243" d="M11.5483 28.1757L21.4307 21.5277L28.5273 11.9624L11.5483 28.1757Z" fill="black" style="fill:black;fill-opacity:1;"/>
</g>
<defs>
<filter id="filter0_f_14148_4025" x="6.30313" y="7.8884" width="27.4706" height="26.5267" filterUnits="userSpaceOnUse" color-interpolation-filters="sRGB">
<feFlood flood-opacity="0" result="BackgroundImageFix"/>
<feBlend mode="normal" in="SourceGraphic" in2="BackgroundImageFix" result="shape"/>
<feGaussianBlur stdDeviation="0.499893" result="effect1_foregroundBlur_14148_4025"/>
</filter>
<filter id="filter1_f_14148_4025" x="12.2151" y="12.679" width="16.4327" height="15.8894" filterUnits="userSpaceOnUse" color-interpolation-filters="sRGB">
<feFlood flood-opacity="0" result="BackgroundImageFix"/>
<feBlend mode="normal" in="SourceGraphic" in2="BackgroundImageFix" result="shape"/>
<feGaussianBlur stdDeviation="0.142083" result="effect1_foregroundBlur_14148_4025"/>
</filter>
<linearGradient id="paint0_linear_14148_4025" x1="20.0373" y1="33.2891" x2="20.0373" y2="6.84856" gradientUnits="userSpaceOnUse">
<stop stop-color="#BDBDBD" style="stop-color:#BDBDBD;stop-color:color(display-p3 0.7412 0.7412 0.7412);stop-opacity:1;"/>
<stop offset="1" stop-color="white" style="stop-color:white;stop-opacity:1;"/>
</linearGradient>
<radialGradient id="paint1_radial_14148_4025" cx="0" cy="0" r="1" gradientUnits="userSpaceOnUse" gradientTransform="translate(20.0927 18.2923) scale(13.2203 13.2203)">
<stop stop-color="#06C2E7" style="stop-color:#06C2E7;stop-color:color(display-p3 0.0235 0.7608 0.9059);stop-opacity:1;"/>
<stop offset="0.25" stop-color="#0DB8EC" style="stop-color:#0DB8EC;stop-color:color(display-p3 0.0510 0.7216 0.9255);stop-opacity:1;"/>
<stop offset="0.5" stop-color="#12AEF1" style="stop-color:#12AEF1;stop-color:color(display-p3 0.0706 0.6824 0.9451);stop-opacity:1;"/>
<stop offset="0.75" stop-color="#1F86F9" style="stop-color:#1F86F9;stop-color:color(display-p3 0.1216 0.5255 0.9765);stop-opacity:1;"/>
<stop offset="1" stop-color="#107DDD" style="stop-color:#107DDD;stop-color:color(display-p3 0.0627 0.4902 0.8667);stop-opacity:1;"/>
</radialGradient>
<clipPath id="clip0_14148_4025">
<rect width="27.9244" height="27.7716" fill="white" style="fill:white;fill-opacity:1;" transform="translate(6.07559 6.82471)"/>
</clipPath>
</defs>
</svg>
