<svg width="40" height="40" viewBox="0 0 40 40" fill="none" xmlns="http://www.w3.org/2000/svg">
<path d="M32.4988 26.0967C32.4979 26.0955 32.497 26.0946 32.496 26.0934C32.5399 25.9402 32.5853 25.7879 32.6238 25.6308C34.2731 18.8991 30.2478 10.9404 23.4362 6.75C26.4212 10.8955 27.741 15.9166 26.5684 20.3077C26.4638 20.6994 26.3381 21.0753 26.1991 21.4406C26.0483 21.3391 25.8583 21.2239 25.6031 21.0797C25.6031 21.0797 18.8273 16.7938 11.4835 9.2132C11.2908 9.01422 15.3995 15.2293 20.0624 20.2762C17.8656 19.0131 11.7432 14.4496 7.8673 10.8155C8.34348 11.629 8.90987 12.4124 9.53245 13.1666C12.7691 17.3717 16.9902 22.5602 22.0472 26.5443C18.4941 28.7719 13.4735 28.9451 8.47469 26.5467C7.23829 25.9531 6.07596 25.2368 5 24.4231C7.11598 27.8904 10.3749 30.8819 14.3413 32.6284C19.0714 34.7108 23.7751 34.5696 27.2785 32.6625L27.2757 32.6666C27.2917 32.6563 27.312 32.645 27.3286 32.6345C27.4725 32.5552 27.6153 32.4746 27.7549 32.3894C29.4381 31.4943 32.7628 30.5862 34.5473 34.1433C34.9844 35.0138 35.9131 30.4005 32.4988 26.0967Z" fill="white" style="fill:white;fill-opacity:1;"/>
</svg>
