<svg width="40" height="40" viewBox="0 0 40 40" fill="none" xmlns="http://www.w3.org/2000/svg">
<path d="M29.0245 11.0763C27.3163 10.2901 25.5129 9.73231 23.6604 9.41724C23.4069 9.87278 23.1777 10.3415 22.9733 10.8213C21.0002 10.5224 18.9936 10.5224 17.0204 10.8213C16.816 10.3415 16.5867 9.87283 16.3333 9.41724C14.4797 9.73497 12.6752 10.2941 10.9652 11.0804C7.57054 16.1294 6.65029 21.053 7.11041 25.9066C9.09842 27.3832 11.3236 28.5063 13.6891 29.2267C14.2218 28.5066 14.6931 27.7426 15.0981 26.9427C14.3289 26.654 13.5864 26.2976 12.8793 25.8779C13.0654 25.7422 13.2474 25.6024 13.4233 25.4668C15.4807 26.4394 17.7263 26.9437 20 26.9437C22.2736 26.9437 24.5192 26.4394 26.5766 25.4668C26.7546 25.6127 26.9366 25.7525 27.1206 25.8779C26.4122 26.2983 25.6684 26.6553 24.8977 26.9449C25.3022 27.7442 25.7735 28.5076 26.3067 29.2267C28.6743 28.5091 30.9011 27.3866 32.8895 25.9088C33.4294 20.28 31.9672 15.4016 29.0245 11.0763ZM15.6809 22.9217C14.3987 22.9217 13.3394 21.752 13.3394 20.3129C13.3394 18.8739 14.3619 17.6938 15.6769 17.6938C16.9918 17.6938 18.0429 18.8739 18.0205 20.3129C17.9979 21.752 16.9877 22.9217 15.6809 22.9217ZM24.319 22.9217C23.0347 22.9217 21.9795 21.752 21.9795 20.3129C21.9795 18.8739 23.0019 17.6938 24.319 17.6938C25.636 17.6938 26.6789 18.8739 26.6564 20.3129C26.6339 21.752 25.6257 22.9217 24.319 22.9217Z" fill="white" style="fill:white;fill-opacity:1;"/>
</svg>
