<svg width="40" height="40" viewBox="0 0 40 40" fill="none" xmlns="http://www.w3.org/2000/svg">
<path fill-rule="evenodd" clip-rule="evenodd" d="M31.4128 14.6846C31.509 15.6442 31.4088 16.6143 31.1188 17.5301C32.0429 18.6062 32.6187 19.961 32.7638 21.4008C32.9089 22.8406 32.6158 24.2916 31.9266 25.5463C31.4704 26.3847 30.849 27.1115 30.1037 27.6782C29.3583 28.245 28.5063 28.6387 27.6044 28.833C27.1803 30.2184 26.3472 31.4266 25.2253 32.2834C24.1035 33.1402 22.7508 33.6012 21.3627 33.5999C20.442 33.6052 19.5308 33.4045 18.6899 33.0113C17.8491 32.6181 17.098 32.0413 16.4868 31.3196C15.1317 31.6243 13.7193 31.4702 12.4532 30.8796C11.1871 30.2889 10.1326 29.2921 9.4417 28.0329C8.97699 27.1998 8.68739 26.2723 8.59228 25.3124C8.49717 24.3525 8.59874 23.3824 8.8902 22.467C7.95946 21.389 7.37998 20.0287 7.23554 18.5828C7.09111 17.1368 7.38921 15.6802 8.08675 14.4236C8.54274 13.5849 9.16428 12.8578 9.90983 12.291C10.6554 11.7242 11.5078 11.3307 12.4101 11.1368C12.7678 9.99066 13.4069 8.96328 14.2633 8.15786C15.1196 7.35244 16.1631 6.79732 17.2889 6.54824C18.4148 6.29916 19.5833 6.36489 20.6772 6.73882C21.7711 7.11276 22.7519 7.78174 23.5211 8.6786C24.8754 8.37427 26.2869 8.52859 27.5521 9.1193C28.8173 9.71001 29.8709 10.7066 30.5608 11.9653C31.0261 12.7979 31.3166 13.725 31.4128 14.6846ZM18.2527 30.6419C19.1252 31.4053 20.2261 31.8225 21.3627 31.8206C22.6507 31.8176 23.8851 31.28 24.7958 30.3255C25.7066 29.3709 26.2195 28.0772 26.2224 26.7273V20.3997C26.2204 20.3872 26.2157 20.3754 26.2086 20.3651C26.2014 20.3549 26.1921 20.3465 26.1813 20.3408L23.9969 19.0171V26.6525C23.9961 26.8086 23.9566 26.9618 23.8823 27.0971C23.808 27.2324 23.7014 27.3451 23.573 27.4243L18.4052 30.5501L18.2527 30.6419ZM10.3382 23.7284C10.1414 24.9029 10.3463 26.1125 10.9167 27.1443C11.5622 28.3134 12.6237 29.1663 13.8684 29.516C15.1132 29.8657 16.4394 29.6837 17.5563 29.0098L22.7901 25.8466C22.8008 25.8386 22.8095 25.828 22.8157 25.8158C22.8219 25.8037 22.8253 25.7902 22.8258 25.7764V23.1334L16.5074 26.9517C16.3795 27.0303 16.2339 27.0717 16.0856 27.0717C15.9374 27.0717 15.7918 27.0303 15.6639 26.9517L10.4917 23.8247L10.3382 23.7284ZM12.1127 13.1123C11.0347 13.5177 10.1283 14.3098 9.55416 15.3484V15.3212C8.91221 16.4924 8.73931 17.8825 9.07334 19.187C9.40736 20.4915 10.2211 21.6041 11.3363 22.2811L16.5593 25.4386C16.5711 25.4452 16.5843 25.4486 16.5977 25.4486C16.611 25.4486 16.6242 25.4452 16.636 25.4386L18.8204 24.1149L12.5323 20.3125C12.4033 20.2358 12.2963 20.1243 12.2225 19.9895C12.1487 19.8548 12.1108 19.7017 12.1127 19.5463V13.1123ZM21.194 15.8788L27.5016 19.7175C27.6312 19.7927 27.7399 19.9019 27.8171 20.0344C27.8943 20.167 27.9372 20.3182 27.9417 20.4734V26.9086C28.8061 26.5713 29.5609 25.9831 30.1182 25.2129C30.6755 24.4427 31.0121 23.5221 31.0887 22.5588C31.1654 21.5955 30.9789 20.6293 30.5511 19.7729C30.1233 18.9166 29.4718 18.2055 28.6727 17.7228L23.4497 14.5596C23.4379 14.553 23.4247 14.5496 23.4113 14.5496C23.398 14.5496 23.3848 14.553 23.373 14.5596L21.194 15.8788ZM29.5227 16.195L29.6752 16.2913V16.2698C29.8311 15.3156 29.7247 14.3346 29.3684 13.4414C29.0121 12.5482 28.4206 11.7797 27.663 11.2258C26.9054 10.6719 26.0131 10.3555 25.0902 10.3134C24.1674 10.2714 23.2522 10.5055 22.4516 10.9884L17.2286 14.147C17.2181 14.1547 17.2098 14.1651 17.2045 14.1773C17.1992 14.1894 17.197 14.2029 17.1984 14.2162V16.8603L23.5114 13.042C23.6401 12.9629 23.7866 12.9212 23.9358 12.9212C24.085 12.9212 24.2315 12.9629 24.3602 13.042L29.5227 16.195ZM13.8223 19.6585L16.0067 20.9778L16.011 13.3593C16.0119 13.2031 16.0516 13.0498 16.1261 12.9145C16.2006 12.7792 16.3074 12.6665 16.436 12.5875L21.6028 9.46174L21.7563 9.37108C21.046 8.75277 20.1824 8.35906 19.2665 8.23592C18.3507 8.11278 17.4203 8.2653 16.584 8.67567C15.7477 9.08603 15.0401 9.7373 14.5438 10.5534C14.0475 11.3695 13.783 12.3168 13.7812 13.2845V19.5939C13.7831 19.6072 13.7877 19.6199 13.7948 19.6311C13.802 19.6422 13.8113 19.6516 13.8223 19.6585ZM20.0067 16.5973L17.1929 18.2974L17.1984 21.6963L20.0175 23.3963L22.8258 21.6963V18.2974L20.0067 16.5973Z" fill="white" style="fill:white;fill-opacity:1;"/>
</svg>
