<svg width="40" height="40" viewBox="0 0 40 40" fill="none" xmlns="http://www.w3.org/2000/svg">
<path d="M12.4625 23.4299C12.4625 24.9332 11.2345 26.1612 9.73127 26.1612C8.22801 26.1612 7 24.9332 7 23.4299C7 21.9267 8.22801 20.6987 9.73127 20.6987H12.4625V23.4299Z" fill="white" style="fill:white;fill-opacity:1;"/>
<path d="M13.8388 23.43C13.8388 21.9267 15.0668 20.6987 16.57 20.6987C18.0733 20.6987 19.3013 21.9267 19.3013 23.43V30.2687C19.3013 31.772 18.0733 33 16.57 33C15.0668 33 13.8388 31.772 13.8388 30.2687V23.43Z" fill="white" style="fill:white;fill-opacity:1;"/>
<path d="M16.57 12.4625C15.0668 12.4625 13.8388 11.2345 13.8388 9.73127C13.8388 8.22801 15.0668 7 16.57 7C18.0733 7 19.3013 8.22801 19.3013 9.73127V12.4625H16.57Z" fill="white" style="fill:white;fill-opacity:1;"/>
<path d="M16.57 13.8387C18.0733 13.8387 19.3013 15.0667 19.3013 16.57C19.3013 18.0733 18.0733 19.3013 16.57 19.3013H9.73127C8.22801 19.3013 7 18.0733 7 16.57C7 15.0667 8.22801 13.8387 9.73127 13.8387H16.57Z" fill="white" style="fill:white;fill-opacity:1;"/>
<path d="M27.5375 16.57C27.5375 15.0667 28.7655 13.8387 30.2687 13.8387C31.772 13.8387 33 15.0667 33 16.57C33 18.0733 31.772 19.3013 30.2687 19.3013H27.5375V16.57Z" fill="white" style="fill:white;fill-opacity:1;"/>
<path d="M26.1612 16.57C26.1612 18.0733 24.9332 19.3013 23.43 19.3013C21.9267 19.3013 20.6987 18.0733 20.6987 16.57V9.73127C20.6987 8.22801 21.9267 7 23.43 7C24.9332 7 26.1612 8.22801 26.1612 9.73127V16.57Z" fill="white" style="fill:white;fill-opacity:1;"/>
<path d="M23.43 27.5374C24.9332 27.5374 26.1612 28.7654 26.1612 30.2687C26.1612 31.7719 24.9332 33 23.43 33C21.9267 33 20.6987 31.7719 20.6987 30.2687V27.5374H23.43Z" fill="white" style="fill:white;fill-opacity:1;"/>
<path d="M23.43 26.1612C21.9267 26.1612 20.6987 24.9332 20.6987 23.4299C20.6987 21.9267 21.9267 20.6987 23.43 20.6987H30.2687C31.772 20.6987 33 21.9267 33 23.4299C33 24.9332 31.772 26.1612 30.2687 26.1612H23.43Z" fill="white" style="fill:white;fill-opacity:1;"/>
</svg>
