<svg width="40" height="40" viewBox="0 0 40 40" fill="none" xmlns="http://www.w3.org/2000/svg">
<path d="M18.8163 7.0246C19.1592 6.97951 19.5214 7.0102 19.867 7.0102C21.1472 7.0102 22.4041 7.20928 23.629 7.58657C25.1922 8.06811 26.6482 8.83799 27.9333 9.85084C29.5084 11.0923 30.8135 12.7206 31.651 14.548C33.2178 17.967 33.2063 22.1106 31.6011 25.5152C30.5632 27.7166 28.898 29.559 26.8826 30.9026C25.2382 31.9989 23.315 32.6699 21.3582 32.9075C18.8675 33.21 16.1749 32.768 13.9358 31.6182C9.73251 29.4596 6.87489 25.1152 6.81836 20.3542C6.80748 19.4363 6.82175 18.5129 7.00318 17.6039C7.29868 16.1235 7.81391 14.6925 8.5877 13.3936C9.42473 11.9884 10.5059 10.7484 11.8006 9.74864C13.3189 8.57624 15.0836 7.73295 16.9522 7.30394C17.4035 7.20035 17.8567 7.14294 18.312 7.08741L18.4559 7.06989C18.5759 7.05526 18.696 7.04043 18.8163 7.0246ZM14.468 28.6693C13.8891 28.7314 13.2786 28.8369 12.7818 29.1626C12.8936 29.1895 13.0218 29.1628 13.1385 29.1626C13.4187 29.1621 13.7016 29.1515 13.9816 29.1638C14.6824 29.1946 15.4125 29.3069 16.0893 29.4928C16.9557 29.7307 17.7189 30.199 18.5536 30.5148C19.4342 30.848 20.3108 30.9515 21.245 30.9515C21.7157 30.9515 22.1829 30.9501 22.6393 30.8214C22.4011 30.6944 22.0601 30.7182 21.7962 30.6653C21.2237 30.5504 20.6608 30.4102 20.1101 30.2134C19.7048 30.0686 19.3144 29.8898 18.9258 29.7073L18.6761 29.5897C18.3154 29.4199 17.9538 29.2524 17.5808 29.1113C16.6002 28.7403 15.5136 28.557 14.468 28.6693ZM15.3435 26.2026C14.1964 26.2026 13.0363 26.405 12.0036 26.9263C11.7534 27.0526 11.5156 27.2031 11.2902 27.3698C11.2215 27.4207 11.0998 27.486 11.0744 27.5743C11.0486 27.664 11.1407 27.7391 11.1929 27.7964C11.4511 27.6587 11.6963 27.5128 11.9712 27.4082C13.7489 26.7318 15.904 26.8736 17.6781 27.4938C18.5629 27.8031 19.378 28.2656 20.2398 28.6283C21.2035 29.034 22.1879 29.2971 23.223 29.4319C24.4439 29.591 25.8359 29.4621 26.9519 28.9103C27.3441 28.7164 27.8886 28.4209 28.0544 27.9916C27.8496 28.0095 27.6653 28.0974 27.4707 28.158C27.1613 28.2543 26.8482 28.3361 26.5304 28.3998C25.4532 28.616 24.3077 28.6606 23.223 28.4644C22.2006 28.2796 21.2508 27.9082 20.3053 27.5176L20.1847 27.4676C20.1042 27.4343 20.0238 27.4008 19.9434 27.3674L19.8226 27.3173C19.3396 27.1169 18.8548 26.919 18.3591 26.7457C17.396 26.409 16.3639 26.2026 15.3435 26.2026ZM17.3539 8.55451C15.9788 8.85873 14.7471 9.45114 13.56 10.1979C12.8709 10.6315 12.2117 11.0756 11.6145 11.6336C10.7264 12.4635 10.0477 13.4721 9.45569 14.5256C8.84576 15.611 8.4547 16.8761 8.26569 18.1035C8.08028 19.3077 8.04974 20.5738 8.26213 21.779C8.52763 23.2858 9.03299 24.6997 9.83105 26.0075C10.0992 25.882 10.2897 25.596 10.512 25.4033C10.961 25.0142 11.4323 24.6537 11.9387 24.3425C12.1262 24.2273 12.3188 24.1379 12.5224 24.0559C12.5992 24.025 12.7248 23.9967 12.761 23.9122C12.8184 23.778 12.7122 23.5444 12.6939 23.4054C12.6418 23.0077 12.6103 22.6032 12.6202 22.2019C12.6487 21.0331 12.8668 19.848 13.2819 18.7541C13.5948 17.9298 14.0728 17.1814 14.639 16.5097C14.8311 16.2818 15.0354 16.0697 15.2462 15.8592C15.3708 15.7348 15.5254 15.6284 15.6029 15.4689C15.1963 15.4691 14.7897 15.5866 14.4031 15.7058C13.5703 15.9626 12.759 16.3437 12.0684 16.8813C11.7535 17.1266 11.5228 17.4481 11.2249 17.7062C11.1335 17.7854 10.9698 17.8916 10.8436 17.8318C10.6528 17.7416 10.6822 17.3656 10.6604 17.1928C10.5763 16.5281 10.8277 15.6873 11.1472 15.1111C11.6601 14.1861 12.6084 13.3963 13.7222 13.4239C14.2031 13.4358 14.6242 13.6032 15.0841 13.7124C14.9674 13.5465 14.8111 13.4256 14.6625 13.2896C14.2984 12.9564 13.9001 12.652 13.4628 12.4218C13.2868 12.3292 13.0973 12.2729 12.9115 12.2049C12.8181 12.1707 12.7005 12.1236 12.6653 12.0196C12.6002 11.827 12.9465 11.6487 13.0736 11.5674C13.5653 11.2535 14.1681 10.9952 14.7598 10.9807C15.6844 10.958 16.5879 11.4718 16.9688 12.3463C17.1027 12.6537 17.1423 12.9788 17.1685 13.3069L17.1733 13.3684L17.1802 13.4608C17.1809 13.4711 17.1817 13.4814 17.1824 13.4916L17.187 13.5533L17.1917 13.6149C17.4821 13.3777 17.6864 13.0288 17.97 12.7748C18.6331 12.1808 19.5407 11.9171 20.4019 12.1845C21.1802 12.4261 21.8566 12.9641 22.2547 13.6799C22.3588 13.8672 22.6494 14.3249 22.4394 14.5115C22.2751 14.6575 22.0668 14.5437 21.8935 14.4832C21.7623 14.4373 21.6267 14.4082 21.4907 14.3813L21.4164 14.3667C21.3917 14.3619 21.367 14.357 21.3423 14.3521C20.871 14.2575 20.3229 14.2673 19.8507 14.3504C19.5453 14.4042 19.247 14.513 18.9427 14.5581V14.6232C19.7746 14.6301 20.5793 15.1054 20.9897 15.8267C21.1597 16.1255 21.2447 16.4675 21.3098 16.8025C21.3903 17.2165 21.3337 17.6675 21.2208 18.071C21.1829 18.2063 21.1142 18.4356 20.9527 18.4668C20.8385 18.4888 20.7415 18.375 20.6764 18.2982C20.5055 18.097 20.343 17.9057 20.1425 17.7319C19.6353 17.2924 19.099 16.887 18.5536 16.496C18.2641 16.2884 17.9469 16.0186 17.6133 15.8917C17.7071 16.118 17.799 16.3285 17.8309 16.5748C17.9247 17.2993 17.6219 17.9813 17.1673 18.5264C17.0286 18.6927 16.8802 18.8603 16.7053 18.9895C16.6328 19.0431 16.5419 19.1131 16.4459 19.0979C16.1452 19.0503 16.1094 18.5963 16.0633 18.3637C15.9072 17.5759 15.9699 16.7935 16.1865 16.0218C15.9938 16.1197 15.8544 16.334 15.7334 16.5097C15.4671 16.8964 15.236 17.3055 15.0703 17.7457C14.4104 19.4995 14.4168 21.5537 15.2716 23.2421C15.3671 23.4307 15.512 23.4054 15.7001 23.4054C15.7285 23.4054 15.7569 23.4052 15.7853 23.4049L15.8706 23.404C16.0412 23.4023 16.2122 23.4015 16.3811 23.4241C16.4687 23.4358 16.5904 23.4254 16.6597 23.49C16.7428 23.5675 16.6985 23.7003 16.6794 23.7957C16.6259 24.0622 16.6081 24.3044 16.6081 24.5763C16.963 24.5212 17.0614 23.9513 17.1872 23.6656C17.3298 23.3419 17.4748 23.0179 17.6068 22.6898C17.6716 22.5285 17.7583 22.3482 17.7356 22.1693C17.71 21.9684 17.5651 21.7553 17.464 21.5839C17.2728 21.2595 17.0554 20.9257 16.9146 20.5755C16.802 20.2957 16.9068 19.9459 17.2242 19.8459C17.3992 19.7907 17.586 19.8989 17.6999 20.0257C17.9387 20.2913 18.0929 20.6866 18.2663 20.9984L19.6191 23.4379C19.734 23.6445 19.8492 23.8508 19.9667 24.0559C20.0126 24.1359 20.0592 24.2594 20.1532 24.2936C20.2368 24.3239 20.3511 24.2807 20.4343 24.2641C20.6503 24.2207 20.866 24.174 21.0828 24.1347C21.3426 24.0877 21.7387 24.0965 21.9259 23.8933C21.652 23.8064 21.3355 23.8115 21.0504 23.8311C20.8792 23.8429 20.6894 23.9042 20.5321 23.8041C20.2979 23.655 20.1423 23.3108 19.999 23.0801C19.6458 22.5113 19.313 21.9339 18.9748 21.3562L18.9207 21.2642L18.8119 21.0804C18.7576 20.9885 18.7037 20.8963 18.6514 20.8032C18.611 20.7313 18.5511 20.6365 18.609 20.5571C18.6698 20.4738 18.8023 20.4689 18.9219 20.4688L18.9457 20.4688C18.9927 20.4688 19.0368 20.4689 19.0724 20.4642C19.5552 20.4006 20.0447 20.3479 20.5316 20.3479C20.4937 20.2158 20.3853 20.0665 20.42 19.9251C20.4975 19.6088 20.952 19.5098 21.1633 19.7368C21.3052 19.8892 21.3877 20.0989 21.48 20.2828C21.6018 20.5256 21.7405 20.7602 21.871 20.9984C22.0993 21.4154 22.3487 21.821 22.5835 22.2344C22.6029 22.2685 22.6229 22.3024 22.643 22.3363L22.6734 22.3872C22.7747 22.5567 22.8765 22.7273 22.9311 22.9175C22.1155 22.8801 21.5033 21.9319 21.1477 21.2911C21.1193 21.3937 21.1654 21.4853 21.2023 21.5839C21.2789 21.7886 21.3705 21.9836 21.4857 22.1693C21.6503 22.4346 21.839 22.7077 22.088 22.9002C22.53 23.2419 23.1127 23.2438 23.6445 23.2073C23.9855 23.1838 24.4116 23.0284 24.747 23.1339C25.0818 23.2392 25.2166 23.6091 25.0178 23.8932C24.8688 24.1061 24.67 24.1864 24.4227 24.2185C24.5976 24.5942 24.8266 24.9428 24.9926 25.3244C25.0618 25.4834 25.1339 25.7271 25.2996 25.811C25.41 25.8668 25.568 25.8148 25.6873 25.8123C25.5676 25.4951 25.3434 25.2258 25.2334 24.9016C25.569 24.917 25.8936 25.0924 26.2061 25.2043C26.8209 25.4246 27.4279 25.6653 28.0341 25.9083L28.3138 26.0205C28.5631 26.1205 28.814 26.2195 29.0596 26.3283C29.1495 26.368 29.274 26.461 29.3733 26.4038C29.4544 26.357 29.5068 26.2456 29.5568 26.1701C29.6967 25.9589 29.8233 25.7396 29.9488 25.5196C30.4512 24.6385 30.8197 23.6731 31.0659 22.6898C31.8779 19.4467 31.1813 15.8685 29.23 13.1595C28.4803 12.1187 27.5374 11.2189 26.498 10.4737C23.8966 8.60889 20.4837 7.86208 17.3539 8.55451ZM22.6717 24.7269C21.9821 24.9069 21.2714 25.0702 20.564 25.1618C20.6571 25.479 20.8844 25.7876 21.0508 26.0725C21.1151 26.1827 21.184 26.3302 21.3111 26.3781C21.4547 26.432 21.6283 26.3444 21.7638 26.3002C21.701 26.1283 21.5955 25.9736 21.5091 25.8123C21.4734 25.7458 21.4184 25.6671 21.4477 25.5882C21.5032 25.439 21.7335 25.4478 21.8611 25.4219C22.1972 25.3536 22.5299 25.2683 22.8663 25.2008C22.9902 25.1759 23.1628 25.1085 23.2873 25.1502C23.3806 25.1813 23.4368 25.2583 23.49 25.3386L23.5138 25.3747C23.5456 25.4229 23.5782 25.47 23.6189 25.5068C23.7549 25.6297 23.9582 25.6486 24.1309 25.6822C24.0255 25.4448 23.8504 25.237 23.7382 24.9992C23.6729 24.8608 23.6193 24.6573 23.4764 24.5774C23.2795 24.4672 22.8729 24.6743 22.6717 24.7269ZM18.3266 23.1451C18.2942 23.5575 18.1679 23.893 17.97 24.251C18.1968 24.2798 18.4281 24.29 18.6509 24.3453C18.8179 24.3868 18.9717 24.4658 19.1373 24.5113C19.0488 24.2687 18.8845 24.0522 18.7573 23.8282C18.6288 23.602 18.5138 23.3272 18.3266 23.1451Z" fill="black" fill-opacity="0.87" style="fill:black;fill-opacity:0.87;"/>
</svg>
