<svg width="40" height="40" viewBox="0 0 40 40" fill="none" xmlns="http://www.w3.org/2000/svg">
<path d="M19.1963 12.1311C19.1963 12.2337 19.0937 12.2337 19.0937 12.2337H18.9912C18.8886 12.2337 18.8886 12.1311 18.7861 12.0286C18.7861 12.0286 18.6835 11.926 18.6835 11.8234C18.6835 11.7209 18.6835 11.7209 18.7861 11.7209L18.9912 11.8234C19.0937 11.926 19.1963 12.0286 19.1963 12.1311ZM17.3502 11.1055C17.3502 10.5927 17.145 10.285 16.8373 10.285C16.8373 10.285 16.8373 10.3875 16.7348 10.3875V10.5927H17.0425C17.0425 10.7978 17.145 10.9004 17.145 11.1055H17.3502ZM20.9399 10.5927C21.145 10.5927 21.2476 10.7978 21.3502 11.1055H21.5553C21.4527 11.0029 21.4527 10.9004 21.4527 10.7978C21.4527 10.6952 21.4527 10.5927 21.3502 10.4901C21.2476 10.3875 21.145 10.285 21.0425 10.285C21.0425 10.285 20.9399 10.3875 20.8373 10.3875C20.8373 10.4901 20.9399 10.4901 20.9399 10.5927ZM17.863 12.2337C17.7604 12.2337 17.7604 12.2337 17.7604 12.1311C17.7604 12.0286 17.7604 11.926 17.863 11.8234C18.0681 11.8234 18.1707 11.7209 18.1707 11.7209C18.2732 11.7209 18.2732 11.8234 18.2732 11.8234C18.2732 11.926 18.1707 12.0286 17.9655 12.2337H17.863ZM16.7348 12.1311C16.3245 11.926 16.222 11.6183 16.222 11.1055C16.222 10.7978 16.222 10.5927 16.4271 10.3875C16.5296 10.1824 16.7348 10.0798 16.9399 10.0798C17.145 10.0798 17.2476 10.1824 17.4527 10.3875C17.5553 10.6952 17.6578 11.0029 17.6578 11.3106V11.5157H17.7604V11.4132C17.863 11.4132 17.863 11.208 17.863 10.7978C17.863 10.4901 17.863 10.1824 17.6578 9.87471C17.4527 9.56702 17.2476 9.36189 16.8373 9.36189C16.5296 9.36189 16.222 9.56702 16.1194 9.87471C15.9143 10.285 15.8732 10.5927 15.8732 11.1055C15.8732 11.5157 16.0168 11.926 16.4271 12.3362C16.5296 12.2337 16.6322 12.2337 16.7348 12.1311ZM29.5553 26.5927C29.6578 26.5927 29.6578 26.5516 29.6578 26.4593C29.6578 26.2337 29.5553 25.967 29.2476 25.6696C28.9399 25.3619 28.4271 25.167 27.8117 25.085C27.7091 25.0747 27.6066 25.0747 27.6066 25.0747C27.504 25.0542 27.504 25.0542 27.4014 25.0542C27.2989 25.0439 27.0937 25.0234 26.9912 25.0029C27.2989 24.0491 27.4014 23.208 27.4014 22.4696C27.4014 21.4439 27.1963 20.726 26.7861 20.1106C26.3758 19.4952 25.9655 19.1875 25.4527 19.085C25.3502 19.1875 25.3502 19.1875 25.3502 19.2901C25.863 19.4952 26.3758 19.9055 26.6835 20.5209C26.9912 21.2388 27.0937 21.8542 27.0937 22.5721C27.0937 23.1465 26.9912 23.9978 26.5809 25.085C26.1707 25.2491 25.7604 25.6286 25.4527 26.2234C25.4527 26.3157 25.4527 26.367 25.5553 26.367C25.5553 26.367 25.6578 26.2747 25.7604 26.1004C25.9655 25.926 26.0681 25.7516 26.2732 25.5773C26.5809 25.4029 26.7861 25.3106 27.0937 25.3106C27.6066 25.3106 28.1194 25.3824 28.4271 25.526C28.8373 25.6593 29.0425 25.8029 29.145 25.967C29.2476 26.1209 29.3502 26.2645 29.4527 26.3978C29.4527 26.5311 29.5553 26.5927 29.5553 26.5927ZM20.1194 11.7209C20.0168 11.6183 20.0168 11.4132 20.0168 11.208C20.0168 10.7978 20.0168 10.5927 20.222 10.285C20.4271 10.0798 20.6322 9.97727 20.8373 9.97727C21.145 9.97727 21.3502 10.1824 21.5553 10.3875C21.6578 10.6952 21.7604 10.9004 21.7604 11.208C21.7604 11.7209 21.5553 12.0286 21.145 12.1311C21.145 12.1311 21.2476 12.2337 21.3502 12.2337C21.5553 12.2337 21.6578 12.3362 21.863 12.4388C21.9655 11.8234 22.0681 11.4132 22.0681 10.9004C22.0681 10.285 21.9655 9.87471 21.7604 9.56702C21.4527 9.25933 21.145 9.15676 20.7348 9.15676C20.4271 9.15676 20.1194 9.25933 19.8117 9.46445C19.6066 9.77215 19.504 9.97727 19.504 10.285C19.504 10.7978 19.6066 11.208 19.8117 11.6183C19.9143 11.6183 20.0168 11.7209 20.1194 11.7209ZM21.3502 13.3619C20.0168 14.285 18.9912 14.6952 18.1707 14.6952C17.4527 14.6952 16.7348 14.3875 16.1194 13.8747C16.222 14.0798 16.3245 14.285 16.4271 14.3875L17.0425 15.0029C17.4527 15.4132 17.9655 15.6183 18.4784 15.6183C19.1963 15.6183 20.0168 15.208 21.0425 14.4901L21.9655 13.8747C22.1707 13.6696 22.3758 13.4645 22.3758 13.1568C22.3758 13.0542 22.3758 12.9516 22.2732 12.9516C22.1707 12.7465 21.6578 12.4388 20.6322 12.1311C19.7091 11.7209 18.9912 11.5157 18.5809 11.5157C18.2732 11.5157 17.7604 11.7209 17.0425 12.1311C16.4271 12.5414 16.0168 12.9516 16.0168 13.3619C16.0168 13.3619 16.1194 13.4645 16.222 13.6696C16.8373 14.1824 17.4527 14.4901 18.0681 14.4901C18.8886 14.4901 19.9143 14.0798 21.2476 13.0542V13.2593C21.3502 13.2593 21.3502 13.3619 21.3502 13.3619ZM23.7091 34.0798C24.1194 34.8511 24.8373 35.2388 25.6578 35.2388C25.863 35.2388 26.0681 35.208 26.2732 35.1465C26.4784 35.1055 26.6835 35.0337 26.7861 34.9516C26.8886 34.8798 26.9912 34.808 27.0937 34.726C27.2989 34.6542 27.2989 34.6029 27.4014 34.5516L29.145 33.0439C29.5553 32.7168 29.9655 32.4306 30.4784 32.1824C30.8886 31.9362 31.2989 31.7721 31.504 31.6798C31.8117 31.5978 32.0168 31.4747 32.222 31.3106C32.3245 31.1568 32.4271 30.9619 32.4271 30.7157C32.4271 30.4183 32.222 30.1927 32.0168 30.0286C31.8117 29.8645 31.6066 29.7516 31.4014 29.6798C31.1963 29.608 30.9912 29.4439 30.6835 29.167C30.4784 28.9004 30.2732 28.5311 30.1707 28.0491L30.0681 27.4542C29.9655 27.1773 29.9655 26.9721 29.863 26.8593C29.863 26.8286 29.863 26.8183 29.7604 26.8183C29.6578 26.8183 29.4527 26.9106 29.3502 27.085C29.145 27.2593 28.9399 27.4542 28.7348 27.6593C28.6322 27.8645 28.3245 28.0491 28.1194 28.2234C27.8117 28.3978 27.504 28.4901 27.2989 28.4901C26.4784 28.4901 26.0681 28.2645 25.7604 27.8234C25.5553 27.4952 25.4527 27.1157 25.3502 26.685C25.145 26.5106 25.0425 26.4183 24.8373 26.4183C24.3245 26.4183 24.1194 26.9516 24.1194 28.0286V31.2183C24.1194 31.3106 24.0168 31.5157 24.0168 31.8337C23.9143 32.1516 23.9143 32.5127 23.9143 32.9209L23.7091 34.0593V34.0768M8.83733 33.5342C9.79118 33.6737 10.8886 33.9721 12.1296 34.4275C13.3707 34.8788 14.1296 35.1147 14.4066 35.1147C15.1245 35.1147 15.7194 34.7968 16.2117 34.1824C16.3143 33.9834 16.3143 33.7496 16.3143 33.4809C16.3143 32.5116 15.7296 31.286 14.5604 29.7988L13.863 28.8655C13.7194 28.6706 13.545 28.3732 13.3194 27.9732C13.104 27.5732 12.9091 27.2655 12.7553 27.0501C12.622 26.8142 12.4066 26.5783 12.1296 26.3424C11.863 26.1065 11.5553 25.9527 11.2168 25.8706C10.7861 25.9527 10.4886 26.0962 10.345 26.2911C10.2014 26.486 10.1194 26.7014 10.0989 26.927C10.0681 27.1424 10.0066 27.286 9.904 27.3578C9.80144 27.4193 9.62708 27.4706 9.39118 27.5219C9.3399 27.5219 9.24759 27.5219 9.11426 27.5321H8.83733C8.29374 27.5321 7.92451 27.5937 7.72964 27.6963C7.47323 27.9937 7.3399 28.3321 7.3399 28.6911C7.3399 28.8552 7.38092 29.1321 7.46298 29.5219C7.54503 29.9014 7.58605 30.2091 7.58605 30.4245C7.58605 30.845 7.46298 31.2655 7.20657 31.686C6.95016 32.127 6.81682 32.4552 6.81682 32.6891C6.91939 33.087 7.59631 33.367 8.83733 33.5311M12.2527 24.208C12.2527 23.5004 12.4373 22.7209 12.8168 21.7978C13.1861 20.8747 13.5553 20.2593 13.9143 19.8491C13.8937 19.7465 13.8425 19.7465 13.7604 19.7465L13.6578 19.6439C13.3604 19.9516 13.0014 20.6696 12.5707 21.6952C12.1399 22.6183 11.9143 23.4696 11.9143 24.0952C11.9143 24.5568 12.0271 24.9568 12.2322 25.3055C12.4578 25.6439 13.0014 26.1362 13.863 26.7619L14.9502 27.4696C16.1091 28.4747 16.7245 29.1721 16.7245 29.5824C16.7245 29.7978 16.622 30.0132 16.3143 30.2491C16.1091 30.4952 15.8322 30.6183 15.5963 30.6183C15.5758 30.6183 15.5655 30.6388 15.5655 30.6901C15.5655 30.7004 15.6681 30.9055 15.8835 31.3055C16.3143 31.8901 17.2373 32.1773 18.4681 32.1773C20.7245 32.1773 22.4681 31.2542 23.8014 29.408C23.8014 28.8952 23.8014 28.5773 23.6989 28.4439V28.0645C23.6989 27.3978 23.8014 26.8952 24.0066 26.567C24.2117 26.2388 24.4168 26.085 24.7245 26.085C24.9296 26.085 25.1348 26.1568 25.3399 26.3106C25.4425 25.5209 25.4425 24.8337 25.4425 24.2183C25.4425 23.285 25.4425 22.5157 25.2373 21.7978C25.1348 21.1824 24.9296 20.6696 24.7245 20.2593L24.1091 19.3362C23.904 19.0286 23.8014 18.7209 23.5963 18.4132C23.4937 18.0029 23.3912 17.6952 23.3912 17.1824C23.0835 16.6696 22.8784 16.1568 22.5707 15.6439C22.3655 15.1311 22.1604 14.6183 21.9553 14.208L21.0322 14.926C20.0066 15.6439 19.1861 15.9516 18.4681 15.9516C17.8527 15.9516 17.3399 15.8491 17.0322 15.4388L16.4168 14.926C16.4168 15.2337 16.3143 15.6439 16.1091 16.0542L15.463 17.285C15.1758 18.0029 15.022 18.4132 14.9912 18.7209C14.9502 18.926 14.9194 19.1311 14.8989 19.1311L14.1296 20.6696C13.2989 22.208 12.8784 23.6337 12.8784 24.8132C12.8784 25.0491 12.8989 25.2952 12.9399 25.5414C12.4784 25.2234 12.2527 24.7824 12.2527 24.208ZM19.5963 33.9106C18.263 33.9106 17.2373 34.0911 16.5194 34.4491V34.4183C16.0066 35.0337 15.4322 35.3516 14.6322 35.3516C14.1296 35.3516 13.3399 35.1568 12.2732 34.767C11.1963 34.3978 10.2425 34.1147 9.41169 33.928C9.32964 33.9045 9.14503 33.8696 8.84759 33.8224C8.56041 33.7762 8.29374 33.7291 8.05785 33.6819C7.84246 33.6357 7.59631 33.566 7.32964 33.4716C7.07323 33.3906 6.8681 33.285 6.71426 33.1568C6.57272 33.0275 6.50298 32.8819 6.50298 32.7188C6.50298 32.5547 6.53785 32.3793 6.60759 32.1927C6.67323 32.0798 6.74503 31.967 6.81682 31.8645C6.88862 31.7516 6.95016 31.6491 6.99118 31.5465C7.05272 31.4542 7.09374 31.3619 7.13477 31.2593C7.1758 31.167 7.21682 31.0747 7.23733 30.9619C7.25785 30.8593 7.27836 30.7568 7.27836 30.6542C7.27836 30.5516 7.23733 30.2439 7.15528 29.7004C7.07323 29.167 7.03221 28.8286 7.03221 28.685C7.03221 28.2337 7.13477 27.8747 7.36041 27.6183C7.58605 27.3619 7.80144 27.2286 8.02708 27.2286H9.20657C9.29887 27.2286 9.44246 27.1773 9.65785 27.0542C9.72964 26.8901 9.79118 26.7568 9.83221 26.6337C9.88349 26.5106 9.904 26.4183 9.92451 26.3773C9.94503 26.3157 9.96554 26.2542 9.98605 26.2029C10.0271 26.1311 10.0784 26.0491 10.1502 25.967C10.0681 25.8645 10.0271 25.7311 10.0271 25.567C10.0271 25.4542 10.0271 25.3516 10.0476 25.2901C10.0476 24.9209 10.222 24.3978 10.5912 23.7106L10.9502 23.0645C11.2476 22.5106 11.4732 22.1004 11.6373 21.6901C11.8117 21.2798 11.9963 20.6645 12.2014 19.8439C12.3655 19.126 12.7553 18.408 13.3707 17.6901L14.1399 16.767C14.6732 16.1516 15.022 15.6388 15.2168 15.2286C15.4117 14.8183 15.5143 14.3055 15.5143 13.8952C15.5143 13.6901 15.463 13.0747 15.3502 12.0491C15.2476 11.0234 15.1963 9.99779 15.1963 9.07471C15.1963 8.35676 15.2578 7.84394 15.3912 7.33112C15.5245 6.8183 15.7604 6.30548 16.1091 5.89522C16.4168 5.48497 16.8271 5.07471 17.4425 4.86958C18.0578 4.66445 18.7758 4.56189 19.5963 4.56189C19.904 4.56189 20.2117 4.56189 20.5194 4.66445C20.8271 4.66445 21.2373 4.76702 21.7502 4.97215C22.1604 5.17727 22.5707 5.3824 22.8784 5.69009C23.2886 5.99779 23.5963 6.51061 23.904 7.02343C24.1091 7.63881 24.3143 8.2542 24.4168 9.07471C24.5194 9.58753 24.5194 10.1004 24.622 10.8183C24.622 11.4337 24.7245 11.8439 24.7245 12.1516C24.8271 12.4593 24.8271 12.8696 24.9296 13.3824C25.0322 13.7927 25.1348 14.2029 25.3399 14.5106C25.545 14.9209 25.7502 15.3311 26.0578 15.7414C26.3655 16.2542 26.7758 16.767 27.1861 17.3824C28.1091 18.408 28.8271 19.5362 29.2373 20.6645C29.7502 21.6901 30.0578 23.0234 30.0578 24.4491C30.0578 25.1568 29.9553 25.8439 29.7502 26.5106C29.9553 26.5106 30.0578 26.5927 30.1604 26.7362C30.263 26.8798 30.3655 27.1875 30.4681 27.6696L30.5707 28.4286C30.6732 28.6542 30.7758 28.8696 31.0835 29.0542C31.2886 29.2388 31.4937 29.3927 31.8014 29.5157C32.0066 29.6183 32.3143 29.7619 32.5194 29.9465C32.7245 30.1516 32.8271 30.367 32.8271 30.5927C32.8271 30.9414 32.7245 31.1978 32.5194 31.3824C32.3143 31.5875 32.1091 31.7311 31.8014 31.8234C31.5963 31.926 31.1861 32.1311 30.5707 32.4204C30.0578 32.7239 29.545 33.0921 29.0322 33.528L28.0066 34.4009C27.5963 34.8009 27.1861 35.088 26.8784 35.2624C26.5707 35.447 26.1604 35.5393 25.7502 35.5393L25.0322 35.4573C24.2117 35.2419 23.6989 34.8316 23.3912 34.206C21.7502 34.007 20.4168 33.9086 19.5963 33.9086" fill="white" style="fill:white;fill-opacity:1;"/>
</svg>
