<svg width="40" height="40" viewBox="0 0 40 40" fill="none" xmlns="http://www.w3.org/2000/svg">
<rect width="40" height="40" fill="white" style="fill:white;fill-opacity:1;"/>
<path d="M15.8846 13.0643L15.9727 15.0914L14.5626 17.7354L12.3593 22.0539L11.9186 25.6674L13.505 30.7791L17.1185 32.8062H22.5827L27.6945 28.9283L29.9859 22.8471L24.6979 16.4134L23.1997 12.7999L15.8846 13.0643Z" fill="#ECEFF1" style="fill:#ECEFF1;fill:color(display-p3 0.9255 0.9373 0.9451);fill-opacity:1;"/>
<path d="M28.3995 18.0881C26.9894 16.0611 25.8437 14.8272 25.2267 12.2713C24.6098 9.71546 25.403 10.4205 24.8742 8.21719C24.6098 7.07146 24.1691 6.27826 23.7285 5.66132C23.1997 5.04439 22.5827 4.69186 22.2302 4.60372C21.437 4.16306 19.5862 3.45799 17.2947 4.69186C14.9151 5.92572 15.1795 8.56972 15.6202 13.9459C15.6202 14.2984 15.5321 14.7391 15.3558 15.0916C15.0033 15.8848 14.3863 16.5899 13.8575 17.2068C13.2406 18.0881 12.6237 18.9695 12.183 19.9389C11.1254 21.966 10.1559 24.5219 10.4203 25.4913C10.861 25.4032 16.4134 33.864 16.4134 34.0403C16.7659 33.9521 18.2642 33.9521 19.5862 33.9521C21.437 33.864 22.4946 33.7759 23.9929 34.1284C23.9929 33.864 23.9047 33.5996 23.9047 33.3352C23.9047 32.8064 23.9929 32.3657 24.081 31.7488C24.1691 31.3081 24.2573 30.8675 24.3454 30.3387C23.4641 31.1319 21.8777 32.0132 20.3794 32.2776C19.0574 32.542 16.8541 32.1013 15.7965 30.7793C15.8846 30.7793 16.0609 30.7793 16.149 30.6912C16.4134 30.6031 16.6778 30.5149 16.7659 30.3387C17.0303 29.898 16.8541 29.4573 16.6778 29.1929C16.5015 28.9285 15.1795 27.9591 14.5626 27.4303C13.9457 26.9015 13.5931 26.6371 13.2406 26.2845C13.2406 26.2845 12.7118 25.7557 12.5355 25.5795C12.3593 25.4032 12.2711 25.2269 12.183 25.1388C12.0067 24.6981 11.9186 24.1693 12.0067 23.4643C12.0949 22.4948 12.4474 21.7016 12.8881 20.8203C13.0643 20.4677 13.505 19.7627 13.505 19.7627C13.505 19.7627 12.0067 23.4643 12.7999 24.61C12.7999 24.61 12.8881 23.4643 13.2406 22.3185C13.505 21.5253 13.9457 20.3796 14.4745 19.7627C15.0033 19.1457 16.3253 16.8543 16.4134 15.4441C16.4134 14.8272 16.5015 14.2103 16.5015 13.7696C16.149 13.4171 22.3183 12.5357 22.6709 13.5052C22.759 13.8577 23.9929 17.0305 24.6979 18.7051C25.0505 19.4983 25.4911 20.2033 25.7555 21.0847C26.0199 22.0541 26.1962 23.3761 26.1962 24.6981C26.1962 24.9625 26.1962 25.4032 26.1081 25.8439C26.2843 25.8439 29.7215 22.1423 25.6674 19.0576C25.6674 19.0576 28.1351 20.2033 28.2232 22.4948C28.3114 24.3456 27.5182 25.8439 27.3419 26.1083C27.43 26.1083 29.1927 26.9015 29.2809 26.9015C29.6334 26.9015 30.3385 26.6371 30.3385 26.6371C30.4266 26.3727 30.691 25.6676 30.691 25.4032C31.3079 23.3761 29.8097 20.1152 28.3995 18.0881Z" fill="#263238" style="fill:#263238;fill:color(display-p3 0.1490 0.1961 0.2196);fill-opacity:1;"/>
<path d="M17.2066 12.2713C17.8393 12.2713 18.3523 11.4821 18.3523 10.5086C18.3523 9.53514 17.8393 8.74597 17.2066 8.74597C16.5738 8.74597 16.0608 9.53514 16.0608 10.5086C16.0608 11.4821 16.5738 12.2713 17.2066 12.2713Z" fill="#ECEFF1" style="fill:#ECEFF1;fill:color(display-p3 0.9255 0.9373 0.9451);fill-opacity:1;"/>
<path d="M21.1726 12.4474C22 12.4474 22.6708 11.5399 22.6708 10.4204C22.6708 9.30086 22 8.39331 21.1726 8.39331C20.3451 8.39331 19.6743 9.30086 19.6743 10.4204C19.6743 11.5399 20.3451 12.4474 21.1726 12.4474Z" fill="#ECEFF1" style="fill:#ECEFF1;fill:color(display-p3 0.9255 0.9373 0.9451);fill-opacity:1;"/>
<path d="M17.8466 10.6293C17.7734 10.0498 17.44 9.61467 17.1019 9.6574C16.7639 9.70013 16.5493 10.2045 16.6225 10.784C16.6958 11.3635 17.0292 11.7986 17.3672 11.7559C17.7052 11.7132 17.9199 11.2088 17.8466 10.6293Z" fill="#212121" style="fill:#212121;fill:color(display-p3 0.1294 0.1294 0.1294);fill-opacity:1;"/>
<path d="M21.0844 11.9188C21.5712 11.9188 21.9658 11.4058 21.9658 10.7731C21.9658 10.1403 21.5712 9.62732 21.0844 9.62732C20.5977 9.62732 20.2031 10.1403 20.2031 10.7731C20.2031 11.4058 20.5977 11.9188 21.0844 11.9188Z" fill="#212121" style="fill:#212121;fill:color(display-p3 0.1294 0.1294 0.1294);fill-opacity:1;"/>
<path d="M32.8062 30.1624C32.4536 29.9861 31.8367 29.7217 31.3079 28.9285C31.0435 28.4879 31.1316 27.254 30.691 26.7252C30.4266 26.3727 30.074 26.5489 29.9859 26.5489C29.1927 26.7252 27.3419 27.9591 26.108 26.5489C25.9318 26.3727 25.6674 26.1083 25.2267 26.1083C24.786 26.1083 24.6098 26.2845 24.4335 26.6371C24.2572 26.9896 24.2572 27.254 24.2572 28.1353C24.2572 28.8404 24.2572 29.6336 24.1691 30.2505C23.9928 31.7488 23.7284 32.6301 23.7284 33.5115C23.7284 34.4809 23.9928 35.0979 24.3454 35.3623C24.6098 35.6267 25.0504 35.8029 26.0199 35.8029C26.9894 35.8029 27.6063 35.4504 28.2232 34.8335C28.6639 34.3928 29.0164 34.2165 30.2503 33.3352C31.2198 32.7183 32.718 31.9251 32.9824 31.6607C33.1587 31.4844 33.4231 31.3963 33.4231 30.8675C33.4231 30.4268 33.0706 30.2505 32.8062 30.1624Z" fill="#FFC107" style="fill:#FFC107;fill:color(display-p3 1.0000 0.7569 0.0275);fill-opacity:1;"/>
<path d="M15.0914 30.4267C14.21 29.0165 14.1219 28.7521 13.505 27.8708C12.9762 26.9895 11.8304 25.3149 11.1254 25.3149C10.5966 25.3149 10.3322 25.5793 9.97963 25.9319C9.6271 26.2844 9.27457 27.0776 8.65763 27.5183C8.12883 27.9589 6.63057 27.8708 6.27803 28.3996C5.9255 28.9284 6.63057 29.7216 6.63057 31.0436C6.63057 31.5724 6.1899 31.9249 6.10177 32.2775C6.01363 32.7181 5.9255 32.9825 6.10177 33.3351C6.4543 33.8639 6.89497 34.0401 9.8915 34.6571C11.4779 35.0096 12.9762 35.8909 13.9456 35.9791C14.9151 36.0672 16.5896 35.9791 16.5896 33.5995C16.6778 32.1893 15.8846 31.8368 15.0914 30.4267Z" fill="#FFC107" style="fill:#FFC107;fill:color(display-p3 1.0000 0.7569 0.0275);fill-opacity:1;"/>
<path d="M16.7659 14.4746C16.2371 14.122 15.7964 13.7695 15.7964 13.2407C15.7964 12.7119 16.149 12.5356 16.6778 12.095C16.7659 12.0068 17.7354 11.1255 18.7048 11.1255C19.6743 11.1255 20.82 11.7424 21.2607 11.9187C22.0539 12.095 22.8471 12.2712 22.759 12.8882C22.6708 13.7695 22.5827 13.9458 21.7014 14.3864C21.0844 14.5627 19.9387 15.5322 19.1455 15.5322C18.793 15.5322 18.2642 15.5322 17.9116 15.444C17.6472 15.3559 17.2066 14.9152 16.7659 14.4746Z" fill="#FFC107" style="fill:#FFC107;fill:color(display-p3 1.0000 0.7569 0.0275);fill-opacity:1;"/>
<path d="M16.5896 13.7696C16.7659 13.9458 17.0303 14.1221 17.2947 14.2102C17.471 14.2984 17.7354 14.3865 17.7354 14.3865C18.0879 14.3865 18.3523 14.3865 18.5286 14.3865C18.9692 14.3865 19.5862 14.2102 20.2031 13.8577C20.82 13.5933 20.9082 13.417 21.3488 13.2408C21.7895 12.9764 22.2302 12.712 22.0539 12.6238C21.8776 12.5357 21.7014 12.6238 21.0844 12.9764C20.5556 13.3289 20.115 13.5052 19.5862 13.7696C19.3218 13.8577 18.9692 14.034 18.7048 14.034C18.4404 14.034 18.176 14.034 17.9116 14.034C17.6472 14.034 17.471 13.9458 17.2066 13.8577C17.0303 13.7696 16.9422 13.6814 16.854 13.6814C16.6778 13.5933 16.3252 13.2408 16.149 13.1526C16.149 13.1526 15.9727 13.1526 16.0608 13.2408C16.3252 13.5052 16.4134 13.5933 16.5896 13.7696Z" fill="#634703" style="fill:#634703;fill:color(display-p3 0.3882 0.2784 0.0118);fill-opacity:1;"/>
<path d="M19.2336 11.8306C19.3218 12.0069 19.498 12.0069 19.5862 12.095C19.6743 12.1831 19.7624 12.1831 19.7624 12.1831C19.8506 12.095 19.7624 11.9187 19.6743 11.9187C19.6743 11.7425 19.2336 11.7425 19.2336 11.8306Z" fill="#634703" style="fill:#634703;fill:color(display-p3 0.3882 0.2784 0.0118);fill-opacity:1;"/>
<path d="M17.8235 12.0068C17.8235 12.095 17.9998 12.1831 17.9998 12.095C18.0879 12.0068 18.176 11.9187 18.2642 11.9187C18.4404 11.8306 18.3523 11.7424 18.0879 11.7424C17.9116 11.8306 17.9116 11.9187 17.8235 12.0068Z" fill="#634703" style="fill:#634703;fill:color(display-p3 0.3882 0.2784 0.0118);fill-opacity:1;"/>
<path d="M26.3725 27.6065C26.3725 27.6946 26.3725 27.7828 26.3725 27.8709C26.5487 28.2234 26.9894 28.3116 27.3419 28.3116C27.8707 28.3116 28.3995 27.959 28.6639 27.6065C28.6639 27.5184 28.7521 27.4302 28.8402 27.3421C29.0165 27.0777 29.1046 26.9014 29.1927 26.8133C29.1927 26.8133 29.1046 26.7252 29.1046 26.637C29.0165 26.4608 28.7521 26.2845 28.3995 26.1964C28.1351 26.1082 27.6945 26.0201 27.5182 26.0201C26.725 25.932 26.2843 26.1964 26.0199 26.4608C26.0199 26.4608 26.1081 26.4608 26.1081 26.5489C26.2843 26.7252 26.3725 26.9014 26.3725 27.1658C26.4606 27.3421 26.3725 27.4302 26.3725 27.6065Z" fill="#455A64" style="fill:#455A64;fill:color(display-p3 0.2706 0.3529 0.3922);fill-opacity:1;"/>
</svg>
