<svg width="40" height="40" viewBox="0 0 40 40" fill="none" xmlns="http://www.w3.org/2000/svg">
<rect width="40" height="40" fill="#081D34" style="fill:#081D34;fill:color(display-p3 0.0314 0.1137 0.2039);fill-opacity:1;"/>
<path d="M29.8782 21.4075C29.8782 21.6572 29.7836 21.8965 29.6151 22.073C29.4467 22.2495 29.2184 22.3487 28.9801 22.3487C28.742 22.3487 28.5136 22.2495 28.3452 22.073C28.1767 21.8965 28.0821 21.6572 28.0821 21.4075V12.9998C28.0821 12.7502 28.1767 12.5108 28.3452 12.3343C28.5136 12.1579 28.742 12.0587 28.9801 12.0587C29.2184 12.0587 29.4467 12.1579 29.6151 12.3343C29.7836 12.5108 29.8782 12.7502 29.8782 12.9998V21.4075ZM29.5665 27.2331C29.4478 27.3575 26.108 30.2742 19.9851 30.2742C13.8623 30.2742 10.5448 27.3731 10.4038 27.2486C10.3149 27.1701 10.2417 27.074 10.1884 26.9658C10.1351 26.8575 10.1026 26.7393 10.093 26.6179C10.0833 26.4965 10.0966 26.3743 10.1321 26.2583C10.1676 26.1424 10.2246 26.0348 10.2999 25.9419C10.4549 25.754 10.6745 25.638 10.9108 25.6189C11.1472 25.6 11.3811 25.6799 11.5616 25.8409C11.6135 25.8798 14.597 28.4153 19.9778 28.4153C25.3585 28.4153 28.3642 25.8642 28.3938 25.8409C28.5763 25.6812 28.811 25.6025 29.0479 25.6214C29.285 25.6403 29.5056 25.7553 29.663 25.9419C29.8144 26.1271 29.89 26.3675 29.8732 26.6106C29.8566 26.8538 29.749 27.0804 29.5739 27.2409L29.5665 27.2331ZM10.0847 12.9998C10.0981 12.7494 10.2055 12.5148 10.3835 12.3472C10.5616 12.1796 10.7956 12.0926 11.0346 12.1054C11.2562 12.1186 11.4652 12.2172 11.6215 12.3824C11.7777 12.5476 11.87 12.7675 11.8807 12.9998V21.392C11.8807 21.6416 11.7861 21.8809 11.6177 22.0574C11.4493 22.234 11.2208 22.3331 10.9827 22.3331C10.7445 22.3331 10.5161 22.234 10.3477 22.0574C10.1793 21.8809 10.0847 21.6416 10.0847 21.392V12.9998ZM14.5896 11.1331C14.603 10.8828 14.7105 10.6481 14.8885 10.4805C15.0665 10.3129 15.3006 10.226 15.5396 10.2387C15.7611 10.2519 15.9702 10.3506 16.1264 10.5157C16.2826 10.6809 16.375 10.9008 16.3856 11.1331V23.5775C16.3856 23.8272 16.291 24.0665 16.1226 24.243C15.9542 24.4195 15.7258 24.5186 15.4876 24.5186C15.2494 24.5186 15.021 24.4195 14.8526 24.243C14.6842 24.0665 14.5896 23.8272 14.5896 23.5775V11.1331ZM19.1168 10.6665C19.1168 10.4169 19.2114 10.1775 19.3799 10.001C19.5483 9.82453 19.7766 9.72537 20.0149 9.72537C20.253 9.72537 20.4814 9.82453 20.6498 10.001C20.8183 10.1775 20.9129 10.4169 20.9129 10.6665V24.1998C20.9129 24.4493 20.8183 24.6887 20.6498 24.8653C20.4814 25.0418 20.253 25.1409 20.0149 25.1409C19.7766 25.1409 19.5483 25.0418 19.3799 24.8653C19.2114 24.6887 19.1168 24.4493 19.1168 24.1998V10.6665ZM23.5698 11.1331C23.5698 10.8836 23.6644 10.6442 23.8329 10.4677C24.0012 10.2912 24.2296 10.192 24.4679 10.192C24.706 10.192 24.9344 10.2912 25.1028 10.4677C25.2712 10.6442 25.3658 10.8836 25.3658 11.1331V23.5775C25.3658 23.8272 25.2712 24.0665 25.1028 24.243C24.9344 24.4195 24.706 24.5186 24.4679 24.5186C24.2296 24.5186 24.0012 24.4195 23.8329 24.243C23.6644 24.0665 23.5698 23.8272 23.5698 23.5775V11.1331ZM30.1232 5.99983H9.87685C9.4357 5.99676 8.9983 6.08491 8.5897 6.25923C8.18109 6.43356 7.80931 6.69063 7.49564 7.01574C7.18198 7.34085 6.93258 7.72759 6.76173 8.15386C6.59088 8.58011 6.50194 9.03749 6.5 9.49982V30.4998C6.50194 30.962 6.59088 31.4195 6.76173 31.8458C6.93258 32.2719 7.18198 32.6587 7.49564 32.9838C7.80931 33.3089 8.18109 33.566 8.5897 33.7403C8.9983 33.9147 9.4357 34.0028 9.87685 33.9997H30.1232C30.5636 34.0028 31.0004 33.9149 31.4085 33.7411C31.8167 33.5673 32.1881 33.3109 32.5017 32.9865C32.8153 32.6623 33.0649 32.2765 33.2361 31.851C33.4074 31.4258 33.497 30.9692 33.5 30.5075V9.49982C33.498 9.03815 33.4093 8.58141 33.239 8.15566C33.0685 7.72991 32.8198 7.34351 32.5069 7.0185C32.1941 6.6935 31.8231 6.43626 31.4154 6.26148C31.0076 6.08669 30.5711 5.99779 30.1305 5.99983" fill="white" style="fill:white;fill-opacity:1;"/>
</svg>
