<svg xmlns="http://www.w3.org/2000/svg" aria-label="Active" class="text-(--amber-a10)" fill="#F5A623" role="graphics-symbol" viewBox="0 0 24 24"><path d="M7.6875 17.0625V19.3125H9.9375V17.0625H7.6875Z" fill="#F5A623" fill-opacity="0.91" opacity="0.6"/><path d="M14.0625 17.4375V18.9375H15.5625V17.4375H14.0625Z" fill="#F5A623" fill-opacity="0.91" opacity="0.3"/><path d="M4.3125 13.6875V16.6875H7.3125V13.6875H4.3125Z" fill="#F5A623" fill-opacity="0.91"/><path d="M10.6875 14.0625V16.3125H12.9375V14.0625H10.6875Z" fill="#F5A623" fill-opacity="0.91" opacity="0.6"/><path d="M17.0625 14.4375V15.9375H18.5625V14.4375H17.0625Z" fill="#F5A623" fill-opacity="0.91" opacity="0.3"/><path d="M7.3125 10.6875V13.6875H10.3125V10.6875H7.3125Z" fill="#F5A623" fill-opacity="0.91"/><path d="M13.6875 11.0625V13.3125H15.9375V11.0625H13.6875Z" fill="#F5A623" fill-opacity="0.91" opacity="0.6"/><path d="M4.3125 7.6875V10.6875H7.3125V7.6875H4.3125Z" fill="#F5A623" fill-opacity="0.91"/><path d="M1.6875 11.0625L1.6875 13.3125H3.9375V11.0625H1.6875Z" fill="#F5A623" fill-opacity="0.91" opacity="0.6"/><path d="M20.0625 11.4375V12.9375H21.5625V11.4375H20.0625Z" fill="#F5A623" fill-opacity="0.91" opacity="0.3"/><path d="M10.6875 8.0625V10.3125H12.9375V8.0625H10.6875Z" fill="#F5A623" fill-opacity="0.91" opacity="0.6"/><path d="M17.0625 8.4375V9.9375H18.5625V8.4375H17.0625Z" fill="#F5A623" fill-opacity="0.91" opacity="0.3"/><path d="M7.6875 5.0625V7.3125H9.9375V5.0625H7.6875Z" fill="#F5A623" fill-opacity="0.91" opacity="0.6"/><path d="M14.0625 5.4375V6.9375H15.5625V5.4375H14.0625Z" fill="#F5A623" fill-opacity="0.91" opacity="0.3"/></svg>
