<svg xmlns="http://www.w3.org/2000/svg" aria-label="Investigating" class="text-tertiary-foreground" fill="none" role="graphics-symbol" viewBox="0 0 24 24"><path d="M7.6875 17.4375V19.6875H9.9375V17.4375H7.6875Z" fill="#8B8D98" opacity="0.4"/><path d="M13.6875 18.1875V19.6875H15.1875V18.1875H13.6875Z" fill="#8B8D98" opacity="0.3"/><path d="M4.6875 14.4375V16.6875H6.9375V14.4375H4.6875Z" fill="#8B8D98" opacity="0.7"/><path d="M10.6875 14.4375V16.6875H12.9375V14.4375H10.6875Z" fill="#8B8D98" opacity="0.4"/><path d="M16.6875 15.1875V16.6875H18.1875V15.1875H16.6875Z" fill="#8B8D98" opacity="0.3"/><path d="M7.6875 11.4375V13.6875H9.9375V11.4375H7.6875Z" fill="#8B8D98" opacity="0.7"/><path d="M13.6875 11.4375V13.6875H15.9375V11.4375H13.6875Z" fill="#8B8D98" opacity="0.4"/><path d="M4.6875 8.4375V10.6875H6.9375V8.4375H4.6875Z" fill="#8B8D98" opacity="0.7"/><path d="M1.4375 11.1875L1.4375 13.9375H4.1875V11.1875H1.4375Z" fill="#8B8D98" opacity="0.95"/><path d="M19.6875 12.1875V13.6875H21.1875V12.1875H19.6875Z" fill="#8B8D98" opacity="0.3"/><path d="M10.6875 8.4375V10.6875H12.9375V8.4375H10.6875Z" fill="#8B8D98" opacity="0.4"/><path d="M16.6875 9.1875V10.6875H18.1875V9.1875H16.6875Z" fill="#8B8D98" opacity="0.3"/><path d="M7.6875 5.4375V7.6875H9.9375V5.4375H7.6875Z" fill="#8B8D98" opacity="0.4"/><path d="M13.6875 6.1875V7.6875H15.1875V6.1875H13.6875Z" fill="#8B8D98" opacity="0.3"/></svg>
