<svg xmlns="http://www.w3.org/2000/svg" aria-label="Needs Attention" class="text-danger-foreground" fill="none" role="graphics-symbol" viewBox="0 0 24 24"><path d="M7.6875 17.4375V19.6875H9.9375V17.4375H7.6875Z" fill="#E5484D" opacity="0.6"/><path d="M13.3125 17.0625V20.0625H16.3125V17.0625H13.3125Z" fill="#E5484D"/><path d="M5.0625 14.8125V16.3125H6.5625V14.8125H5.0625Z" fill="#E5484D" opacity="0.3"/><path d="M10.6875 14.4375V16.6875H12.9375V14.4375H10.6875Z" fill="#E5484D" opacity="0.6"/><path d="M16.3125 14.0625V17.0625H19.3125V14.0625H16.3125Z" fill="#E5484D"/><path d="M8.0625 11.8125V13.3125H9.5625V11.8125H8.0625Z" fill="#E5484D" opacity="0.3"/><path d="M13.6875 11.4375V13.6875H15.9375V11.4375H13.6875Z" fill="#E5484D" opacity="0.6"/><path d="M5.0625 8.8125V10.3125H6.5625V8.8125H5.0625Z" fill="#E5484D" opacity="0.3"/><path d="M2.0625 11.8125V13.3125H3.5625V11.8125H2.0625Z" fill="#E5484D" opacity="0.3"/><path d="M19.3125 11.0625V14.0625H22.3125V11.0625H19.3125Z" fill="#E5484D"/><path d="M10.6875 8.4375V10.6875H12.9375V8.4375H10.6875Z" fill="#E5484D" opacity="0.6"/><path d="M16.3125 8.0625V11.0625H19.3125V8.0625H16.3125Z" fill="#E5484D"/><path d="M7.6875 5.4375V7.6875H9.9375V5.4375H7.6875Z" fill="#E5484D" opacity="0.6"/><path d="M13.3125 5.0625V8.0625H16.3125V5.0625H13.3125Z" fill="#E5484D"/></svg>
