<svg xmlns="http://www.w3.org/2000/svg" aria-label="Resolved" class="text-positive-foreground" fill="none" role="graphics-symbol" viewBox="0 0 24 24"><path d="M7.3125 17.0625V20.0625H10.3125V17.0625H7.3125Z" fill="#30A46C"/><path d="M14.0625 17.8125V19.3125H15.5625V17.8125H14.0625Z" fill="#30A46C" opacity="0.3"/><path d="M14.0625 17.8125V19.3125H15.5625V17.8125H14.0625Z" fill="#30A46C" opacity="0.3"/><path d="M4.3125 14.0625V17.0625H7.3125V14.0625H4.3125Z" fill="#30A46C"/><path d="M10.3125 14.0625V17.0625H13.3125V14.0625H10.3125Z" fill="#30A46C"/><path d="M17.0625 14.8125V16.3125H18.5625V14.8125H17.0625Z" fill="#30A46C" opacity="0.3"/><path d="M8.0625 11.8125V13.3125H9.5625V11.8125H8.0625Z" fill="#30A46C" opacity="0.3"/><path d="M13.3125 11.0625V14.0625H16.3125V11.0625H13.3125Z" fill="#30A46C"/><path d="M5.0625 8.8125V10.3125H6.5625V8.8125H5.0625Z" fill="#30A46C" opacity="0.3"/><path d="M2.0625 11.8125V13.3125H3.5625V11.8125H2.0625Z" fill="#30A46C" opacity="0.3"/><path d="M20.0625 11.8125V13.3125H21.5625V11.8125H20.0625Z" fill="#30A46C" opacity="0.3"/><path d="M11.0625 8.8125V10.3125H12.5625V8.8125H11.0625Z" fill="#30A46C" opacity="0.3"/><path d="M16.3125 8.0625V11.0625H19.3125V8.0625H16.3125Z" fill="#30A46C"/><path d="M8.0625 5.8125V7.3125H9.5625V5.8125H8.0625Z" fill="#30A46C" opacity="0.3"/><path d="M14.0625 5.8125V7.3125H15.5625V5.8125H14.0625Z" fill="#30A46C" opacity="0.3"/></svg>
