<svg width="40" height="40" viewBox="0 0 40 40" fill="none" xmlns="http://www.w3.org/2000/svg">
<path d="M20 26.4968C23.5898 26.4968 26.5 23.5866 26.5 19.9968C26.5 16.407 23.5898 13.4968 20 13.4968C16.4102 13.4968 13.5 16.407 13.5 19.9968C13.5 23.5866 16.4102 26.4968 20 26.4968Z" fill="white" style="fill:white;fill-opacity:1;"/>
<path d="M20 13.4998H31.2565C30.1158 11.5234 28.4749 9.88225 26.4988 8.74123C24.5227 7.60022 22.281 6.9996 19.9991 6.99976C17.7173 6.99992 15.4757 7.60085 13.4997 8.74214C11.5238 9.88343 9.88312 11.5248 8.74275 13.5013L14.371 23.2497L14.376 23.2484C13.8035 22.2611 13.5013 21.1403 13.5 19.999C13.4988 18.8577 13.7984 17.7362 14.3687 16.7476C14.939 15.759 15.7599 14.9383 16.7485 14.3681C17.7372 13.7978 18.8587 13.4983 20 13.4998Z" fill="url(#paint0_linear_14148_3949)"/>
<path d="M20 25.1456C22.842 25.1456 25.1458 22.8418 25.1458 19.9998C25.1458 17.1579 22.842 14.854 20 14.854C17.1581 14.854 14.8542 17.1579 14.8542 19.9998C14.8542 22.8418 17.1581 25.1456 20 25.1456Z" fill="#1A73E8" style="fill:#1A73E8;fill:color(display-p3 0.1020 0.4510 0.9098);fill-opacity:1;"/>
<path d="M25.6286 23.2513L20.0004 32.9997C22.2823 33 24.524 32.3996 26.5002 31.2587C28.4764 30.1178 30.1173 28.4768 31.2581 26.5005C32.3989 24.5243 32.9993 22.2826 32.9989 20.0007C32.9985 17.7188 32.3973 15.4773 31.2558 13.5015H19.9994L19.9981 13.5065C21.1394 13.5043 22.2611 13.803 23.2501 14.3726C24.2392 14.9421 25.0606 15.7623 25.6316 16.7505C26.2026 17.7387 26.503 18.86 26.5024 20.0013C26.5019 21.1426 26.2005 22.2636 25.6286 23.2513Z" fill="url(#paint1_linear_14148_3949)"/>
<path d="M14.3714 23.2513L8.74314 13.5029C7.60192 15.4789 7.00106 17.7206 7.00098 20.0024C7.00089 22.2843 7.60159 24.526 8.74266 26.502C9.88373 28.4781 11.525 30.1189 13.5013 31.2595C15.4777 32.4001 17.7195 33.0003 20.0014 32.9996L25.6296 23.2512L25.626 23.2475C25.0572 24.237 24.2376 25.0591 23.2499 25.6308C22.2621 26.2026 21.1411 26.5039 19.9998 26.5043C18.8585 26.5046 17.7372 26.2041 16.7491 25.633C15.7609 25.0619 14.9408 24.2404 14.3714 23.2513Z" fill="url(#paint2_linear_14148_3949)"/>
<defs>
<linearGradient id="paint0_linear_14148_3949" x1="8.74275" y1="15.1248" x2="31.2565" y2="15.1248" gradientUnits="userSpaceOnUse">
<stop stop-color="#D93025" style="stop-color:#D93025;stop-color:color(display-p3 0.8510 0.1882 0.1451);stop-opacity:1;"/>
<stop offset="1" stop-color="#EA4335" style="stop-color:#EA4335;stop-color:color(display-p3 0.9176 0.2627 0.2078);stop-opacity:1;"/>
</linearGradient>
<linearGradient id="paint1_linear_14148_3949" x1="18.2244" y1="32.8259" x2="29.4813" y2="13.3285" gradientUnits="userSpaceOnUse">
<stop stop-color="#FCC934" style="stop-color:#FCC934;stop-color:color(display-p3 0.9882 0.7882 0.2039);stop-opacity:1;"/>
<stop offset="1" stop-color="#FBBC04" style="stop-color:#FBBC04;stop-color:color(display-p3 0.9843 0.7373 0.0157);stop-opacity:1;"/>
</linearGradient>
<linearGradient id="paint2_linear_14148_3949" x1="21.4073" y1="32.1879" x2="10.1504" y2="12.6904" gradientUnits="userSpaceOnUse">
<stop stop-color="#1E8E3E" style="stop-color:#1E8E3E;stop-color:color(display-p3 0.1176 0.5569 0.2431);stop-opacity:1;"/>
<stop offset="1" stop-color="#34A853" style="stop-color:#34A853;stop-color:color(display-p3 0.2039 0.6588 0.3255);stop-opacity:1;"/>
</linearGradient>
</defs>
</svg>
