<svg width="40" height="40" viewBox="0 0 40 40" fill="none" xmlns="http://www.w3.org/2000/svg">
<rect width="40" height="40" fill="#689F63" style="fill:#689F63;fill:color(display-p3 0.4078 0.6235 0.3882);fill-opacity:1;"/>
<path d="M20.0889 34.9998C19.6938 34.9998 19.3015 34.8979 18.9551 34.7018L15.3465 32.6015C14.8075 32.3052 15.0705 32.2004 15.2483 32.14C15.9669 31.8926 16.1127 31.8368 16.8798 31.4085C16.9605 31.3633 17.066 31.3793 17.1485 31.4271L19.9208 33.0444C20.0209 33.0976 20.163 33.0976 20.2558 33.0444L31.0653 26.9105C31.1654 26.8546 31.2304 26.7403 31.2304 26.6232V14.3607C31.2304 14.2384 31.1654 14.1293 31.0632 14.0681L20.258 7.93954C20.1579 7.88102 20.0253 7.88102 19.9252 7.93954L9.12213 14.0681C9.01742 14.1266 8.95086 14.241 8.95086 14.3581V26.6206C8.95086 26.7376 9.01579 26.8493 9.11861 26.9052L12.0787 28.5863C13.6859 29.3763 14.6681 28.4453 14.6681 27.509V15.4061C14.6681 15.2332 14.8061 15.1002 14.982 15.1002H16.3511C16.5216 15.1002 16.6623 15.2332 16.6623 15.4061V27.5143C16.6623 29.621 15.4934 30.8313 13.4614 30.8313C12.8363 30.8313 12.3439 30.8313 10.9694 30.1663L8.13372 28.5597C7.43292 28.1607 7 27.4159 7 26.6206V14.3581C7 13.5601 7.43292 12.8153 8.13372 12.4216L18.9541 6.28503C19.6386 5.90465 20.5478 5.90465 21.2269 6.28503L32.0337 12.4243C32.7318 12.8206 33.1674 13.5627 33.1674 14.3607V26.6232C33.1674 27.4186 32.7318 28.1607 32.0337 28.5597L21.2269 34.6963C20.8806 34.8931 20.4882 34.9942 20.0878 34.9942" fill="white" style="fill:white;fill-opacity:1;"/>
<path d="M23.4278 26.55C18.6981 26.55 17.7064 24.4157 17.7064 22.6255C17.7064 22.4553 17.8461 22.3196 18.0195 22.3196H19.4157C19.5699 22.3196 19.6998 22.43 19.7241 22.5798C19.9352 23.9784 20.5629 24.6838 23.4229 24.6838C25.7012 24.6838 26.6698 24.1779 26.6698 22.9902C26.6698 22.3066 26.3938 21.7985 22.8547 21.458C19.8946 21.1708 18.0655 20.5297 18.0655 18.2022C18.0655 16.0583 19.9054 14.7815 22.9873 14.7815C26.448 14.7815 28.1634 15.9625 28.3799 18.5001C28.388 18.5879 28.3555 18.673 28.296 18.7369C28.2365 18.7981 28.1526 18.8353 28.066 18.8353H26.6617C26.5156 18.8353 26.3884 18.7342 26.3587 18.5959C26.0204 17.1249 25.2033 16.6541 22.9819 16.6541C20.4953 16.6541 20.2058 17.5053 20.2058 18.1437C20.2058 18.9178 20.5467 19.1439 23.9018 19.5801C27.2245 20.0137 28.802 20.6255 28.802 22.921C28.802 25.2352 26.8376 26.5625 23.4121 26.5625M30.5783 6.55811H30.9409C31.2385 6.55811 31.2954 6.35329 31.2954 6.23359C31.2954 5.91971 31.0762 5.91972 30.9544 5.91972H30.581L30.5783 6.55811ZM30.1373 5.55264H30.9409C31.2169 5.55264 31.7581 5.55264 31.7581 6.15911C31.7581 6.58205 31.4821 6.66983 31.317 6.72303C31.639 6.74431 31.6606 6.95179 31.7039 7.24438C31.7256 7.42792 31.7608 7.74446 31.8257 7.85086H31.3305C31.317 7.74446 31.2413 7.15926 31.2413 7.12734C31.2088 6.99701 31.1628 6.93317 30.9977 6.93317H30.5892V7.85352H30.1373V5.55264ZM29.1713 6.69643C29.1713 7.6487 29.9533 8.42009 30.9139 8.42009C31.8825 8.42009 32.6645 7.63274 32.6645 6.69643C32.6645 5.7415 31.8717 4.9834 30.9111 4.9834C29.9641 4.9834 29.1686 5.73085 29.1686 6.69377M33 6.70175C33 7.82958 32.0611 8.74993 30.9166 8.74993C29.7801 8.74993 28.8331 7.84022 28.8331 6.70175C28.8331 5.542 29.8018 4.65356 30.9166 4.65356C32.0395 4.65356 32.9973 5.54466 32.9973 6.70175" fill="white" style="fill:white;fill-opacity:1;"/>
</svg>
