<svg width="40" height="40" viewBox="0 0 40 40" fill="none" xmlns="http://www.w3.org/2000/svg">
<path d="M20.0889 34.9999C19.6938 34.9999 19.3015 34.898 18.9551 34.702L15.3465 32.6016C14.8075 32.3053 15.0705 32.2005 15.2483 32.1401C15.9669 31.8928 16.1127 31.8369 16.8798 31.4086C16.9605 31.3634 17.066 31.3794 17.1485 31.4273L19.9208 33.0445C20.0209 33.0977 20.163 33.0977 20.2558 33.0445L31.0653 26.9106C31.1654 26.8548 31.2304 26.7404 31.2304 26.6233V14.3608C31.2304 14.2385 31.1654 14.1294 31.0632 14.0682L20.258 7.93966C20.1579 7.88114 20.0253 7.88114 19.9252 7.93966L9.12213 14.0682C9.01742 14.1268 8.95086 14.2411 8.95086 14.3582V26.6207C8.95086 26.7377 9.01579 26.8494 9.11861 26.9053L12.0787 28.5864C13.6859 29.3764 14.6681 28.4454 14.6681 27.5091V15.4062C14.6681 15.2333 14.8061 15.1003 14.982 15.1003H16.3511C16.5216 15.1003 16.6623 15.2333 16.6623 15.4062V27.5144C16.6623 29.6211 15.4934 30.8314 13.4614 30.8314C12.8363 30.8314 12.3439 30.8314 10.9694 30.1664L8.13372 28.5598C7.43292 28.1608 7 27.416 7 26.6207V14.3582C7 13.5602 7.43292 12.8154 8.13372 12.4217L18.9541 6.28515C19.6386 5.90478 20.5478 5.90478 21.2269 6.28515L32.0337 12.4244C32.7318 12.8207 33.1674 13.5629 33.1674 14.3608V26.6233C33.1674 27.4187 32.7318 28.1608 32.0337 28.5598L21.2269 34.6964C20.8806 34.8932 20.4882 34.9943 20.0878 34.9943" fill="#689F63" style="fill:#689F63;fill:color(display-p3 0.4078 0.6235 0.3882);fill-opacity:1;"/>
<path d="M23.4278 26.5502C18.6981 26.5502 17.7064 24.4158 17.7064 22.6256C17.7064 22.4554 17.8461 22.3197 18.0195 22.3197H19.4157C19.5699 22.3197 19.6998 22.4301 19.7241 22.5799C19.9352 23.9785 20.5629 24.6839 23.4229 24.6839C25.7012 24.6839 26.6698 24.178 26.6698 22.9903C26.6698 22.3067 26.3938 21.7986 22.8547 21.4582C19.8946 21.1709 18.0655 20.5298 18.0655 18.2024C18.0655 16.0584 19.9054 14.7816 22.9873 14.7816C26.448 14.7816 28.1634 15.9626 28.3799 18.5003C28.388 18.588 28.3555 18.6732 28.296 18.737C28.2365 18.7982 28.1526 18.8354 28.066 18.8354H26.6617C26.5156 18.8354 26.3884 18.7343 26.3587 18.596C26.0204 17.1251 25.2033 16.6542 22.9819 16.6542C20.4953 16.6542 20.2058 17.5054 20.2058 18.1438C20.2058 18.9179 20.5467 19.144 23.9018 19.5802C27.2245 20.0138 28.802 20.6256 28.802 22.9212C28.802 25.2353 26.8376 26.5627 23.4121 26.5627M30.5783 6.55823H30.9409C31.2385 6.55823 31.2954 6.35341 31.2954 6.23371C31.2954 5.91984 31.0762 5.91984 30.9544 5.91984H30.581L30.5783 6.55823ZM30.1373 5.55276H30.9409C31.2169 5.55276 31.7581 5.55276 31.7581 6.15923C31.7581 6.58217 31.4821 6.66995 31.317 6.72315C31.639 6.74443 31.6606 6.95191 31.7039 7.24451C31.7256 7.42804 31.7608 7.74458 31.8257 7.85098H31.3305C31.317 7.74458 31.2413 7.15939 31.2413 7.12747C31.2088 6.99713 31.1628 6.93329 30.9977 6.93329H30.5892V7.85364H30.1373V5.55276ZM29.1713 6.69655C29.1713 7.64882 29.9533 8.42022 30.9139 8.42022C31.8825 8.42022 32.6645 7.63286 32.6645 6.69655C32.6645 5.74162 31.8717 4.98353 30.9111 4.98353C29.9641 4.98353 29.1686 5.73098 29.1686 6.69389M33 6.70187C33 7.8297 32.0611 8.75005 30.9166 8.75005C29.7801 8.75005 28.8331 7.84034 28.8331 6.70187C28.8331 5.54212 29.8018 4.65369 30.9166 4.65369C32.0395 4.65369 32.9973 5.54478 32.9973 6.70187" fill="#689F63" style="fill:#689F63;fill:color(display-p3 0.4078 0.6235 0.3882);fill-opacity:1;"/>
</svg>
